<svg xmlns="http://www.w3.org/2000/svg" viewBox="0 0 64 80" fill="none" aria-hidden="true">
  <!-- Pin com cruzamento de ruas  cantos arredondados -->
  <path
    fill="currentColor"
    fill-rule="evenodd"
    d="M32 2c16.016 0 29 12.984 29 29 0 14.35-9.86 24.86-20.55 35.05C35.2 71.7 33.2 74.4 32 76.5c-1.2-2.1-3.2-4.8-8.45-10.45C12.86 55.86 3 45.35 3 31 3 14.984 15.984 2 32 2Zm0 10.5c-10.217 0-18.5 8.283-18.5 18.5 0 10.217 8.283 18.5 18.5 18.5s18.5-8.283 18.5-18.5c0-10.217-8.283-18.5-18.5-18.5Z"
  />
  <path
    fill="currentColor"
    stroke="currentColor"
    stroke-width="7.5"
    stroke-linecap="round"
    stroke-linejoin="round"
    d="M22.5 21.5 41.5 40.5M41.5 21.5 22.5 40.5"
  />
</svg>
