<?xml version="1.0" encoding="UTF-8"?>
<svg xmlns="http://www.w3.org/2000/svg" viewBox="0 0 146.19 177.68" aria-hidden="true">
  <path fill="#000c2d" d="M1.1,155.91L57.03,10.44c5.33-13.86,25.46-13.95,30.92-.13l57.09,144.6c5.39,13.65-9.24,26.63-22.73,20.19l-43.34-20.71c-4.83-2.31-10.52-2.19-15.25.33l-39.2,20.92c-13.44,7.17-28.81-5.76-23.44-19.72Z"/>
  <path fill="#243354" d="M134.01,134.75L85.68,8.96c-2.23-5.81-7.36-8.78-12.58-8.96v132.92c1.71.15,3.4.6,4.98,1.38l36.69,18.02c11.42,5.61,23.8-5.69,19.24-17.56Z"/>
  <path fill="#000c2d" d="M73.1,75.57v36.89c10.19,0,18.44-8.26,18.44-18.44s-8.26-18.44-18.44-18.44Z"/>
  <path fill="#243354" d="M73.1,112.45v-36.89c-10.19,0-18.44,8.26-18.44,18.44s8.26,18.44,18.44,18.44Z"/>
</svg>
