<?xml version="1.0" encoding="UTF-8"?>
<svg xmlns="http://www.w3.org/2000/svg" viewBox="0 0 120.86 179.52" aria-hidden="true">
  <path fill="#000c2d" d="M60.43,42.32v36.89c10.19,0,18.44-8.26,18.44-18.44s-8.26-18.44-18.44-18.44Z"/>
  <path fill="#243354" d="M60.43,79.21v-36.89c-10.19,0-18.44,8.26-18.44,18.44s8.26,18.44,18.44,18.44Z"/>
  <path fill="#000c2d" d="M70.57,162.65c-4.79,7.2-15.34,7.31-20.27.21l-1.92-2.76C29.05,132.27,9.42,102.52,1.52,69.03-7.66,30.13,26.18-1.11,61.82.03c38.29,1.23,69.24,36.53,55.87,75.66-10.91,31.94-28.18,58.49-47.12,86.97ZM53.84,34.33c-16.27,4.45-24.71,20.07-19.04,36.36,4.21,12.09,19.62,21.27,35.91,16.08,11.65-3.71,20.19-20.39,16.06-33.49-4.46-14.13-17.37-23.2-32.92-18.94Z"/>
  <path fill="#243354" d="M114.84,75.69C128.37,36.09,99.36.4,60.43,0v33.3c12.54-.48,22.53,7.89,26.34,19.97,4.13,13.1-4.41,29.78-16.06,33.49-3.5,1.12-6.96,1.56-10.28,1.47v70.45c0,5.65,7.35,7.84,10.44,3.11,13.96-21.42,35.11-60.18,43.97-86.11Z"/>
  <path fill="#000c2d" d="M58.86,179.52c-8.57,0-24.76-.89-24.76-4.26s16.2-4.26,24.76-4.26,24.76.89,24.76,4.26-16.2,4.26-24.76,4.26ZM58.86,172.31c-14.8,0-22.88,1.95-22.88,2.95s8.08,2.95,22.88,2.95,22.88-1.95,22.88-2.95-8.08-2.95-22.88-2.95Z"/>
</svg>
