<?xml version="1.0" encoding="UTF-8"?>
<svg xmlns="http://www.w3.org/2000/svg" xmlns:xlink="http://www.w3.org/1999/xlink" viewBox="0 0 519.83 190.11" version="1.1">
  <defs>
    <style>
      .b02-bg { fill: #0a1220; }
      .b02w-cls-1, .b02w-cls-2 {
              fill: #475ca9;
            }
      
            .b02w-cls-3 {
              fill: none;
              stroke: silver;
              stroke-miterlimit: 10;
              stroke-width: .25px;
            }
      
            .b02w-cls-2 {
              stroke: #2f9d49;
              stroke-linecap: round;
              stroke-linejoin: round;
            }

      .b02i-cls-1 {
              font-family: Gotham-Light, Gotham;
              font-size: 2.11px;
              font-weight: 300;
            }
      
            .b02i-cls-1, .b02i-cls-2 {
              fill: #848484;
            }
      
            .b02i-cls-3 {
              letter-spacing: -.02em;
            }
      
            .b02i-cls-4 {
              fill: #475ca9;
            }
      
            .b02i-cls-5 {
              letter-spacing: -.02em;
            }
      
            .b02i-cls-6 {
              fill: #bababa;
            }
      
            .b02i-cls-7 {
              fill: #366484;
            }
      
            .b02i-cls-8 {
              letter-spacing: -.03em;
            }
      
            .b02i-cls-9 {
              letter-spacing: 0em;
            }
      
            .b02i-cls-10 {
              letter-spacing: -.04em;
            }
      
            .b02i-cls-11 {
              stroke-linecap: round;
              stroke-linejoin: round;
              stroke-width: .25px;
            }
      
            .b02i-cls-11, .b02i-cls-12 {
              fill: none;
              stroke: #2f9d49;
            }
      
            .b02i-cls-13 {
              letter-spacing: -.01em;
            }
      
            .b02i-cls-14 {
              letter-spacing: -.03em;
            }
      
            .b02i-cls-15 {
              letter-spacing: -.1em;
            }
      
            .b02i-cls-16 {
              letter-spacing: 0em;
            }
      
            .b02i-cls-17 {
              font-family: REM-SemiBold, REM;
              font-size: 2.85px;
              font-weight: 600;
            }
      
            .b02i-cls-17, .b02i-cls-18 {
              fill: #2f9d49;
            }
      
            .b02i-cls-19 {
              letter-spacing: -.01em;
            }
      
            .b02i-cls-20 {
              letter-spacing: -.02em;
            }
      
            .b02i-cls-21 {
              letter-spacing: -.04em;
            }
      
            .b02i-cls-12 {
              stroke-miterlimit: 10;
            }
      
            .b02i-cls-22 {
              letter-spacing: 0em;
            }
      
            .b02i-cls-23 {
              letter-spacing: 0em;
            }

      .b02p-cls-1 {
              fill: #b4cbd8;
            }

      .b02n-cls-1 {
              fill: #080630;
            }

      .b02e-cls-1 {
              fill: none;
              stroke: #ff9700;
              stroke-miterlimit: 10;
            }
    </style>
    <symbol id="Sub_Solo_NARNIA_-_comunic" data-name="Sub Solo NARNIA - comunic" viewBox="0 0 518.76 190.11">
          <g>
            <rect class="b02w-cls-1" x="218.93" y="130" width="59.39" height="3.78"/>
            <rect class="b02w-cls-1" x="68.04" y="95.78" width="138.07" height="8.04"/>
            <rect class="b02w-cls-1" x="67.75" y="106.77" width="138.07" height="8.04"/>
            <g>
              <polygon class="b02w-cls-1" points="78.83 126.92 129.83 126.72 78.83 126.72 78.83 126.92"/>
              <path class="b02w-cls-1" d="M62.8,126.72h12.73v.22h3.31v-.22h51l18.83,8.77c18.84,7.25,39.02,13.97,58.86,17.33,0,0,16.83,2.42,23.75,3.05l3.31.32c23.05,1.79,46.19.95,69.04-2.52v33.83l3.21-.13v-36.42h-.1v-.95c-4.41.74-8.92,1.37-13.33,1.89v-48.63h4.61v-2.94h-4.61v-11.88h-4.91v2.94h1.6v60.93c-22.75,2.42-45.69,2.31-68.34-.42v-36.89h-3.31v36.47c-23.75-3.05-47.84-10.39-70.18-19.01l-17.63-8.35v-.32h-.8l-.9-.32v.32H49.77v-9.25h-3.31v9.25h-22.34v2.94h35.37v63.39h3.31v-63.39Z"/>
              <polygon class="b02w-cls-1" points="3.31 187.05 3.31 180.95 0 180.95 0 189.99 3.31 189.99 62.8 189.99 62.93 187.05 3.31 187.05"/>
              <line class="b02w-cls-2" x1="321.96" y1="144.68" x2="321.96" y2="141.3"/>
              <polygon class="b02w-cls-1" points="278.37 140.21 278.37 91.47 280.17 91.47 280.17 88.53 218.25 88.53 218.25 91.47 221.56 91.47 275.06 91.47 275.06 140.21 278.37 140.21"/>
              <rect class="b02w-cls-1" x="218.25" y="91.47" width="3.31" height="4.41"/>
              <path class="b02w-cls-1" d="M518.55,59.41v-.11h-3.31v.11h-61.82v-10.41l.2.11v-2.94l-36.17-15.03c-2.1-.84-4.11-1.68-6.21-2.52v-.11h-.3C370.06,12.43,326.67,3.07,283.08.66v-.1h-2.3c-61.22-3.15-123.05,7.25-180.06,30.9l-35.17,14.72v2.94l.2-.11v10.41H4.22v-4.1H.91v98.91h3.31v-26.82h8.02v-2.94H4.22v-62.42h42.59v38.4h3.31v-38.4h53.51v-2.94h-34.67v-11.77l31.96-13.35c9.22-3.78,18.54-7.36,27.96-10.41v35.53h-3.11v2.94h21.14v-2.94h-14.73V22.52c19.94-6.41,40.38-11.35,61.02-14.61v51.19h-18.04v2.94h25.95v-2.94h-4.61V7.38c27.56-4.2,55.41-5.57,83.17-4.31v56.03h-48.5v2.94h63.53v-2.94h-11.72V3.28c17.44.95,34.67,3.05,51.9,6.2v49.61h-10.02v2.94h18.54v-2.94h-5.31V10.12c23.75,4.52,47.09,11.14,69.74,19.87v19.55h3.31v-18.29c2.21.84,4.31,1.68,6.41,2.63l32.47,13.45v11.77h-90.48v2.94h12.02v6.41h3.31v-6.41h15.43v6.52h3.31v-6.52h121.54v61.41h-127.46v.21l-27.76,9.99c-11.32,4.1-22.85,7.36-34.47,10.09v-13.77h35.87v-.21h.1v-37.86h70.64v-2.94h-38.38v-5.57h-3.31v5.57h-15.43v-5.68h-3.31v5.68h-40.41v2.73h26.88v35.13h-42.69v-35.13h4.69v-2.73h-8v11.44h-4.31v2.94h4.31v26.74h10.02v14.51c-.1,0-.2,0-.2.11v42.04l3.31-.14v-39.69c11.82-2.73,23.55-6.1,35.07-10.2l27.56-9.88v-.11h64.12l2.72-.47,25.63.47h38.18V62.36h.2v-2.94h-.2Z"/>
            </g>
          </g>
        </symbol>
  </defs>
  <g id="B02_map_background">
    <rect class="b02-bg" data-floor-bg="true" width="519.83" height="190.11"/>
    <g id="B02_map_content">
    <g id="B02_WALL" data-layer="2026_mapa_B02_wall_parede.svg">
      <g id="L01_escadas_lateral">
          <rect class="b02w-cls-3" x="307.64" y="152.22" width="15.26" height="4.37"/>
          <rect class="b02w-cls-3" x="307.64" y="156.59" width="15.26" height="4.37"/>
          <rect class="b02w-cls-3" x="307.64" y="160.95" width="15.26" height="4.37"/>
          <rect class="b02w-cls-3" x="307.64" y="165.32" width="15.26" height="4.37"/>
          <rect class="b02w-cls-3" x="307.64" y="169.68" width="15.26" height="4.37"/>
          <rect class="b02w-cls-3" x="307.64" y="174.05" width="15.26" height="4.37"/>
          <rect class="b02w-cls-3" x="307.64" y="178.41" width="15.26" height="4.37"/>
          <rect class="b02w-cls-3" x="307.64" y="182.78" width="15.26" height="4.37"/>
          <rect class="b02w-cls-3" x="27.81" y="169.27" width="17.28" height="5.83" transform="translate(-135.74 208.63) rotate(-90)"/>
          <rect class="b02w-cls-3" x="33.64" y="169.27" width="17.28" height="5.83" transform="translate(-129.91 214.46) rotate(-90)"/>
          <rect class="b02w-cls-3" x="39.47" y="169.27" width="17.28" height="5.83" transform="translate(-124.08 220.29) rotate(-90)"/>
          <rect class="b02w-cls-3" x="45.3" y="169.27" width="17.28" height="5.83" transform="translate(-118.24 226.12) rotate(-90)"/>
        </g>
        <use width="518.76" height="190.11" transform="" xlink:href="#Sub_Solo_NARNIA_-_comunic"/>
    </g>
    <g id="B02_ICONS" data-layer="2026_mapa_B02_info.svg">
      <g id="L05_icon_">
          <g>
            <path class="b02i-cls-6" d="M313.88,166.43c.22.1.42.18.6.29.05.03.1.13.1.2,0,.3-.03.59-.05.89-.02.36.17.62.5.65.29.03.54-.19.57-.53.04-.5.06-1,.08-1.5,0-.24-.12-.4-.33-.5-.33-.16-.66-.32-.99-.47-.13-.06-.18-.13-.17-.27.01-.24,0-.49,0-.78.56.69,1.32.53,2.01.6.25.03.41-.19.42-.45,0-.25-.14-.43-.38-.46-.3-.04-.59-.07-.89-.1-.18-.01-.32-.08-.43-.23-.29-.37-.57-.74-.88-1.09-.36-.4-.61-.43-1.05-.12-.47.33-.94.68-1.39,1.04-.11.08-.19.25-.2.38-.06.5-.1,1-.13,1.5-.02.27.14.47.4.5.28.03.48-.11.52-.4.04-.3.09-.6.06-.89-.03-.43.21-.63.56-.8,0,.09.02.16.02.23,0,.63.05,1.26,0,1.89-.05.54-.21,1.07-.33,1.6-.12.55-.26,1.09-.39,1.64-.07.32.07.59.35.67.31.09.59-.07.68-.41.24-.96.47-1.93.71-2.9,0-.04.02-.08.05-.16Z"/>
            <path class="b02i-cls-6" d="M318.83,164.42v1.41h-1.42v1.42h-1.43v1.44h-1.42v1.59c.23.06.39.01.56-.15,1.7-1.71,3.4-3.41,5.11-5.11.18-.17.26-.35.19-.6h-1.58Z"/>
            <path class="b02i-cls-6" d="M312.97,161.24c0,.52.4.92.92.92.51,0,.92-.41.91-.93,0-.49-.42-.91-.91-.91-.51,0-.92.41-.92.92Z"/>
          </g>
          <g id="L03_sala_004">
            <g>
              <path class="b02i-cls-18" d="M347.47,118.79l-4.63-5.07c-1.18-1.29-1.78-2.96-1.7-4.7.08-1.74.83-3.35,2.12-4.52,1.29-1.18,2.96-1.78,4.7-1.7,1.74.08,3.35.83,4.52,2.12,1.24,1.35,1.87,3.11,1.79,4.94-.08,1.83-.88,3.52-2.23,4.76h0s-4.57,4.17-4.57,4.17ZM347.67,103.21c-1.47,0-2.95.53-4.12,1.59-2.49,2.27-2.67,6.15-.4,8.64l4.35,4.77,4.27-3.89.14.15-.14-.15c2.63-2.4,2.81-6.49.42-9.11-1.2-1.32-2.86-1.99-4.52-1.99Z"/>
              <polyline class="b02i-cls-11" points="343.1 109.82 344.97 109.82 345.75 106.84 346.01 113.12 346.44 107.44 346.6 110.1 347.05 109.09 347.18 113.84 347.81 105.84 348.31 110.03 348.9 109.04 349.23 110.96 349.81 107.08 350.32 112.13 350.86 109.84 352.32 109.84"/>
            </g>
          </g>
          <g id="L03_sala_004-2" data-name="L03_sala_004">
            <g>
              <path class="b02i-cls-18" d="M239.98,40.12l-4.63-5.07c-1.18-1.29-1.78-2.96-1.7-4.7.08-1.74.83-3.35,2.12-4.52,1.29-1.18,2.96-1.78,4.7-1.7,1.74.08,3.35.83,4.52,2.12,1.24,1.35,1.87,3.11,1.79,4.94-.08,1.83-.88,3.52-2.23,4.76h0s-4.57,4.17-4.57,4.17ZM240.17,24.54c-1.47,0-2.95.53-4.12,1.59-2.49,2.27-2.67,6.15-.4,8.64l4.35,4.77,4.27-3.89.14.15-.14-.15c2.63-2.4,2.81-6.49.42-9.11-1.2-1.32-2.86-1.99-4.52-1.99Z"/>
              <g>
                <path class="b02i-cls-18" d="M242.48,31.99s.1-.1.13-.09c.05,0,.1.13.08.17l-.48,1.12h-1.31c-.21,0-.32.21-.31.38.01.19.16.34.37.34h1.53c.14,0,.26-.14.31-.26l.71-1.72s.11-.1.15-.09.08.13.06.17l-.78,1.89h.66s.13.05.13.08c0,.04-.05.09-.1.14h-6.64c-.05-.03-.1-.07-.12-.1-.02-.04.09-.12.14-.12h.62s-.79-1.88-.79-1.88c0-.05.02-.14.06-.17s.13.05.15.09l.72,1.75c.06.13.19.23.34.23h1.49c.23,0,.38-.16.38-.36s-.15-.35-.38-.35h-1.24s-.48-1.12-.48-1.12l.05-.16s.13,0,.15.04l.43,1.02h1.15c.2,0,.41.14.49.3.1.2.08.38-.03.63h.36c-.1-.18-.14-.37-.06-.56.07-.17.25-.36.47-.36h1.2s.41-.99.41-.99Z"/>
                <path class="b02i-cls-18" d="M240.03,26.5c-.46.37-.46.96-.06,1.35.39.37.95.45,1.48.32.21.11.4.19.67.22-.14-.33-.07-.56.09-.82.22-.38.06-.85-.29-1.11-.33-.27-.76-.34-1.18-.28l-.12-.03s-.01-.17.02-.18c.5-.11,1.12.02,1.51.38s.51.91.24,1.38c-.18.22-.15.55.12.69l.03.11c.05.16-.69.11-1.11-.13-.93.22-1.96-.3-1.97-1.23,0-.63.63-1.04.6-.83l-.02.16Z"/>
                <path class="b02i-cls-18" d="M239.08,28.18l.69.05s.09.03.12.04c.15.1-.2.26-.74.13-.42.23-1.14.28-1.11.15l.03-.13c.27-.14.29-.47.11-.69-.29-.5-.14-1.11.34-1.46.64-.47,1.56-.46,2.17.05.55.46.57,1.22.05,1.7-.03.03-.13.06-.17.03-.05-.02-.04-.16,0-.2.41-.36.42-.93.02-1.31-.52-.49-1.37-.52-1.94-.09-.37.28-.52.75-.28,1.14.15.25.21.5.06.78.23-.01.43-.08.65-.2Z"/>
                <path class="b02i-cls-18" d="M243.47,31.24h-.85c-.39,0-.79.28-.83.69-.05.47.05.82-.1.93-.04.02-.14-.06-.14-.11v-.67c0-.54.4-1.02.96-1.05.3-.02.61-.01.92-.01.58,0,1.07.43,1.1,1.01v1.98s-.08.12-.08.12c-.02.03-.12-.05-.14-.09v-2.05c-.02-.41-.44-.74-.83-.74Z"/>
                <path class="b02i-cls-18" d="M237.93,31.23h-.83c-.43,0-.77.33-.83.74v2.02s-.07.11-.11.13-.11-.09-.11-.12v-2.06c.08-.5.49-.91,1.01-.92.34,0,.67-.01,1.01,0,.52.03.94.47.95.98v.74s-.05.11-.09.12-.13-.07-.13-.11l-.02-.8c0-.43-.43-.73-.85-.73Z"/>
                <path class="b02i-cls-18" d="M237.27,28.67c.6-.15,1.15.2,1.29.77.13.52-.21,1.1-.76,1.24s-1.12-.18-1.27-.75c-.14-.52.15-1.12.74-1.27ZM237.28,28.9c-.46.15-.65.64-.51,1.03.15.44.61.66,1.03.52s.66-.6.54-1.01c-.14-.44-.58-.7-1.05-.55Z"/>
                <path class="b02i-cls-18" d="M242.76,28.67c.6-.15,1.15.21,1.28.78.12.54-.21,1.1-.76,1.24s-1.11-.18-1.27-.75c-.15-.53.16-1.13.75-1.27ZM242.77,28.9c-.46.15-.66.64-.52,1.03.15.43.61.66,1.03.52s.65-.59.53-1c-.13-.44-.58-.71-1.04-.56Z"/>
                <path class="b02i-cls-18" d="M240.12,28.97c.52-.09.97.25,1.05.71.09.5-.22.97-.72,1.05-.47.08-.94-.21-1.04-.7-.1-.46.19-.97.71-1.07ZM240.13,29.2c-.4.1-.59.5-.49.84s.47.56.81.47c.37-.09.59-.46.5-.83-.08-.34-.43-.58-.82-.49Z"/>
                <path class="b02i-cls-18" d="M240.68,31.2h-.77c-.47,0-.57.42-.72.47-.04.01-.11-.1-.1-.14.09-.29.44-.55.78-.55h.75c.36,0,.68.19.85.5,0,.04-.01.11-.02.14s-.16.02-.17-.02c-.08-.19-.33-.4-.59-.4Z"/>
              </g>
            </g>
          </g>
          <polyline class="b02i-cls-12" points="303.56 116.22 303.56 112.04 301.23 113.34 303.91 108.11 306.42 113.39"/>
          <path class="b02i-cls-4" d="M298.72,136.81l-.13.02c-.03.34-.32.75-.37,1.07-.02.14.09.14-.04.39-.14.28-.43.37-.5.65v4.18c.03.23.31.22.21.52-.02.07-.14.14-.17.21-.08.17-.07,2.27-.04,2.57.04.35.53.28.56.57.02.17-.13.21-.21.31-.1.12-.06.54-.05.7.04.68.15,1.39.27,2.07.07.39.28.94.3,1.31.01.18-.14.36.06.51.11.08.47.15.53.24.08.13-.01.39-.04.53l-.09.03h-3.14s-.15-.04-.15-.04c-.01-.15-.09-.32-.05-.47.04-.17.41-.2.55-.3.2-.15.05-.32.06-.51.04-.73.39-1.7.48-2.49.03-.26.16-1.4.07-1.56-.03-.05-.14-.09-.19-.17-.23-.38.47-.4.52-.69-.1-.43.15-2.42-.05-2.67-.04-.05-.14-.07-.18-.13-.13-.21.06-.28.2-.42l.03-4.26c-.05-.35-.53-.47-.57-.88-.04-.38-.17-.83-.35-1.19-.04-.08-.14-.11-.13-.2.02-.12.76-.57.9-.75.17-.22-.02-.24.03-.4.02-.06.23-.38.28-.45.03-.03.05-.09.12-.08.04,0,.36.51.36.55.02.12-.12.18-.05.32.05.09.52.44.64.54.14.12.37.17.33.38ZM296.76,136.81l-.39.02.4,1.14h.21s-.22-1.15-.22-1.15ZM297.94,136.81h-1.05l.27,1.16h.49s.29-1.16.29-1.16ZM298.46,136.81h-.39s-.22,1.16-.22,1.16h.21s.4-1.16.4-1.16Z"/>
          <g id="L01_sala_003">
            <g>
              <path class="b02i-cls-18" d="M249.56,108.35l-3.33-3.65c-.85-.93-1.28-2.13-1.22-3.38.06-1.25.6-2.41,1.53-3.26.93-.85,2.13-1.28,3.38-1.22,1.25.06,2.41.6,3.26,1.53.89.98,1.35,2.24,1.29,3.56-.06,1.32-.63,2.53-1.61,3.42h0s-3.29,3-3.29,3ZM249.7,97.13c-1.06,0-2.12.38-2.96,1.15-1.79,1.64-1.92,4.42-.28,6.22l3.13,3.43,3.07-2.8.1.11-.1-.11c1.89-1.73,2.03-4.67.3-6.56-.87-.95-2.06-1.43-3.25-1.43Z"/>
              <g>
                <path class="b02i-cls-18" d="M250.73,102.33c0,.55-.48.95-1.01.95s-.99-.43-.99-.98v-2.38c0-.53.49-.93.99-.93s1,.39,1,.91v2.43Z"/>
                <path class="b02i-cls-18" d="M249.96,104.75h.96c.11,0,.21.14.21.22,0,.1-.09.22-.21.22h-2.39c-.11,0-.21-.14-.21-.22,0-.11.09-.22.23-.23h.95s0-.74,0-.74c-.85-.11-1.54-.81-1.54-1.67v-1.09c0-.13.1-.22.21-.22.13,0,.24.08.25.23v1.12c.01.69.63,1.21,1.31,1.21s1.31-.52,1.31-1.21v-1.12c0-.14.11-.23.23-.23s.23.09.23.23v.98c0,.9-.62,1.65-1.54,1.78v.74Z"/>
                <path class="b02i-cls-18" d="M252.89,103.07c-.11.1-.26.07-.33,0-.08-.09-.08-.23.02-.32.7-.7.69-1.8-.03-2.49-.07-.07-.05-.21,0-.28.06-.07.23-.11.31-.03.9.85.92,2.25.02,3.12Z"/>
                <path class="b02i-cls-18" d="M246.86,102.73c.11.11.13.23.04.33-.1.11-.24.1-.35,0-.87-.87-.86-2.26.05-3.1.08-.07.25-.03.31.04.05.07.07.21-.01.29-.69.67-.72,1.75-.04,2.46Z"/>
                <path class="b02i-cls-18" d="M247.47,102.15c.06.07.09.16.06.22-.02.05-.18.11-.23.06-.54-.46-.55-1.26-.07-1.77.06-.07.17-.09.23-.05.06.03.12.17.06.23-.38.36-.41.91-.05,1.31Z"/>
                <path class="b02i-cls-18" d="M252.23,102.39c-.07.07-.19.08-.25.03-.07-.06-.07-.18,0-.25.37-.38.35-.95-.03-1.32-.05-.05-.02-.19.03-.23.06-.04.17-.03.24.03.48.49.49,1.23,0,1.74Z"/>
              </g>
            </g>
          </g>
          <g id="L03_sala_004-3" data-name="L03_sala_004">
            <g>
              <path class="b02i-cls-18" d="M310.06,41.37l-4.63-5.07c-1.18-1.29-1.78-2.96-1.7-4.7.08-1.74.83-3.35,2.12-4.52,1.29-1.18,2.96-1.78,4.7-1.7,1.74.08,3.35.83,4.52,2.12,1.24,1.35,1.87,3.11,1.79,4.94-.08,1.83-.88,3.52-2.23,4.76h0s-4.57,4.17-4.57,4.17ZM310.26,25.79c-1.47,0-2.95.53-4.12,1.59-2.49,2.27-2.67,6.15-.4,8.64l4.35,4.77,4.27-3.89.14.15-.14-.15c2.63-2.4,2.81-6.49.42-9.11-1.2-1.32-2.86-1.99-4.52-1.99Z"/>
              <text class="b02i-cls-17" transform="translate(305.25 33.29) scale(.93 1)"><tspan class="b02i-cls-10" x="0" y="0">A</tspan><tspan x="1.99" y="0">o Vi</tspan><tspan class="b02i-cls-10" x="7.52" y="0">v</tspan><tspan class="b02i-cls-22" x="9.08" y="0">o</tspan></text>
            </g>
          </g>
          <g id="L03_sala_004-4" data-name="L03_sala_004">
            <g>
              <path class="b02i-cls-18" d="M372.47,43.97l-4.63-5.07c-1.18-1.29-1.78-2.96-1.7-4.7.08-1.74.83-3.35,2.12-4.52,1.29-1.18,2.96-1.78,4.7-1.7,1.74.08,3.35.83,4.52,2.12,1.24,1.35,1.87,3.11,1.79,4.94-.08,1.83-.88,3.52-2.23,4.76h0s-4.57,4.17-4.57,4.17ZM372.66,28.38c-1.47,0-2.95.53-4.12,1.59-2.49,2.27-2.67,6.15-.4,8.64l4.35,4.77,4.27-3.89.14.15-.14-.15c2.63-2.4,2.81-6.49.42-9.11-1.2-1.32-2.86-1.99-4.52-1.99Z"/>
              <g>
                <path class="b02i-cls-18" d="M373.24,39.46h-.89s.08-.12.08-.17v-3.73c0-.07-.06-.13-.11-.17-.36-.28-.38-.81-.08-1.13s.81-.32,1.11,0,.28.85-.08,1.13c-.06.05-.11.11-.11.2v3.71s.06.14.07.17Z"/>
                <path class="b02i-cls-18" d="M369.51,37.5c.14.18.13.39-.03.54-.14.12-.39.12-.52-.05-.98-1.3-1.22-3.07-.83-4.63.16-.63.43-1.2.81-1.72.12-.17.32-.21.49-.11.15.09.25.32.13.49-.3.42-.53.85-.68,1.36-.4,1.36-.23,2.99.63,4.14Z"/>
                <path class="b02i-cls-18" d="M376.65,37.97c-.12.17-.34.18-.49.08-.16-.11-.22-.33-.1-.5.24-.34.44-.69.59-1.09.35-.99.38-2.06.09-3.07-.15-.52-.38-.97-.69-1.4-.12-.16-.03-.4.13-.49.17-.1.37-.05.49.11.34.48.6.98.76,1.55.46,1.6.24,3.44-.78,4.8Z"/>
                <path class="b02i-cls-18" d="M369.98,36.97c-.18-.26-.33-.52-.43-.82-.43-1.17-.3-2.57.46-3.58.12-.17.36-.19.5-.08.18.13.19.36.06.54-.72.98-.72,2.53-.01,3.49.13.18.15.4-.03.54-.16.13-.41.11-.54-.09Z"/>
                <path class="b02i-cls-18" d="M375.64,36.96c-.13.2-.37.24-.54.12-.19-.14-.18-.37-.05-.56.71-.96.7-2.51-.01-3.49-.12-.17-.12-.38.05-.53.14-.12.39-.1.52.07.75,1.01.89,2.4.46,3.58-.11.29-.25.54-.42.8Z"/>
                <path class="b02i-cls-18" d="M371.6,35.57c.13.19.15.4-.04.55-.15.12-.4.1-.53-.09-.51-.73-.52-1.72-.03-2.46.13-.2.35-.27.54-.15s.2.36.06.56c-.31.46-.32,1.11,0,1.58Z"/>
                <path class="b02i-cls-18" d="M374.59,36.02c-.14.2-.37.24-.53.12-.2-.14-.18-.37-.06-.56.32-.47.32-1.12,0-1.59-.13-.19-.13-.43.06-.56s.41-.05.54.15c.47.73.48,1.7-.01,2.44Z"/>
              </g>
            </g>
          </g>
          <g id="L03_sala_004-5" data-name="L03_sala_004">
            <g>
              <path class="b02i-cls-18" d="M450.43,100.72l-4.63-5.07c-1.18-1.29-1.78-2.96-1.7-4.7.08-1.74.83-3.35,2.12-4.52,1.29-1.18,2.96-1.78,4.7-1.7,1.74.08,3.35.83,4.52,2.12,1.24,1.35,1.87,3.11,1.79,4.94-.08,1.83-.88,3.52-2.23,4.76h0s-4.57,4.17-4.57,4.17ZM450.62,85.13c-1.47,0-2.95.53-4.12,1.59-2.49,2.27-2.67,6.15-.4,8.64l4.35,4.77,4.27-3.89.14.15-.14-.15c2.63-2.4,2.81-6.49.42-9.11-1.2-1.32-2.86-1.99-4.52-1.99Z"/>
              <polygon class="b02i-cls-18" points="448.73 88.32 454.84 91.4 448.73 94.8 448.73 88.32"/>
            </g>
          </g>
          <g id="L03_cozinha">
            <g>
              <path class="b02i-cls-7" d="M115.11,46.78h-3.7c-.07,0-.11-.05-.12-.12v-3.94s3.92,0,3.92,0v3.97s-.04.07-.09.1ZM114.44,43.89s-.11-.07-.15-.05c-.03.01-.08.07-.07.11v.17s.08.11.12.11c.12,0,.14-.15.1-.33Z"/>
              <path class="b02i-cls-7" d="M115.2,42.48h-3.91s0-2.04,0-2.04c.02-.06.05-.1.11-.11h3.69c.06,0,.11.05.11.11v2.04ZM114.44,41.51s-.09-.07-.12-.06-.09.06-.09.09v.2s.08.11.12.11c.11,0,.15-.16.1-.33Z"/>
              <path class="b02i-cls-7" d="M118.18,45h-2.51s0-1.43,0-1.43c0-.04.05-.1.08-.11h1.17s0-.68,0-.68c0-.29.29-.5.55-.48.29.02.51.23.52.54,0,.04-.06.11-.1.11-.05,0-.12-.05-.12-.11,0-.19-.15-.32-.31-.32s-.31.13-.32.31v.63s1.03,0,1.03,0v1.54ZM117.65,44.57c.1,0,.15-.07.14-.14,0-.05-.08-.1-.15-.1-.09,0-.15.06-.14.13,0,.06.07.12.15.11Z"/>
              <path class="b02i-cls-7" d="M118.18,46.78h-2.39c-.07,0-.12-.05-.12-.12v-1.43s2.51,0,2.51,0v1.55ZM117.73,45.9s-.14-.01-.17,0c-.04.01-.07.1-.06.14s.09.08.13.08c.07,0,.14-.04.15-.08.01-.03-.02-.14-.05-.14Z"/>
              <path class="b02i-cls-7" d="M120.93,46.64c0,.08-.05.14-.12.14h-2.4s0-2.15,0-2.15h2.52s0,2.02,0,2.02ZM120.16,46.18c.07,0,.13-.06.13-.13v-.92c0-.06-.07-.13-.13-.13h-1.22c-.06.01-.12.07-.12.13v.94c0,.05.05.1.11.12h1.24Z"/>
              <path class="b02i-cls-7" d="M119.77,39.84h-1.65s0-1.83,0-1.83c0-.06.05-.12.11-.12h1.43c.06,0,.11.06.11.12v1.83Z"/>
              <path class="b02i-cls-7" d="M120.4,41.32h-2.93s-.1-.01-.1-.04v-.13s.65-1.08.65-1.08h1.83s.65,1.08.65,1.08v.11s-.07.05-.11.05Z"/>
              <path class="b02i-cls-7" d="M120.93,43.55v.84s-2.52,0-2.52,0v-.94s2.41,0,2.41,0c.05.01.09.05.11.1ZM119.07,43.93s-.13-.01-.17,0c-.03.01-.07.1-.06.14s.08.08.13.08c.06,0,.14-.04.16-.09.01-.03-.02-.13-.06-.14ZM119.64,43.93s-.14-.02-.18,0c-.04.02-.06.12-.04.16.02.03.08.05.14.06.04,0,.12-.05.13-.08.01-.03-.02-.12-.05-.13ZM120.2,43.93s-.14-.01-.17,0c-.04.01-.07.1-.06.14s.09.08.13.08c.07,0,.14-.04.15-.08.01-.03-.02-.13-.06-.14Z"/>
            </g>
            <path class="b02i-cls-7" d="M116.11,50.33c-2.14,0-4.15-.83-5.66-2.34-1.51-1.51-2.34-3.52-2.34-5.66s.83-4.15,2.34-5.66c1.51-1.51,3.52-2.34,5.66-2.34s4.15.83,5.66,2.34c1.51,1.51,2.34,3.52,2.34,5.66s-.83,4.15-2.34,5.66c-1.51,1.51-3.52,2.34-5.66,2.34ZM116.11,34.72c-4.2,0-7.61,3.41-7.61,7.61s3.41,7.61,7.61,7.61,7.61-3.41,7.61-7.61-3.41-7.61-7.61-7.61Z"/>
          </g>
          <g id="L03_sala_004-6" data-name="L03_sala_004">
            <g>
              <path class="b02i-cls-18" d="M124.09,85.21l-.1-.11s-.04-.07-.04-.1c0-.04.02-.07.05-.1.03-.03.07-.04.1-.04.04,0,.07.02.1.05.03.03.04.07.04.11,0,.04-.02.08-.05.11h0s-.1.09-.1.09ZM124.09,84.86s-.07.01-.09.04c-.06.05-.06.14,0,.19l.1.11.09-.09h0s0,0,0,0c.06-.05.06-.14,0-.2-.03-.03-.06-.04-.1-.04Z"/>
              <g>
                <path class="b02i-cls-18" d="M124.13,85.13c-.61.09-1.18.28-1.74.54l-1-2.14c.51-.24.98-.52,1.41-.87.36-.3.66-.63.92-1.01.24-.36.55-1.03.47-1.43-.05-.22.06-.43.26-.51.18-.07.44-.02.54.19l2.5,5.32c.1.21,0,.44-.18.55-.2.12-.43.07-.58-.11-.23-.28-.89-.45-1.29-.52-.44-.06-.86-.06-1.31,0ZM122.01,83.82c1.15-.54,2.06-1.47,2.57-2.62.01-.03.01-.08,0-.1s-.07-.04-.09-.02c-.02,0-.04.05-.05.07-.5,1.11-1.39,2.01-2.49,2.53-.04.02-.06.08-.05.11,0,.02.07.05.11.03Z"/>
                <path class="b02i-cls-18" d="M122.76,88.2c-.17.16-.42.2-.6.04-.46-.4-.8-.92-1.1-1.45-.08.06-.19.09-.26,0-.04-.05-.08-.13-.11-.2-.22.12-.54.07-.66-.18l-.73-1.54c-.07-.23,0-.49.24-.6l1.6-.75,1.08,2.3s-.08.1-.11.11l-.07.03s.15.22-.03.35c.25.46.56.87.97,1.2.07.06.12.14.13.24,0,.07-.04.16-.1.22l-.23.21ZM120.87,84.24s.05-.08.04-.1-.08-.05-.1-.04l-1.03.48s-.07.07-.05.11c.02.04.07.05.12.03l1.02-.48Z"/>
              </g>
            </g>
          </g>
          <g id="L03_sala_004-7" data-name="L03_sala_004">
            <g>
              <path class="b02i-cls-18" d="M160.75,40.2l-4.63-5.07c-1.18-1.29-1.78-2.96-1.7-4.7.08-1.74.83-3.35,2.12-4.52,1.29-1.18,2.96-1.78,4.7-1.7,1.74.08,3.35.83,4.52,2.12,1.24,1.35,1.87,3.11,1.79,4.94-.08,1.83-.88,3.52-2.23,4.76h0s-4.57,4.17-4.57,4.17ZM160.94,24.62c-1.47,0-2.95.53-4.12,1.59-2.49,2.27-2.67,6.15-.4,8.64l4.35,4.77,4.27-3.89.14.15-.14-.15c2.63-2.4,2.81-6.49.42-9.11-1.2-1.32-2.86-1.99-4.52-1.99Z"/>
              <g>
                <path class="b02i-cls-18" d="M161.37,26.76l.32.02c.6.05,1.18.14,1.76.31l-2.46,1.19-2.46-1.19c.69-.2,1.37-.28,2.06-.33h.78Z"/>
                <polygon class="b02i-cls-18" points="162.09 35.06 160.99 36.25 159.89 35.06 160.64 30 161.34 30 162.09 35.06"/>
                <polygon class="b02i-cls-18" points="160.69 28.5 159.46 29.54 158.43 27.41 160.69 28.5"/>
                <polygon class="b02i-cls-18" points="162.53 29.54 161.29 28.5 163.55 27.42 162.53 29.54"/>
                <polygon class="b02i-cls-18" points="161.35 29.67 160.63 29.67 160.5 29.1 160.99 28.68 161.48 29.1 161.35 29.67"/>
              </g>
            </g>
          </g>
          <g id="L03_sala_004-8" data-name="L03_sala_004">
            <path class="b02i-cls-18" d="M122.78,93.53l-4.63-5.07c-1.18-1.29-1.78-2.96-1.7-4.7.08-1.74.83-3.35,2.12-4.52,1.29-1.18,2.96-1.78,4.7-1.7,1.74.08,3.35.83,4.52,2.12,1.24,1.35,1.87,3.11,1.79,4.94-.08,1.83-.88,3.52-2.23,4.76h0s-4.57,4.17-4.57,4.17ZM122.97,77.94c-1.47,0-2.95.53-4.12,1.59-2.49,2.27-2.67,6.15-.4,8.64l4.35,4.77,4.27-3.89.14.15-.14-.15c2.63-2.4,2.81-6.49.42-9.11-1.2-1.32-2.86-1.99-4.52-1.99Z"/>
          </g>
          <g id="L01_sala_003-2" data-name="L01_sala_003">
            <path class="b02i-cls-18" d="M241.53,148.49l-3.33-3.65c-.85-.93-1.28-2.13-1.22-3.38.06-1.25.6-2.41,1.53-3.26.93-.85,2.13-1.28,3.38-1.22,1.25.06,2.41.6,3.26,1.53.89.98,1.35,2.24,1.29,3.56-.06,1.32-.63,2.53-1.61,3.42h0s-3.29,3-3.29,3ZM241.67,137.27c-1.06,0-2.12.38-2.96,1.15-1.79,1.64-1.92,4.42-.28,6.22l3.13,3.43,3.07-2.8.1.11-.1-.11c1.89-1.73,2.03-4.67.3-6.56-.87-.95-2.06-1.43-3.25-1.43Z"/>
            <path class="b02i-cls-18" d="M243.13,143.75h-2.89s0,.25,0,.25c0,.08-.08.13-.15.13s-.15-.06-.15-.14v-.26c-.26-.07-.46-.3-.46-.58v-.36c-.4-.17-.61-.6-.5-1.02s.5-.69.93-.64v-.42c0-.31.27-.58.59-.58h2.36c.32,0,.58.26.59.58v.42c.43-.05.83.21.95.62s-.07.85-.46,1.03v.37c0,.3-.22.55-.52.6v.25c0,.08-.07.13-.14.13-.07,0-.15-.05-.15-.13v-.25ZM242.71,142.5v-.62c0-.13.03-.24.09-.35.08-.15.21-.26.36-.33v-.47c0-.17-.14-.31-.31-.31h-2.31c-.17,0-.32.13-.32.31v.45c.11.04.2.09.28.16.14.12.22.29.23.48v.68c.66-.13,1.33-.14,1.99,0ZM239.86,141.42c-.3-.01-.55.19-.59.48s.12.56.4.64c.07.02.12.08.12.15v.47c0,.15.13.29.29.29h3.29c.15,0,.28-.14.29-.29v-.5c0-.06.05-.11.1-.13.19-.06.34-.23.38-.41.05-.21-.02-.42-.18-.56-.18-.16-.43-.18-.65-.1-.16.06-.28.21-.29.39v.85c0,.1-.11.15-.19.13-.7-.18-1.49-.17-2.19,0-.05.01-.09.02-.14-.02-.03-.02-.06-.06-.06-.11v-.85c0-.15-.09-.28-.22-.35-.11-.06-.22-.07-.35-.08Z"/>
          </g>
        </g>
        <g id="B02_salas">
          <g id="B02_sala_0001_sala_11_b02_almoxarifado">
            <text id="B02_sala_0001_sala_11_b02_almoxarifado-2" data-name="B02_sala_0001_sala_11_b02_almoxarifado" class="b02i-cls-1" transform="translate(248.43 142.39) scale(1.02 1)"><tspan x="0" y="0">sala_11_B</tspan><tspan class="b02i-cls-13" x="9.46" y="0">0</tspan><tspan x="10.94" y="0">2</tspan><tspan x="0" y="2.53">Alm</tspan><tspan class="b02i-cls-21" x="4.2" y="2.53">o</tspan><tspan class="b02i-cls-3" x="5.47" y="2.53">x</tspan><tspan class="b02i-cls-16" x="6.64" y="2.53">ari</tspan><tspan class="b02i-cls-3" x="9.22" y="2.53">f</tspan><tspan class="b02i-cls-16" x="9.95" y="2.53">ado</tspan></text>
          </g>
          <g id="B02_sala_0002_sala_10_b02_radio">
            <text id="B02_sala_0002_sala_10_b02_radio-2" data-name="B02_sala_0002_sala_10_b02_radio" class="b02i-cls-1" transform="translate(242.96 113.47) scale(1.02 1)"><tspan x="0" y="0">sala_10_B</tspan><tspan class="b02i-cls-13" x="10.25" y="0">0</tspan><tspan x="11.73" y="0">2</tspan><tspan x="0" y="2.53">Rádio</tspan></text>
          </g>
          <g id="B02_sala_0003_sala_09_b02_acesso_ao_espaco_servir">
            <text id="B02_sala_0003_sala_09_b02_acesso_ao_espaco_servir-2" data-name="B02_sala_0003_sala_09_b02_acesso_ao_espaco_servir" class="b02i-cls-1" transform="translate(13 114.37) scale(1.02 1)"><tspan x="0" y="0">sala_09_B</tspan><tspan class="b02i-cls-13" x="10.9" y="0">0</tspan><tspan x="12.37" y="0">2</tspan><tspan class="b02i-cls-8" x="0" y="2.53">A</tspan><tspan class="b02i-cls-5" x="1.61" y="2.53">c</tspan><tspan class="b02i-cls-16" x="2.79" y="2.53">e</tspan><tspan class="b02i-cls-13" x="4.02" y="2.53">s</tspan><tspan x="5.04" y="2.53">so ao Espaço Servir</tspan></text>
          </g>
          <g id="B02_sala_0004_sala_08_b02_comunicacao_rede_super">
            <text id="B02_sala_0004_sala_08_b02_comunicacao_rede_super-2" data-name="B02_sala_0004_sala_08_b02_comunicacao_rede_super" class="b02i-cls-1" transform="translate(128.87 91.47) scale(1.02 1)"><tspan x="0" y="0">sala_08_B</tspan><tspan class="b02i-cls-13" x="10.87" y="0">0</tspan><tspan class="b02i-cls-23" x="12.35" y="0">2</tspan><tspan class="b02i-cls-13" x="0" y="2.53">C</tspan><tspan x="1.53" y="2.53">omunicação / </tspan><tspan class="b02i-cls-13" x="16.5" y="2.53">R</tspan><tspan class="b02i-cls-16" x="18" y="2.53">ede Super</tspan></text>
          </g>
          <g id="B02_sala_0005_sala_07_b02_cozinha">
            <text id="B02_sala_0005_sala_07_b02_cozinha-2" data-name="B02_sala_0005_sala_07_b02_cozinha" class="b02i-cls-1" transform="translate(109.55 54.01) scale(1.02 1)"><tspan x="0" y="0">sala_</tspan><tspan class="b02i-cls-14" x="5.26" y="0">0</tspan><tspan x="6.69" y="0">7_B</tspan><tspan class="b02i-cls-19" x="10.72" y="0">0</tspan><tspan x="12.19" y="0">2</tspan><tspan class="b02i-cls-13" x="0" y="2.53">C</tspan><tspan class="b02i-cls-20" x="1.53" y="2.53">o</tspan><tspan x="2.84" y="2.53">zinha</tspan></text>
          </g>
          <g id="B02_sala_0006_sala_06_b02_sala_abert_m">
            <text id="B02_sala_0006_sala_06_b02_sala_abert_m-2" data-name="B02_sala_0006_sala_06_b02_sala_abert_m" class="b02i-cls-1" transform="translate(153.78 51.01) scale(1.02 1)"><tspan x="0" y="0">sala_06_B</tspan><tspan class="b02i-cls-13" x="10.9" y="0">0</tspan><tspan x="12.37" y="0">2</tspan><tspan x="0" y="2.53">Sala Abert M.</tspan></text>
          </g>
          <g id="B02_sala_0007_sala_05_b01_estudio_de_video">
            <text id="B02_sala_0007_sala_05_b01_estudio_de_video-2" data-name="B02_sala_0007_sala_05_b01_estudio_de_video" class="b02i-cls-1" transform="translate(463.7 92.27) scale(1.02 1)"><tspan x="0" y="0">sala_05_B</tspan><tspan class="b02i-cls-9" x="10.82" y="0">0</tspan><tspan x="12.31" y="0">1</tspan><tspan x="0" y="2.53">E</tspan><tspan class="b02i-cls-13" x="1.41" y="2.53">s</tspan><tspan x="2.44" y="2.53">tudio de Vídeo</tspan></text>
          </g>
          <g id="B02_sala_0008_sala_04_b02_sala_de_vidro">
            <text id="B02_sala_0008_sala_04_b02_sala_de_vidro-2" data-name="B02_sala_0008_sala_04_b02_sala_de_vidro" class="b02i-cls-1" transform="translate(233.3 51.02) scale(1.02 1)"><tspan x="0" y="0">sala_04_B</tspan><tspan class="b02i-cls-19" x="10.94" y="0">0</tspan><tspan x="12.42" y="0">2</tspan><tspan x="0" y="2.53">sala_de_vid</tspan><tspan class="b02i-cls-8" x="12.29" y="2.53">r</tspan><tspan x="13.08" y="2.53">o</tspan></text>
          </g>
          <g id="B02_sala_0009_sala_03_b02_engenharia_ao_vivo">
            <text id="B02_sala_0009_sala_03_b02_engenharia_ao_vivo-2" data-name="B02_sala_0009_sala_03_b02_engenharia_ao_vivo" class="b02i-cls-1" transform="translate(347.68 51.35) scale(1.02 1)"><tspan x="0" y="0">sala_</tspan><tspan class="b02i-cls-13" x="5.26" y="0">0</tspan><tspan x="6.73" y="0">3_B</tspan><tspan class="b02i-cls-13" x="10.81" y="0">0</tspan><tspan class="b02i-cls-23" x="12.28" y="0">2</tspan><tspan x="0" y="2.53">engenharia _ao_vi</tspan><tspan class="b02i-cls-14" x="19" y="2.53">v</tspan><tspan x="20.16" y="2.53">o</tspan></text>
          </g>
          <g id="B02_sala_0010_sala_01_b02_transmicao_ao_vivo">
            <text id="B02_sala_0010_sala_01_b02_transmicao_ao_vivo-2" data-name="B02_sala_0010_sala_01_b02_transmicao_ao_vivo" class="b02i-cls-1" transform="translate(300.35 52.55) scale(1.02 1)"><tspan x="0" y="0">sala_</tspan><tspan class="b02i-cls-9" x="5.26" y="0">0</tspan><tspan x="6.75" y="0">1_B</tspan><tspan class="b02i-cls-13" x="10.24" y="0">0</tspan><tspan x="11.72" y="0">2</tspan><tspan class="b02i-cls-15" x="0" y="2.53">T</tspan><tspan class="b02i-cls-8" x="1.16" y="2.53">r</tspan><tspan class="b02i-cls-16" x="1.95" y="2.53">ansmição _ao_vi</tspan><tspan class="b02i-cls-14" x="19.27" y="2.53">v</tspan><tspan x="20.43" y="2.53">o</tspan></text>
          </g>
          <g id="B02_sala_0011_sala_02_b01_som_tec">
            <text id="B02_sala_0011_sala_02_b01_som_tec-2" data-name="B02_sala_0011_sala_02_b01_som_tec" class="b02i-cls-1" transform="translate(323.21 109.63) scale(1.02 1)"><tspan x="0" y="0">sala_</tspan><tspan class="b02i-cls-13" x="5.26" y="0">0</tspan><tspan x="6.73" y="0">2_B</tspan><tspan class="b02i-cls-9" x="10.77" y="0">0</tspan><tspan x="12.25" y="0">1</tspan><tspan x="0" y="2.53">Som </tspan><tspan class="b02i-cls-5" x="5.34" y="2.53">t</tspan><tspan class="b02i-cls-16" x="6.15" y="2.53">ec.</tspan></text>
          </g>
          <g id="B02_sala_0012_entrada_a_narniaencomun">
            <g id="B02_sala_0012_entrada_a_narniaencomun-2" data-name="B02_sala_0012_entrada_a_narniaencomun">
              <path class="b02i-cls-2" d="M299.29,122.87v-1.48h1.07v.1h-.96v.58h.86v.1h-.86v.59h.97v.1h-1.08Z"/>
              <path class="b02i-cls-2" d="M301.54,122.87v-.64c0-.11-.03-.2-.09-.27-.06-.07-.15-.1-.26-.1-.05,0-.1,0-.15.03-.05.02-.09.05-.12.08-.03.03-.06.07-.08.12-.02.05-.03.1-.03.16v.62h-.1v-1.08h.1v.2c.04-.06.09-.12.15-.16.06-.04.14-.07.25-.07.07,0,.13.01.18.03.05.02.1.05.14.09.04.04.07.09.09.14.02.05.03.11.03.18v.66h-.11Z"/>
              <path class="b02i-cls-2" d="M302.48,122.88s-.06,0-.09,0c-.04,0-.08,0-.12-.02-.04-.01-.07-.03-.1-.05-.03-.02-.05-.06-.07-.09s-.02-.08-.02-.13v-.7h-.16v-.09h.16v-.34h.11v.34h.38v.09h-.38v.69c0,.08.02.13.06.16.04.03.09.05.16.05.03,0,.05,0,.08,0,.02,0,.05-.01.08-.03v.1s-.06.02-.08.03Z"/>
              <path class="b02i-cls-2" d="M303.46,121.89c-.06,0-.12.01-.18.04-.06.02-.11.06-.15.1-.04.04-.08.1-.1.17-.03.07-.04.14-.04.23v.44h-.1v-1.08h.1v.31s.05-.09.08-.13.07-.08.11-.1c.04-.03.09-.05.14-.07s.1-.02.16-.02v.11h-.01Z"/>
              <path class="b02i-cls-2" d="M304.44,122.87v-.18s-.04.05-.07.08-.06.05-.09.07c-.04.02-.07.03-.12.05-.04.01-.09.02-.14.02s-.1,0-.15-.02c-.05-.01-.09-.04-.13-.06-.04-.03-.07-.06-.1-.11-.03-.04-.04-.09-.04-.15h0c0-.06.01-.11.04-.15.02-.04.06-.08.1-.11.04-.03.09-.05.15-.07.06-.01.12-.02.2-.02.08,0,.14,0,.2.01.06,0,.11.02.16.03v-.05c0-.11-.03-.19-.1-.25-.06-.05-.15-.08-.26-.08-.07,0-.13,0-.18.02-.06.02-.11.04-.16.06l-.04-.09c.06-.03.12-.05.18-.07s.13-.03.21-.03c.14,0,.25.04.34.1.08.07.12.18.12.32v.67h-.1ZM304.44,122.35s-.1-.02-.16-.03-.13-.02-.21-.02c-.12,0-.21.02-.27.07-.06.04-.09.11-.09.18h0s0,.08.03.11.04.06.07.08c.03.02.06.04.1.05.04.01.08.02.12.02.06,0,.11,0,.16-.02.05-.02.09-.04.13-.07s.07-.06.09-.1c.02-.04.03-.08.03-.13v-.12Z"/>
              <path class="b02i-cls-2" d="M305.83,122.87v-.24s-.05.07-.08.1c-.03.03-.06.06-.1.08-.04.02-.08.04-.12.06s-.09.02-.15.02c-.07,0-.13-.01-.19-.04-.06-.03-.12-.06-.17-.11-.05-.05-.09-.11-.12-.18-.03-.07-.05-.15-.05-.23h0c0-.09.02-.17.05-.24.03-.07.07-.13.12-.18.05-.05.11-.09.17-.11.06-.03.13-.04.19-.04.05,0,.1,0,.15.02.05.01.09.03.12.06.04.02.07.05.1.08s.06.06.08.1v-.7h.11v1.54h-.11ZM305.84,122.33c0-.07-.01-.13-.04-.19-.02-.06-.06-.11-.1-.15-.04-.04-.09-.07-.14-.09s-.11-.03-.17-.03-.12.01-.17.03c-.05.02-.1.05-.14.09-.04.04-.07.09-.09.14-.02.06-.03.12-.03.19h0c0,.07.01.14.04.2.02.06.05.11.09.15.04.04.08.07.14.09.05.02.11.03.16.03s.11-.01.17-.03.1-.05.14-.09c.04-.04.08-.09.1-.15.03-.06.04-.12.04-.19h0Z"/>
              <path class="b02i-cls-2" d="M307.09,122.87v-.18s-.04.05-.07.08-.06.05-.09.07c-.04.02-.07.03-.12.05-.04.01-.09.02-.14.02s-.1,0-.15-.02c-.05-.01-.09-.04-.13-.06-.04-.03-.07-.06-.1-.11-.03-.04-.04-.09-.04-.15h0c0-.06.01-.11.04-.15.02-.04.06-.08.1-.11.04-.03.09-.05.15-.07.06-.01.12-.02.2-.02.08,0,.14,0,.2.01.06,0,.11.02.16.03v-.05c0-.11-.03-.19-.1-.25-.06-.05-.15-.08-.26-.08-.07,0-.13,0-.18.02-.06.02-.11.04-.16.06l-.04-.09c.06-.03.12-.05.18-.07s.13-.03.21-.03c.14,0,.25.04.34.1.08.07.12.18.12.32v.67h-.1ZM307.09,122.35s-.1-.02-.16-.03-.13-.02-.21-.02c-.12,0-.21.02-.27.07-.06.04-.09.11-.09.18h0s0,.08.03.11.04.06.07.08c.03.02.06.04.1.05.04.01.08.02.12.02.06,0,.11,0,.16-.02.05-.02.09-.04.13-.07s.07-.06.09-.1c.02-.04.03-.08.03-.13v-.12Z"/>
              <path class="b02i-cls-2" d="M300.02,125.4v-.18s-.04.05-.07.08-.06.05-.09.07c-.04.02-.07.03-.12.05-.04.01-.09.02-.14.02s-.1,0-.15-.02c-.05-.01-.09-.04-.13-.06-.04-.03-.07-.06-.1-.11-.03-.04-.04-.09-.04-.15h0c0-.06.01-.11.04-.15.02-.04.06-.08.1-.11.04-.03.09-.05.15-.07.06-.01.12-.02.2-.02.08,0,.14,0,.2.01.06,0,.11.02.16.03v-.05c0-.11-.03-.19-.1-.25-.06-.05-.15-.08-.26-.08-.07,0-.13,0-.18.02-.06.02-.11.04-.16.06l-.04-.09c.06-.03.12-.05.18-.07s.13-.03.21-.03c.14,0,.25.04.34.1.08.07.12.18.12.32v.67h-.1ZM300.02,124.88s-.1-.02-.16-.03-.13-.02-.21-.02c-.12,0-.21.02-.27.07-.06.04-.09.11-.09.18h0s0,.08.03.11.04.06.07.08c.03.02.06.04.1.05.04.01.08.02.12.02.06,0,.11,0,.16-.02.05-.02.09-.04.13-.07s.07-.06.09-.1c.02-.04.03-.08.03-.13v-.12Z"/>
              <path class="b02i-cls-2" d="M302.33,125.4l-1.06-1.31v1.31h-.11v-1.48h.11l1.04,1.28v-1.28h.11v1.48h-.08Z"/>
              <path class="b02i-cls-2" d="M303.59,125.4v-.18s-.04.05-.07.08-.06.05-.09.07c-.04.02-.07.03-.12.05-.04.01-.09.02-.14.02s-.1,0-.15-.02c-.05-.01-.09-.04-.13-.06-.04-.03-.07-.06-.1-.11-.03-.04-.04-.09-.04-.15h0c0-.06.01-.11.04-.15.02-.04.06-.08.1-.11.04-.03.09-.05.15-.07.06-.01.12-.02.2-.02.08,0,.14,0,.2.01.06,0,.11.02.16.03v-.05c0-.11-.03-.19-.1-.25-.06-.05-.15-.08-.26-.08-.07,0-.13,0-.18.02-.06.02-.11.04-.16.06l-.04-.09c.06-.03.12-.05.18-.07s.13-.03.21-.03c.14,0,.25.04.34.1.08.07.12.18.12.32v.67h-.1ZM303.59,124.88s-.1-.02-.16-.03-.13-.02-.21-.02c-.12,0-.21.02-.27.07-.06.04-.09.11-.09.18h0s0,.08.03.11.04.06.07.08c.03.02.06.04.1.05.04.01.08.02.12.02.06,0,.11,0,.16-.02.05-.02.09-.04.13-.07s.07-.06.09-.1c.02-.04.03-.08.03-.13v-.12ZM303.19,124.15l.19-.28.13.06-.23.22h-.09Z"/>
              <path class="b02i-cls-2" d="M304.65,124.42c-.06,0-.12.01-.18.04-.06.02-.11.06-.15.1-.04.04-.08.1-.1.17-.03.07-.04.14-.04.23v.44h-.1v-1.08h.1v.31s.05-.09.08-.13.07-.08.11-.1c.04-.03.09-.05.14-.07s.1-.02.16-.02v.11h-.01Z"/>
              <path class="b02i-cls-2" d="M305.76,125.4v-.64c0-.11-.03-.2-.09-.27-.06-.07-.15-.1-.26-.1-.05,0-.1,0-.15.03-.05.02-.09.05-.12.08-.03.03-.06.07-.08.12-.02.05-.03.1-.03.16v.62h-.1v-1.08h.1v.2c.04-.06.09-.12.15-.16.06-.04.14-.07.25-.07.07,0,.13.01.18.03.05.02.1.05.14.09.04.04.07.09.09.14.02.05.03.11.03.18v.66h-.11Z"/>
              <path class="b02i-cls-2" d="M306.25,124.05v-.14h.13v.14h-.13ZM306.26,125.4v-1.08h.11v1.08h-.11Z"/>
              <path class="b02i-cls-2" d="M307.53,125.4v-.18s-.04.05-.07.08-.06.05-.09.07c-.04.02-.07.03-.12.05-.04.01-.09.02-.14.02s-.1,0-.15-.02c-.05-.01-.09-.04-.13-.06-.04-.03-.07-.06-.1-.11-.03-.04-.04-.09-.04-.15h0c0-.06.01-.11.04-.15.02-.04.06-.08.1-.11.04-.03.09-.05.15-.07.06-.01.12-.02.2-.02.08,0,.14,0,.2.01.06,0,.11.02.16.03v-.05c0-.11-.03-.19-.1-.25-.06-.05-.15-.08-.26-.08-.07,0-.13,0-.18.02-.06.02-.11.04-.16.06l-.04-.09c.06-.03.12-.05.18-.07s.13-.03.21-.03c.14,0,.25.04.34.1.08.07.12.18.12.32v.67h-.1ZM307.54,124.88s-.1-.02-.16-.03-.13-.02-.21-.02c-.12,0-.21.02-.27.07-.06.04-.09.11-.09.18h0s0,.08.03.11.04.06.07.08c.03.02.06.04.1.05.04.01.08.02.12.02.06,0,.11,0,.16-.02.05-.02.09-.04.13-.07s.07-.06.09-.1c.02-.04.03-.08.03-.13v-.12Z"/>
              <path class="b02i-cls-2" d="M299.29,127.93v-1.48h1.07v.1h-.96v.58h.86v.1h-.86v.59h.97v.1h-1.08Z"/>
              <path class="b02i-cls-2" d="M301.54,127.93v-.64c0-.11-.03-.2-.09-.27-.06-.07-.15-.1-.26-.1-.05,0-.1,0-.15.03-.05.02-.09.05-.12.08-.03.03-.06.07-.08.12-.02.05-.03.1-.03.16v.62h-.1v-1.08h.1v.2c.04-.06.09-.12.15-.16.06-.04.14-.07.25-.07.07,0,.13.01.18.03.05.02.1.05.14.09.04.04.07.09.09.14.02.05.03.11.03.18v.66h-.11Z"/>
              <path class="b02i-cls-2" d="M302.76,127.9c-.07.04-.16.06-.26.06-.08,0-.15-.02-.22-.05-.07-.03-.13-.07-.18-.12-.05-.05-.09-.11-.12-.18-.03-.07-.04-.14-.04-.21h0c0-.08.01-.15.04-.22.03-.07.07-.13.12-.18.05-.05.11-.09.18-.12.07-.03.14-.04.22-.04.05,0,.1,0,.14.02.04.01.08.03.12.04s.07.04.1.06c.03.02.06.05.08.08l-.08.08s-.1-.09-.16-.12c-.06-.04-.13-.05-.21-.05-.06,0-.12.01-.17.04s-.1.06-.14.1c-.04.04-.07.09-.09.15-.02.06-.03.12-.03.18h0c0,.07.01.13.04.19s.06.11.1.15.09.08.14.1c.05.02.11.04.18.04.08,0,.15-.02.21-.05.06-.04.11-.08.16-.13l.07.06c-.06.06-.12.11-.19.15Z"/>
              <path class="b02i-cls-2" d="M304.22,127.61c-.03.07-.07.13-.12.18s-.11.09-.18.12c-.07.03-.14.05-.23.05s-.16-.02-.22-.05c-.07-.03-.13-.07-.18-.12s-.09-.11-.12-.18c-.03-.07-.04-.14-.04-.21h0c0-.08.01-.15.04-.22.03-.07.07-.13.12-.18.05-.05.11-.09.18-.12s.14-.04.23-.04.16.01.22.04c.07.03.13.07.18.12s.09.11.12.18c.03.07.04.14.04.21h0c0,.08-.01.15-.04.22ZM304.15,127.39c0-.06-.01-.12-.04-.18-.02-.06-.05-.11-.1-.15s-.09-.08-.14-.1-.12-.04-.18-.04-.12.01-.18.04-.1.06-.14.1c-.04.04-.07.09-.09.15-.02.06-.03.12-.03.18h0c0,.07.01.13.03.19.02.06.06.11.1.15s.09.08.14.1c.05.02.11.04.18.04s.12-.01.18-.04c.05-.02.1-.06.14-.1.04-.04.07-.09.09-.15.02-.06.03-.12.03-.18h0Z"/>
              <path class="b02i-cls-2" d="M306.14,127.93v-.64c0-.12-.03-.21-.09-.27-.06-.06-.14-.1-.24-.1-.05,0-.09,0-.13.03s-.08.04-.11.07c-.03.03-.06.07-.08.12-.02.05-.03.1-.03.16v.63h-.1v-.65c0-.11-.03-.2-.09-.26-.06-.06-.14-.1-.23-.1-.05,0-.09,0-.14.03s-.08.05-.11.08c-.03.04-.06.08-.07.12-.02.05-.03.1-.03.15v.62h-.1v-1.08h.1v.19s.04-.05.06-.08c.02-.03.05-.05.08-.07s.06-.04.1-.05.08-.02.13-.02.09,0,.13.02c.04.01.07.03.1.05.03.02.06.05.08.07s.04.06.06.09c.02-.03.04-.06.06-.09s.05-.05.08-.08c.03-.02.07-.04.11-.05.04-.01.09-.02.14-.02.06,0,.12.01.17.03.05.02.1.05.13.09.04.04.06.09.08.14.02.06.03.12.03.18v.65h-.1Z"/>
              <path class="b02i-cls-2" d="M307.44,127.93v-.2c-.04.06-.09.12-.15.16-.06.04-.14.07-.25.07-.07,0-.13-.01-.18-.03-.05-.02-.1-.05-.14-.09-.04-.04-.07-.09-.09-.14s-.03-.11-.03-.18v-.66h.1v.64c0,.11.03.2.09.27.06.07.15.1.26.1.05,0,.1,0,.15-.03.05-.02.09-.05.12-.08.03-.03.06-.07.08-.12.02-.05.03-.1.03-.15v-.62h.11v1.08h-.11Z"/>
              <path class="b02i-cls-2" d="M308.78,127.93v-.64c0-.11-.03-.2-.09-.27-.06-.07-.15-.1-.26-.1-.05,0-.1,0-.15.03-.05.02-.09.05-.12.08-.03.03-.06.07-.08.12-.02.05-.03.1-.03.16v.62h-.1v-1.08h.1v.2c.04-.06.09-.12.15-.16.06-.04.14-.07.25-.07.07,0,.13.01.18.03.05.02.1.05.14.09.04.04.07.09.09.14.02.05.03.11.03.18v.66h-.11Z"/>
            </g>
          </g>
        </g>
    </g>
    <g id="B02_POI" data-layer="2026_mapa_B02_poi.svg" style="display:none" visibility="hidden" aria-hidden="true" pointer-events="none">
      <rect id="B02_poi_0003" class="b02p-cls-1" x="224.32" y="93.85" width="49.66" height="34.55"/>
        <path id="B02_poi_0003-2" data-name="B02_poi_0003" class="b02p-cls-1" d="M288.85,149.86l-19.03,1.37c-9.18.66-18.39.58-27.55-.23l-17.95-1.59v-13.78l56.44.22v-42.01h8.09v56.01Z"/>
        <polygon id="B02_poi_0007" class="b02p-cls-1" points="127.73 57.77 71.97 56.54 71.69 48.12 127.73 26.9 127.73 57.77"/>
        <path id="B01_poi_0006" class="b02p-cls-1" d="M212.54,145.79l-10.77-2.1c-19.51-3.8-38.58-9.47-56.92-16.94l-13.4-5.45H59.82v-52.03h152.72v76.52Z"/>
        <path id="B02_poi_0011" class="b02p-cls-1" d="M334.64,58.31h-49.23V5.25l19.68,2.12c5.02.54,10.02,1.3,14.98,2.27l14.57,2.84v45.84Z"/>
        <path id="B02_poi_0013" class="b02p-cls-1" d="M278.9,56.54h-79.41V9.63l32.25-4.09c7.27-.92,14.6-1.36,21.93-1.32l25.23.15v52.16Z"/>
        <path id="B02_poi_0004" class="b02p-cls-1" d="M191.29,57.77h-57.26V23.71h0c24.54-9.05,56.66-13.99,57.57-12.06l-.3.13v45.98Z"/>
        <rect id="B02_poi_0010" class="b02p-cls-1" x="317.29" y="94.89" width="39.42" height="29.25"/>
        <path id="B01_poi_0006-2" data-name="B01_poi_0006" class="b02p-cls-1" d="M447.97,57.02h-106.26V12.3l39.21,10.76c11.67,3.2,23.09,7.25,34.17,12.11l33.68,14.78-.8,7.08Z"/>
        <rect id="B01_poi_0006-3" data-name="B01_poi_0006" class="b02p-cls-1" x="363.82" y="64.35" width="148.63" height="56.73"/>
        <rect id="B02_poi_0006" class="b02p-cls-1" x="6.7" y="64.35" width="38.49" height="56.74"/>
    </g>
    <g id="B02_NODES" data-layer="2026_mapa_B02_node.svg" style="display:none" visibility="hidden" aria-hidden="true" pointer-events="none">
      <circle id="B02_node_0018_estudio_video" class="b02n-cls-1" cx="391.6" cy="77.53" r="1"/>
        <circle id="B02_node_0017_eng_vivo" class="b02n-cls-1" cx="353.87" cy="60.31" r="1"/>
        <circle id="B02_node_0016" class="b02n-cls-1" cx="284.95" cy="75.77" r="1"/>
        <circle id="B02_node_0015" class="b02n-cls-1" cx="341.43" cy="77.5" r="1"/>
        <circle id="B02_node_0014_entrada_narnia" class="b02n-cls-1" cx="303.82" cy="102.53" r="1"/>
        <circle id="B02_node_0013_sala_de_vidro" class="b02n-cls-1" cx="216.41" cy="59.83" r="1"/>
        <circle id="B02_node_0012_comunicacao_encomun" class="b02n-cls-1" cx="206.25" cy="75.31" r="1"/>
        <circle id="B02_node_0011_aovivo" class="b02n-cls-1" cx="304.57" cy="60.31" r="1"/>
        <circle id="B02_node_0010_som_tec_b01" class="b02n-cls-1" cx="326.91" cy="90.73" r="1"/>
        <circle id="B02_node_0009_almox" class="b02n-cls-1" cx="284.95" cy="89.93" r="1"/>
        <circle id="B02_node_0008_conexao_templo_batisterio" class="b02n-cls-1" cx="216.41" cy="75.31" r="1"/>
        <circle id="B02_node_0007_cozinha_narnia" class="b02n-cls-1" cx="111.88" cy="61.31" r="1"/>
        <circle id="B02_node_0006_banheiro_masc_b01" class="b02n-cls-1" cx="49.11" cy="108.11" r="1"/>
        <circle id="B02_node_0005_conexao_servir" class="b02n-cls-1" cx="18.54" cy="126.72" r="1"/>
        <circle id="B02_node_0004_albert" class="b02n-cls-1" cx="159.99" cy="60.31" r="1"/>
        <circle id="B02_node_0003_radio" class="b02n-cls-1" cx="220.36" cy="105.84" r="1"/>
        <circle id="B02_node_0002" class="b02n-cls-1" cx="184.06" cy="66.26" r="1"/>
        <circle id="B02_node_0001" class="b02n-cls-1" cx="159.99" cy="66.26" r="1"/>
    </g>
    <g id="B02_EDGES" data-layer="2026_mapa_B02_edge.svg" style="display:none" visibility="hidden" aria-hidden="true" pointer-events="none">
      <line id="B02_edge_0017_node_0015_node_0018" class="b02e-cls-1" x1="342.43" y1="77.5" x2="390.6" y2="77.53"/>
        <polyline id="B02_edge_0016_node_0017_node_0015" class="b02e-cls-1" points="353.44 61.22 353.21 70.5 341.43 70.5 341.43 76.5"/>
        <polyline id="B02_edge_0015_node_0015_node_0010" class="b02e-cls-1" points="340.86 78.31 340.56 86.19 326.91 86.19 326.91 89.73"/>
        <line id="B02_edge_0014_node_0016_node_0009" class="b02e-cls-1" x1="284.95" y1="76.77" x2="284.95" y2="88.93"/>
        <polyline id="B02_edge_0013_node_0014_node_0016" class="b02e-cls-1" points="302.82 102.53 299.17 75.91 285.95 75.77"/>
        <path id="B02_edge_0012_node_0014_node_0015" class="b02e-cls-1" d="M304.82,102.53l4.86-16.26c1.83-6.12,7.46-10.31,13.85-10.31l16.9,1.54"/>
        <line id="B02_edge_0011_node_0014_node_0011" class="b02e-cls-1" x1="303.82" y1="101.53" x2="304.57" y2="61.31"/>
        <line id="B02_edge_0010_node_0016_node_0008" class="b02e-cls-1" x1="283.95" y1="75.77" x2="217.41" y2="75.31"/>
        <polyline id="B02_edge_0009_node_0008_node_0003" class="b02e-cls-1" points="216.41 76.31 216.41 105.84 219.36 105.84"/>
        <line id="B02_edge_0008_node_0008_node_0012" class="b02e-cls-1" x1="215.41" y1="75.31" x2="207.25" y2="75.31"/>
        <line id="B02_edge_0007_node_0008_node_0013" class="b02e-cls-1" x1="216.41" y1="74.31" x2="216.41" y2="60.83"/>
        <polyline id="B02_edge_0006_node_0002_node_0008" class="b02e-cls-1" points="185.06 66.26 212.54 66.26 215.84 74.49"/>
        <line id="B02_edge_0005_node_0001_node_0002" class="b02e-cls-1" x1="160.99" y1="66.26" x2="183.06" y2="66.26"/>
        <line id="B02_edge_0004_node_0004_node_0001" class="b02e-cls-1" x1="159.99" y1="61.31" x2="159.99" y2="65.29"/>
        <polyline id="B02_edge_0003_node_0001_node_0007" class="b02e-cls-1" points="158.99 66.26 115.2 66.26 111.88 62.31"/>
        <path id="B02_edge_0002_node_0006_node_0001" class="b02e-cls-1" d="M50.11,108.11h4.51s.45-24.57.45-24.57c.16-9.01,7.57-16.19,16.58-16.08l88.54,1.11v-1.31"/>
        <path id="B02_edge_0001_node_0006_node_0005" class="b02e-cls-1" d="M48.11,108.11h-2.08s-10.84,0-10.84,0c-9.58,0-17.18,8.05-16.64,17.61h0"/>
    </g>
    </g>
  </g>
</svg>
