<?xml version="1.0" encoding="UTF-8"?>
<svg xmlns="http://www.w3.org/2000/svg" xmlns:xlink="http://www.w3.org/1999/xlink" viewBox="15 385 1145 360" version="1.1">
  <defs>
    <style>
      .l04-bg { fill: #fffef5; }
      .l04w-cls-1 {
              fill: #366184;
            }
      
            .l04w-cls-2 {
              fill: #9d6f19;
            }
      
            .l04w-cls-3 {
              fill: none;
              stroke: silver;
              stroke-miterlimit: 10;
              stroke-width: .25px;
            }

      .l04c-cls-1 {
              fill: #bababa;
            }
      
            .l04c-cls-2 {
              fill: #fff;
            }
      
            .l04c-cls-3 {
              fill: #880817;
            }
      
            .l04c-cls-4 {
              fill: #193124;
            }
      
            .l04c-cls-5 {
              fill: #ae2554;
            }
      
            .l04c-cls-6 {
              fill: #00c980;
            }

      .l04p-cls-1 {
              fill: #dbb4b4;
            }

      .l04n-cls-1 {
              fill: #080630;
            }

      .l04e-cls-1 {
              fill: none;
              stroke: #ff9700;
              stroke-miterlimit: 10;
            }
    </style>
    <symbol id="ADM_4_Andar" data-name="ADM 4° Andar" viewBox="0 0 704.89 206.01">
          <g>
            <g>
              <rect class="l04w-cls-2" y="12.62" width="9.47" height="193.08"/>
              <polygon class="l04w-cls-2" points="1.06 20.74 1.06 12.62 258.9 12.62 258.9 20.74 1.06 20.74"/>
              <polygon class="l04w-cls-2" points="256.08 8.25 256.08 .13 462.52 .13 462.52 8.25 256.08 8.25"/>
              <rect class="l04w-cls-2" x="250.95" width="8.14" height="98.59"/>
              <polygon class="l04w-cls-2" points="243.73 98.58 243.73 93.7 294.08 93.7 294.08 98.58 243.73 98.58"/>
              <polygon class="l04w-cls-2" points="255.36 67.8 255.36 64.23 293.59 64.23 293.59 67.8 255.36 67.8"/>
              <polygon class="l04w-cls-2" points="255.03 38.96 255.03 35.38 292.6 35.38 292.6 38.96 255.03 38.96"/>
              <polygon class="l04w-cls-2" points="293.83 45.27 290.25 45.27 290.25 29.07 293.83 29.07 293.83 45.27"/>
              <polygon class="l04w-cls-2" points="293.83 74.12 290.25 74.12 290.25 57.91 293.83 57.91 293.83 74.12"/>
              <polygon class="l04w-cls-2" points="293.83 17.69 290.25 17.69 290.25 1.48 293.83 1.48 293.83 17.69"/>
              <polygon class="l04w-cls-2" points="294.13 98.46 290.54 98.46 290.54 82.25 294.13 82.25 294.13 98.46"/>
              <rect class="l04w-cls-2" x="446.98" y=".19" width="8.14" height="98.91"/>
              <polygon class="l04w-cls-2" points="522.77 200.95 517.38 200.95 517.38 123.88 522.77 123.88 522.77 200.95"/>
              <polygon class="l04w-cls-2" points="372.86 70.12 367.46 70.12 367.46 7.72 372.86 7.72 372.86 70.12"/>
              <polygon class="l04w-cls-2" points="390.24 70.12 384.84 70.12 384.84 7.72 390.24 7.72 390.24 70.12"/>
              <polygon class="l04w-cls-2" points="455.33 20.67 455.33 12.55 702.34 12.55 702.34 20.67 455.33 20.67"/>
              <polygon class="l04w-cls-2" points="704.89 205.52 697.56 205.52 697.56 12.47 704.89 12.47 704.89 205.52"/>
              <polygon class="l04w-cls-2" points="1.41 205.98 1.41 199.5 263.27 199.5 263.27 205.98 1.41 205.98"/>
              <polygon class="l04w-cls-2" points="160.52 98.52 154.02 98.52 154.02 16.24 160.52 16.24 160.52 98.52"/>
              <polygon class="l04w-cls-2" points="235.05 97.39 228.56 97.39 228.56 50.06 235.05 50.06 235.05 97.39"/>
              <polygon class="l04w-cls-2" points="368.42 99.69 368.42 94.3 457.33 94.3 457.33 99.69 368.42 99.69"/>
              <polygon class="l04w-cls-2" points="372.01 97.24 368.42 97.24 368.42 81.04 372.01 81.04 372.01 97.24"/>
              <polygon class="l04w-cls-2" points="256.74 143.81 256.74 141.71 385.94 141.71 385.94 143.81 256.74 143.81"/>
              <rect class="l04w-cls-2" x="437.41" y="122.44" width="8.14" height="80.42"/>
              <rect class="l04w-cls-2" x="454.89" y=".07" width="8.14" height="20.59"/>
              <polygon class="l04w-cls-2" points="437.41 205.72 437.41 197.6 702.96 197.6 702.96 205.72 437.41 205.72"/>
              <rect class="l04w-cls-2" x="196.28" y="63.07" width="4.91" height="18.22"/>
              <polygon class="l04w-cls-2" points="251.56 50.05 251.56 54.96 228.62 54.96 228.62 50.05 251.56 50.05"/>
              <polygon class="l04w-cls-2" points="219.33 41.86 214.44 41.86 214.44 13.81 219.33 13.81 219.33 41.86"/>
              <polygon class="l04w-cls-2" points="262.96 126.69 262.96 133.19 228.25 133.19 228.25 126.69 262.96 126.69"/>
              <polyline class="l04w-cls-2" points="178.5 205.33 178.5 128.89 184.99 128.89 184.99 205.33"/>
              <polyline class="l04w-cls-2" points="257.04 205.85 256.59 121.27 263.09 121.27 263.53 205.85"/>
              <polygon class="l04w-cls-2" points="263.26 203.32 263.26 200.51 437.56 200.51 437.56 203.32 263.26 203.32"/>
              <polygon class="l04w-cls-2" points="386.29 195.52 383.49 195.52 383.49 139.26 386.29 139.26 386.29 195.52"/>
              <polygon class="l04w-cls-2" points="439.76 193.28 439.76 196.08 383.5 196.08 383.5 193.28 439.76 193.28"/>
              <polygon class="l04w-cls-2" points="514.77 95.67 509.38 95.67 509.38 18.61 514.77 18.61 514.77 95.67"/>
              <polygon class="l04w-cls-2" points="578.03 98.84 572.64 98.84 572.64 13.12 578.03 13.12 578.03 98.84"/>
              <polygon class="l04w-cls-2" points="578.25 206 572.86 206 572.86 123.54 578.25 123.54 578.25 206"/>
              <g>
                <rect class="l04w-cls-2" x="437.41" y="121.93" width="50.48" height="5.4"/>
                <rect class="l04w-cls-2" x="573" y="123.49" width="112.36" height="5.4"/>
                <rect class="l04w-cls-2" x="503.67" y="121.93" width="57.91" height="5.4"/>
                <rect class="l04w-cls-2" x="473.88" y="93.18" width="20.53" height="5.4"/>
                <rect class="l04w-cls-2" x="504.56" y="93.47" width="22.11" height="5.4"/>
                <rect class="l04w-cls-2" x="542.44" y="93.47" width="18.91" height="5.4"/>
                <rect class="l04w-cls-2" x="572.73" y="93.42" width="113.29" height="5.4"/>
              </g>
              <polygon class="l04w-cls-2" points="200 126.6 200 133.09 153.73 133.09 153.73 126.6 200 126.6"/>
              <polygon class="l04w-cls-2" points="200.73 93.61 200.73 98.52 155.19 98.52 155.19 93.61 200.73 93.61"/>
              <polygon class="l04w-cls-2" points="195.26 54.12 190.37 54.12 190.37 16.77 195.26 16.77 195.26 54.12"/>
              <polyline class="l04w-cls-2" points="210.7 206.01 210.26 126.45 216.75 126.45 217.2 206.01"/>
              <polygon class="l04w-cls-2" points="200.42 70.6 200.42 75.52 153.95 75.52 153.95 70.6 200.42 70.6"/>
              <polygon class="l04w-cls-2" points="234.47 36.96 234.47 41.87 214.41 41.87 214.41 36.96 234.47 36.96"/>
              <polygon class="l04w-cls-2" points="216.99 49.55 216.99 54.46 190.36 54.46 190.36 49.55 216.99 49.55"/>
              <polygon class="l04w-cls-2" points="218.54 64.97 213.65 64.97 213.65 49.54 218.54 49.54 218.54 64.97"/>
              <rect class="l04w-cls-1" x="420.21" y="33.82" width="2.22" height="34.44" rx="1.11" ry="1.11"/>
            </g>
            <rect class="l04w-cls-1" x="405.04" y="143.26" width="16.22" height="31.78"/>
          </g>
        </symbol>
  </defs>
  <g id="L04_adm_map_background">
    <rect class="l04-bg" data-floor-bg="true" width="1175.11" height="1120"/>
    <g id="L04_adm_map_content" transform="translate(37.53 401.3) scale(1.57)">
    <g id="L04_WALL" data-layer="2026_mapa_L04_wall_parede.svg">
      <g id="L01_escadas_lateral">
          <rect class="l04w-cls-3" x="385.94" y="144.33" width="17.7" height="3.53"/>
          <rect class="l04w-cls-3" x="385.94" y="147.86" width="17.7" height="3.53"/>
          <rect class="l04w-cls-3" x="385.94" y="151.39" width="17.7" height="3.53"/>
          <rect class="l04w-cls-3" x="385.94" y="154.91" width="17.7" height="3.53"/>
          <rect class="l04w-cls-3" x="385.94" y="158.44" width="17.7" height="3.53"/>
          <rect class="l04w-cls-3" x="385.94" y="161.97" width="17.7" height="3.53"/>
          <rect class="l04w-cls-3" x="385.94" y="165.5" width="17.7" height="3.53"/>
          <rect class="l04w-cls-3" x="385.94" y="169.03" width="17.7" height="3.53"/>
          <rect class="l04w-cls-3" x="421.33" y="144.33" width="18.17" height="3.53"/>
          <rect class="l04w-cls-3" x="421.33" y="147.86" width="18.17" height="3.53"/>
          <rect class="l04w-cls-3" x="421.33" y="151.39" width="18.17" height="3.53"/>
          <rect class="l04w-cls-3" x="421.33" y="154.91" width="18.17" height="3.53"/>
          <rect class="l04w-cls-3" x="421.33" y="158.44" width="18.17" height="3.53"/>
          <rect class="l04w-cls-3" x="421.33" y="161.97" width="18.17" height="3.53"/>
          <rect class="l04w-cls-3" x="421.33" y="165.5" width="18.17" height="3.53"/>
          <rect class="l04w-cls-3" x="421.33" y="169.03" width="18.17" height="3.53"/>
          <rect class="l04w-cls-3" x="399.3" y="182.69" width="17.28" height="3.83" transform="translate(223.33 592.55) rotate(-90)"/>
          <rect class="l04w-cls-3" x="403.13" y="182.69" width="17.28" height="3.83" transform="translate(227.16 596.37) rotate(-90)"/>
          <rect class="l04w-cls-3" x="406.95" y="182.69" width="17.28" height="3.83" transform="translate(230.99 600.2) rotate(-90)"/>
          <rect class="l04w-cls-3" x="410.78" y="182.69" width="17.28" height="3.83" transform="translate(234.81 604.03) rotate(-90)"/>
          <rect class="l04w-cls-3" x="421.33" y="172.55" width="18.17" height="3.53"/>
        </g>
        <use width="704.89" height="206.01" xlink:href="#ADM_4_Andar"/>
    </g>
    <g id="L04_ICONS" data-layer="2026_mapa_L04__icon_info.svg">
      <g id="L01_sala_019_p007_area_kids">
          <g>
            <path class="l04c-cls-6" d="M313.36,171.98c-.26-.23-.37-.51-.28-.84.08-.3.28-.5.58-.56.46-.1.92-.19,1.39-.27.49-.08.9.29.91.78,0,.03,0,.06,0,.12.28-.05.54-.1.82-.15-.1-.52-.2-1.03-.3-1.57-.23.04-.45.08-.67.12-.12.02-.24.05-.36.07-.17.03-.3-.06-.33-.2-.03-.15.06-.28.23-.31.63-.12,1.25-.24,1.88-.36.22-.04.44-.08.65-.13.21-.04.35.04.38.2.03.17-.07.29-.27.33-.32.06-.64.12-.98.19.1.52.2,1.03.3,1.57.3-.05.59-.11.88-.16.45-.08.89-.17,1.34-.26.07-.01.14-.06.18-.12.53-.72,1.45-.89,2.19-.42.06.04.14.05.21.04.15-.02.31-.05.47-.08-.01-.05-.02-.09-.04-.13-.3-.75-.6-1.5-.9-2.26-.07-.17-.17-.25-.35-.24-.17,0-.34,0-.54,0,0,.07,0,.12,0,.18,0,.52,0,1.04,0,1.57,0,.05,0,.1,0,.15-.03.14-.12.23-.26.23-.15,0-.24-.09-.26-.23,0-.05,0-.11,0-.17,0-2.19,0-4.39,0-6.58v-.22h-.21c-2.19,0-4.39,0-6.58,0-.06,0-.12,0-.18,0-.2-.03-.29-.26-.17-.42.03-.04.06-.07.09-.1,1.29-1.21,2.58-2.41,3.87-3.61.19-.18.3-.18.49,0,1.29,1.2,2.58,2.41,3.87,3.61.1.1.19.2.13.35-.06.16-.19.18-.34.18-.14,0-.28,0-.43,0v3.47c.39,0,.79,0,1.18,0,.09,0,.19,0,.28.01.31.06.51.25.63.54.18.44.35.89.54,1.34.38-.07.75-.14,1.13-.21.42-.08.84-.16,1.26-.24.18-.03.32.05.35.2.03.16-.06.28-.24.32-.33.07-.66.13-1.02.2.1.53.2,1.04.3,1.57.28-.05.54-.1.81-.15-.03-.12-.07-.22-.08-.32-.05-.4.21-.77.61-.85.45-.1.9-.18,1.36-.26.64-.11,1.17.53.86,1.14.1.22.23.4.26.59.08.43-.21.8-.66.89-.59.11-1.18.22-1.77.34-.54.1-1.09.2-1.64.31-.03,0-.06.02-.11.03.15.37.29.74.45,1.09.03.07.16.12.25.13.19.02.39,0,.58,0,.45,0,.8.36.8.79,0,.44-.35.8-.8.81-.42,0-.84,0-1.27,0-.42,0-.67-.18-.83-.57-.24-.6-.48-1.2-.72-1.81-.02-.05-.04-.1-.07-.16-.19.04-.38.07-.57.11v.62c0,.48,0,.96,0,1.43,0,.29-.08.37-.38.37-.81,0-1.62,0-2.43,0-.31,0-.39-.07-.39-.4,0-.47,0-.93,0-1.42-.36.07-.7.13-1.04.2-1.37.26-2.74.52-4.1.78-.34.07-.63,0-.85-.28-.22-.28-.22-.58-.06-.91ZM320.61,161.74c-1.12-1.05-2.22-2.07-3.32-3.1-1.1,1.03-2.2,2.05-3.32,3.1h6.63ZM322.09,173.46c0-.71,0-1.41,0-2.1,0-.62-.47-1.09-1.06-1.09-.6,0-1.07.47-1.07,1.1,0,.65,0,1.3,0,1.95,0,.05,0,.1,0,.14h2.12ZM322.61,171.04c.12-.02.24-.04.36-.07,1.74-.33,3.49-.66,5.23-1,.19-.04.29-.16.26-.32-.03-.16-.17-.23-.36-.2-1.56.3-3.13.59-4.69.89-.33.06-.65.13-.98.19.06.17.12.33.19.5ZM319.42,171.1c-.48.09-.94.18-1.4.27-1.32.25-2.65.5-3.97.76-.19.04-.29.16-.26.32.03.16.17.23.36.2,1.4-.26,2.8-.53,4.2-.79.35-.07.71-.13,1.07-.2v-.54ZM320.76,166.81c.18,0,.34,0,.5,0,.47,0,.71.17.89.6.27.67.53,1.34.8,2.01q.18.45.66.35s.02,0,.03-.02c0-.01,0-.02,0-.03-.43-1.09-.87-2.18-1.31-3.27-.03-.07-.13-.16-.21-.16-.45-.02-.91,0-1.37,0v.53ZM323.73,171.37c.26.66.52,1.29.77,1.92.05.12.14.18.27.18.43,0,.86,0,1.3,0,.17,0,.28-.12.28-.27,0-.15-.11-.26-.28-.26-.16,0-.31,0-.47,0-.49,0-.73-.16-.91-.61-.14-.35-.28-.7-.42-1.06-.18.03-.34.07-.53.1ZM324.34,168c-.25.05-.5.09-.75.14.2.51.4,1.01.61,1.51.15-.03.29-.06.44-.09-.1-.53-.2-1.04-.3-1.57ZM326.73,169.18c.43-.08.89-.17,1.35-.27.14-.03.19-.15.17-.29-.02-.14-.12-.24-.25-.21-.47.08-.94.16-1.41.26-.13.03-.19.15-.17.29.03.14.12.22.31.22ZM313.9,171.61c.42-.08.88-.17,1.34-.26.14-.03.21-.15.18-.29-.03-.14-.13-.24-.27-.21-.46.08-.92.16-1.37.26-.14.03-.21.15-.18.29.02.15.12.22.31.22Z"/>
            <path class="l04c-cls-6" d="M317.28,163.34c1.18,0,2.14.96,2.14,2.14,0,1.17-.96,2.12-2.14,2.12-1.17,0-2.13-.96-2.13-2.13,0-1.18.96-2.13,2.13-2.13ZM318.89,165.48c0-.88-.71-1.61-1.59-1.61-.88,0-1.6.71-1.61,1.59,0,.88.71,1.61,1.59,1.61.88,0,1.6-.71,1.61-1.59Z"/>
            <path class="l04c-cls-6" d="M314.35,166.56c0,1.11,0,2.21,0,3.32,0,.06,0,.11,0,.17-.03.14-.12.23-.26.23-.15,0-.24-.09-.26-.23,0-.05,0-.11,0-.17,0-2.22,0-4.44,0-6.66,0-.02,0-.03,0-.05,0-.23.1-.35.27-.35.17,0,.27.12.27.35,0,1.13,0,2.27,0,3.4Z"/>
            <path class="l04c-cls-6" d="M327.42,160.96c0,.73-.61,1.32-1.34,1.32-.74,0-1.34-.61-1.33-1.36,0-.72.61-1.31,1.34-1.31.74,0,1.33.61,1.32,1.35ZM326.88,160.94c0-.44-.37-.8-.81-.79-.43,0-.79.37-.79.8,0,.44.37.8.81.79.43,0,.79-.37.79-.8Z"/>
            <path class="l04c-cls-6" d="M327.56,159.71c-.06-.05-.16-.09-.19-.16-.03-.08-.03-.21.02-.27.12-.16.28-.3.43-.44.1-.09.23-.08.33.01.1.09.13.22.05.31-.15.18-.32.33-.49.49-.03.03-.08.03-.16.05Z"/>
            <path class="l04c-cls-6" d="M326.35,158.54c0,.09,0,.19,0,.28-.01.15-.12.25-.26.25-.14,0-.26-.1-.26-.25,0-.19,0-.38,0-.57,0-.15.12-.25.26-.25.14,0,.25.1.26.25,0,.09,0,.19,0,.28Z"/>
            <path class="l04c-cls-6" d="M323.7,161.21c-.09,0-.19,0-.28,0-.16-.01-.26-.12-.26-.27,0-.15.11-.26.27-.26.18,0,.36,0,.53,0,.16,0,.26.12.26.27,0,.14-.11.25-.27.26-.08,0-.17,0-.25,0Z"/>
            <path class="l04c-cls-6" d="M328.48,161.21c-.09,0-.18,0-.27,0-.16-.01-.26-.13-.26-.27,0-.14.11-.25.25-.26.18,0,.37,0,.55,0,.16,0,.26.12.26.27,0,.14-.11.24-.25.26-.01,0-.02,0-.03,0-.08,0-.17,0-.25,0h0Z"/>
            <path class="l04c-cls-6" d="M326.35,163.34c0,.09,0,.19,0,.28-.01.15-.12.25-.26.25-.14,0-.26-.1-.26-.25,0-.19,0-.38,0-.57,0-.15.12-.25.26-.25.14,0,.25.1.27.25,0,.01,0,.02,0,.03,0,.08,0,.17,0,.25,0,0,0,0,0,0Z"/>
            <path class="l04c-cls-6" d="M324.16,163.11c-.06-.05-.16-.09-.19-.16-.03-.08-.03-.21.02-.27.12-.16.27-.29.42-.43.1-.09.23-.08.33,0,.1.09.14.22.06.31-.15.18-.32.33-.49.49-.03.03-.08.03-.16.05Z"/>
            <path class="l04c-cls-6" d="M324.15,158.8c.23,0,.71.47.68.64-.01.08-.07.19-.14.22-.08.03-.21.03-.27-.02-.16-.12-.3-.26-.42-.42-.05-.06-.05-.2-.02-.27.03-.07.13-.11.17-.14Z"/>
            <path class="l04c-cls-6" d="M328.02,163.09c-.22,0-.7-.47-.68-.63,0-.08.07-.2.13-.22.08-.03.22-.03.29.02.15.11.29.25.41.41.05.07.05.2.02.29-.03.07-.13.11-.17.14Z"/>
            <path class="l04c-cls-6" d="M321.02,170.67c.36,0,.66.3.66.67,0,.37-.3.66-.67.66-.37,0-.66-.3-.66-.67,0-.37.3-.66.67-.66ZM321.21,171.34c-.09-.06-.14-.13-.18-.12-.05.01-.12.07-.13.13,0,.03.07.12.12.12.05,0,.1-.06.2-.12Z"/>
          </g>
        </g>
        <text transform="translate(68 131) scale(1.08 1)" fill="#bababa" font-family="Arial, sans-serif" font-size="3px">Auditório L04</text>
        <g id="L04_sala_021_l04_auditorio_01" transform="translate(-531.74 -36.5)">
          <path class="l04c-cls-5" d="M613.74,153.56h-4.12s0,2.33,0,2.33c0,.07-.1.17-.16.17-.06,0-.16-.11-.16-.17v-2.33s-.5,0-.5,0c-.39,0-.61-.32-.59-.69,0-.22.05-.42.2-.56s.37-.17.57-.15h.12s.03-.07.04-.1c-.08-.55.13-1.03.55-1.37.48-.4,1.09-.55,1.72-.54.37,0,.74-.02,1.11.04.63.09,1.19.41,1.54.94.2.31.19.66.19,1.05.22-.04.47-.04.64.08.21.15.28.35.28.62s-.12.6-.43.66l-.66.02v2.33c0,.07-.1.17-.16.17s-.16-.1-.16-.17v-2.33ZM611.52,152.16v-.93s-.58-.73-.58-.73c-.93.15-1.63.65-1.49,1.66h2.07ZM612.01,150.49h-.69s.36.42.36.42l.33-.42ZM613.92,152.17l-.02-.53c0-.21-.17-.45-.33-.61-.31-.31-.73-.44-1.14-.52l-.6.72v.94s2.08,0,2.08,0ZM614.69,153.24c.23-.22.15-.75-.07-.75h-5.93c-.21,0-.24.74.02.74h5.98Z"/>
          <path class="l04c-cls-5" d="M614.7,161.84c-.36.07-.05-.59-.38-.93-.25-.26-.61-.41-.97-.41h-.81c-.4,0-.82.2-1.01.55-.12.22.06.62-.13.76-.05.03-.2.03-.22-.02l-.08-.23c.12-.44-.11-.77-.51-.92-.32-.14-.68-.14-1.04-.15s-.68.04-.99.2c-.67.36-.36.98-.51,1.1-.04.03-.14.04-.18.02-.22-.08.15-.7-.5-1.1-.34-.21-.71-.22-1.1-.22s-.72.02-1.05.18c-.69.34-.39.95-.54,1.12-.03.04-.15.06-.19.03-.14-.09-.17-.85.31-1.25.36-.29.78-.42,1.24-.41.75-.04,1.44.03,1.91.67.23-.34.56-.52.96-.63.5-.08,1.01-.07,1.51.01.36.11.65.27.9.59.3-.39.7-.56,1.17-.63.86-.04,1.66-.06,2.19.65.27-.35.65-.62,1.1-.63l1.01-.03c.83.08,1.53.59,1.43,1.43,0,.06-.03.16-.05.2s-.15.04-.19.01c-.21-.16.14-.71-.48-1.09-.33-.21-.7-.23-1.1-.23s-.8.01-1.15.23c-.68.42-.25,1.07-.54,1.12Z"/>
          <path class="l04c-cls-5" d="M614.57,146.76l-.51.32c-.07.04-.2.07-.25.04-.1-.06-.1-.17-.09-.28l.07-.61c-.44-.48-.44-1.17,0-1.64.86-.92,2.43-.97,3.42-.24.4.3.65.75.58,1.23-.19,1.2-2.04,1.72-3.22,1.19ZM614.58,146.42c.84.37,1.79.3,2.48-.21.49-.36.58-1,.16-1.44-.71-.75-2.27-.78-3.06-.09-.46.39-.49,1.03-.02,1.45l-.04.56.49-.26Z"/>
          <path class="l04c-cls-5" d="M611.54,146.5c.99-.08,1.79.67,1.86,1.58.08.96-.64,1.79-1.57,1.87s-1.79-.62-1.88-1.56.59-1.81,1.59-1.89ZM611.54,146.83c-.82.08-1.35.8-1.27,1.57s.77,1.32,1.56,1.24,1.33-.75,1.25-1.55c-.07-.74-.72-1.34-1.54-1.26Z"/>
          <path class="l04c-cls-5" d="M606.03,156.8c.8-.13,1.5.44,1.62,1.18.13.78-.41,1.51-1.19,1.63s-1.47-.4-1.61-1.17.37-1.51,1.19-1.64ZM606.03,157.13c-.65.13-.98.74-.86,1.31s.7.95,1.28.85c.61-.11.99-.7.87-1.31-.11-.57-.67-.98-1.29-.86Z"/>
          <path class="l04c-cls-5" d="M614.41,158.19c.1.46-.24.93-.6,1.18-.7.49-1.63.23-2.03-.48-.42-.75-.09-1.66.7-2.01.74-.32,1.68.1,1.9.91-.06.14.01.25.04.39ZM613.96,158.76c.23-.43.17-.89-.11-1.25-.41-.53-1.19-.53-1.64-.06s-.39,1.23.12,1.63,1.31.28,1.63-.31Z"/>
          <path class="l04c-cls-5" d="M609.37,156.81c.79-.16,1.52.39,1.66,1.13.15.78-.37,1.52-1.15,1.67s-1.48-.35-1.64-1.13c-.15-.73.32-1.51,1.13-1.67ZM609.41,157.13c-.64.13-.97.73-.86,1.31.12.6.71.96,1.28.85.62-.12.99-.7.87-1.3s-.66-.98-1.3-.85Z"/>
          <path class="l04c-cls-5" d="M616.13,156.8c.8-.13,1.5.44,1.62,1.18.13.78-.41,1.51-1.19,1.63s-1.47-.4-1.61-1.17c-.13-.74.37-1.51,1.19-1.64ZM616.13,157.13c-.65.13-.98.74-.86,1.31s.7.95,1.28.85c.61-.11.99-.7.87-1.31-.11-.57-.67-.98-1.29-.86Z"/>
        </g>
        <g id="L01_sala_010_p027_l01_elevador_templo">
          <g>
            <rect class="l04c-cls-2" x="271.16" y="43.23" width="13.06" height="15.78" rx="1.17" ry="1.17"/>
            <path class="l04c-cls-4" d="M271.56,50.65c0-1.97,0-3.93,0-5.9,0-.8.3-1.1,1.09-1.1,1.91,0,3.82,0,5.73,0,.72,0,1.05.32,1.05,1.03,0,3.98,0,7.96,0,11.94,0,.71-.33,1.03-1.04,1.03-1.93,0-3.86,0-5.78,0-.71,0-1.03-.32-1.03-1.04,0-1.99,0-3.97,0-5.96ZM278.59,51.04c0-1.75,0-3.51,0-5.26,0-.46-.14-.59-.6-.59-1.68,0-3.36,0-5.03,0-.44,0-.59.15-.59.58,0,3.51,0,7.02,0,10.53,0,.43.15.58.59.58,1.67,0,3.34,0,5.01,0,.5,0,.63-.12.63-.63,0-1.74,0-3.47,0-5.21Z"/>
            <path class="l04c-cls-4" d="M282.07,53.85c.21-.06.37-.13.52-.13.14,0,.35.05.41.15.07.1.05.34-.03.43-.4.44-.82.86-1.25,1.27-.16.15-.36.14-.52-.01-.42-.41-.84-.82-1.23-1.25-.08-.09-.1-.33-.04-.43.06-.1.27-.16.41-.16.16,0,.33.08.54.13,0-.26,0-.5,0-.73,0-.5,0-1,0-1.5,0-.33.12-.44.45-.46.06,0,.12,0,.17,0,.46,0,.56.1.56.55,0,.7,0,1.4,0,2.13Z"/>
            <path class="l04c-cls-4" d="M282.04,48.13c0,.64,0,1.24,0,1.84,0,.55-.5.84-.97.55-.11-.07-.18-.27-.19-.41-.02-.64,0-1.28,0-1.98-.18.04-.33.08-.48.12-.2.05-.39.04-.5-.17-.11-.19-.03-.35.12-.49.38-.38.76-.76,1.14-1.14.23-.22.39-.22.62,0,.38.38.76.76,1.14,1.14.14.14.22.29.11.49-.11.19-.28.21-.47.17-.16-.04-.31-.08-.5-.13Z"/>
            <path class="l04c-cls-4" d="M276.45,52.14c0,.4,0,.77,0,1.14,0,.84,0,1.69,0,2.53,0,.26-.07.3-.46.31-.25,0-.4-.04-.4-.31,0-.94,0-1.88,0-2.82,0-.07,0-.14-.01-.21,0-.03-.06-.07-.09-.07-.03,0-.09.04-.1.07-.02.07-.02.15-.02.23,0,.92,0,1.84,0,2.77,0,.31-.04.34-.41.34-.38,0-.45-.05-.45-.35,0-1.2,0-2.4,0-3.63-.15,0-.28,0-.41,0-.21,0-.3-.1-.28-.28.08-.75.15-1.49.23-2.24.05-.43.33-.64.81-.65.4,0,.81,0,1.21,0,.52,0,.8.24.84.7.07.69.14,1.37.21,2.06.04.35,0,.4-.41.41-.08,0-.15,0-.27,0Z"/>
            <path class="l04c-cls-4" d="M274.53,47.72c0-.53.41-.95.94-.96.54,0,.98.42.98.96,0,.52-.44.95-.96.95-.52,0-.95-.42-.96-.95Z"/>
          </g>
        </g>
        <g id="L01_sala_020">
          <g>
            <path class="l04c-cls-1" d="M410.79,157.15c.22.1.42.18.6.29.05.03.1.13.1.2,0,.3-.03.59-.05.89-.02.36.17.62.5.65.29.03.54-.19.57-.53.04-.5.06-1,.08-1.5,0-.24-.12-.4-.33-.5-.33-.16-.66-.32-.99-.47-.13-.06-.18-.13-.17-.27.01-.24,0-.49,0-.78.56.69,1.32.53,2.01.6.25.03.41-.19.42-.45,0-.25-.14-.43-.38-.46-.3-.04-.59-.07-.89-.1-.18-.01-.32-.08-.43-.23-.29-.37-.57-.74-.88-1.09-.36-.4-.61-.43-1.05-.12-.47.33-.94.68-1.39,1.04-.11.08-.19.25-.2.38-.06.5-.1,1-.13,1.5-.02.27.14.47.4.5.28.03.48-.11.52-.4.04-.3.09-.6.06-.89-.03-.43.21-.63.56-.8,0,.09.02.16.02.23,0,.63.05,1.26,0,1.89-.05.54-.21,1.07-.33,1.6-.12.55-.26,1.09-.39,1.64-.07.32.07.59.35.67.31.09.59-.07.68-.41.24-.96.47-1.93.71-2.9,0-.04.02-.08.05-.16Z"/>
            <path class="l04c-cls-1" d="M415.75,155.14v1.41h-1.42v1.42h-1.43v1.44h-1.42v1.59c.23.06.39.01.56-.15,1.7-1.71,3.4-3.41,5.11-5.11.18-.17.26-.35.19-.6h-1.58Z"/>
            <path class="l04c-cls-1" d="M409.89,151.95c0,.52.4.92.92.92.51,0,.92-.41.91-.93,0-.49-.42-.91-.91-.91-.51,0-.92.41-.92.92Z"/>
          </g>
        </g>
        <g id="L01_sala_004_sala_calma">
          <g>
            <path class="l04c-cls-3" d="M241.42,160.19l-4.63-5.07c-1.18-1.29-1.78-2.96-1.7-4.7.08-1.74.83-3.35,2.12-4.52,1.29-1.18,2.96-1.78,4.7-1.7,1.74.08,3.35.83,4.52,2.12,1.24,1.35,1.87,3.11,1.79,4.94-.08,1.83-.88,3.52-2.23,4.76h0s-4.57,4.17-4.57,4.17ZM241.61,144.61c-1.47,0-2.95.53-4.12,1.59-2.49,2.27-2.67,6.15-.4,8.64l4.35,4.77,4.27-3.89.14.15-.14-.15c2.63-2.4,2.81-6.49.42-9.11-1.2-1.32-2.86-1.99-4.52-1.99Z"/>
            <g>
              <path class="l04c-cls-3" d="M243.92,152.06s.1-.1.13-.09c.05,0,.1.13.08.17l-.48,1.12h-1.31c-.21,0-.32.21-.31.38.01.19.16.34.37.34h1.53c.14,0,.26-.14.31-.26l.71-1.72s.11-.1.15-.09.08.13.06.17l-.78,1.89h.66s.13.05.13.08c0,.04-.05.09-.1.14h-6.64c-.05-.03-.1-.07-.12-.1-.02-.04.09-.12.14-.12h.62s-.79-1.88-.79-1.88c0-.05.02-.14.06-.17s.13.05.15.09l.72,1.75c.06.13.19.23.34.23h1.49c.23,0,.38-.16.38-.36s-.15-.35-.38-.35h-1.24s-.48-1.12-.48-1.12l.05-.16s.13,0,.15.04l.43,1.02h1.15c.2,0,.41.14.49.3.1.2.08.38-.03.63h.36c-.1-.18-.14-.37-.06-.56.07-.17.25-.36.47-.36h1.2s.41-.99.41-.99Z"/>
              <path class="l04c-cls-3" d="M241.47,146.57c-.46.37-.46.96-.06,1.35.39.37.95.45,1.48.32.21.11.4.19.67.22-.14-.33-.07-.56.09-.82.22-.38.06-.85-.29-1.11-.33-.27-.76-.34-1.18-.28l-.12-.03s-.01-.17.02-.18c.5-.11,1.12.02,1.51.38s.51.91.24,1.38c-.18.22-.15.55.12.69l.03.11c.05.16-.69.11-1.11-.13-.93.22-1.96-.3-1.97-1.23,0-.63.63-1.04.6-.83l-.02.16Z"/>
              <path class="l04c-cls-3" d="M240.52,148.25l.69.05s.09.03.12.04c.15.1-.2.26-.74.13-.42.23-1.14.28-1.11.15l.03-.13c.27-.14.29-.47.11-.69-.29-.5-.14-1.11.34-1.46.64-.47,1.56-.46,2.17.05.55.46.57,1.22.05,1.7-.03.03-.13.06-.17.03-.05-.02-.04-.16,0-.2.41-.36.42-.93.02-1.31-.52-.49-1.37-.52-1.94-.09-.37.28-.52.75-.28,1.14.15.25.21.5.06.78.23-.01.43-.08.65-.2Z"/>
              <path class="l04c-cls-3" d="M244.92,151.31h-.85c-.39,0-.79.28-.83.69-.05.47.05.82-.1.93-.04.02-.14-.06-.14-.11v-.67c0-.54.4-1.02.96-1.05.3-.02.61-.01.92-.01.58,0,1.07.43,1.1,1.01v1.98s-.08.12-.08.12c-.02.03-.12-.05-.14-.09v-2.05c-.02-.41-.44-.74-.83-.74Z"/>
              <path class="l04c-cls-3" d="M239.37,151.3h-.83c-.43,0-.77.33-.83.74v2.02s-.07.11-.11.13-.11-.09-.11-.12v-2.06c.08-.5.49-.91,1.01-.92.34,0,.67-.01,1.01,0,.52.03.94.47.95.98v.74s-.05.11-.09.12-.13-.07-.13-.11l-.02-.8c0-.43-.43-.73-.85-.73Z"/>
              <path class="l04c-cls-3" d="M238.72,148.74c.6-.15,1.15.2,1.29.77.13.52-.21,1.1-.76,1.24s-1.12-.18-1.27-.75c-.14-.52.15-1.12.74-1.27ZM238.72,148.97c-.46.15-.65.64-.51,1.03.15.44.61.66,1.03.52s.66-.6.54-1.01c-.14-.44-.58-.7-1.05-.55Z"/>
              <path class="l04c-cls-3" d="M244.2,148.74c.6-.15,1.15.21,1.28.78.12.54-.21,1.1-.76,1.24s-1.11-.18-1.27-.75c-.15-.53.16-1.13.75-1.27ZM244.21,148.97c-.46.15-.66.64-.52,1.03.15.43.61.66,1.03.52s.65-.59.53-1c-.13-.44-.58-.71-1.04-.56Z"/>
              <path class="l04c-cls-3" d="M241.57,149.04c.52-.09.97.25,1.05.71.09.5-.22.97-.72,1.05-.47.08-.94-.21-1.04-.7-.1-.46.19-.97.71-1.07ZM241.57,149.27c-.4.1-.59.5-.49.84s.47.56.81.47c.37-.09.59-.46.5-.83-.08-.34-.43-.58-.82-.49Z"/>
              <path class="l04c-cls-3" d="M242.12,151.27h-.77c-.47,0-.57.42-.72.47-.04.01-.11-.1-.1-.14.09-.29.44-.55.78-.55h.75c.36,0,.68.19.85.5,0,.04-.01.11-.02.14s-.16.02-.17-.02c-.08-.19-.33-.4-.59-.4Z"/>
            </g>
          </g>
        </g>
        <g id="L01_sala_003">
          <g>
            <path class="l04c-cls-3" d="M547.27,154.3l-4.63-5.07c-1.18-1.29-1.78-2.96-1.7-4.7.08-1.74.83-3.35,2.12-4.52,1.29-1.18,2.96-1.78,4.7-1.7,1.74.08,3.35.83,4.52,2.12,1.24,1.35,1.87,3.11,1.79,4.94-.08,1.83-.88,3.52-2.23,4.76h0s-4.57,4.17-4.57,4.17ZM547.47,138.72c-1.47,0-2.95.53-4.12,1.59-2.49,2.27-2.67,6.15-.4,8.64l4.35,4.77,4.27-3.89.14.15-.14-.15c2.63-2.4,2.81-6.49.42-9.11-1.2-1.32-2.86-1.99-4.52-1.99Z"/>
            <g>
              <path class="l04c-cls-3" d="M549.78,146.17s.1-.1.13-.09c.05,0,.1.13.08.17l-.48,1.12h-1.31c-.21,0-.32.21-.31.38.01.19.16.34.37.34h1.53c.14,0,.26-.14.31-.26l.71-1.72s.11-.1.15-.09.08.13.06.17l-.78,1.89h.66s.13.05.13.08c0,.04-.05.09-.1.14h-6.64c-.05-.03-.1-.07-.12-.1-.02-.04.09-.12.14-.12h.62s-.79-1.88-.79-1.88c0-.05.02-.14.06-.17s.13.05.15.09l.72,1.75c.06.13.19.23.34.23h1.49c.23,0,.38-.16.38-.36s-.15-.35-.38-.35h-1.24s-.48-1.12-.48-1.12l.05-.16s.13,0,.15.04l.43,1.02h1.15c.2,0,.41.14.49.3.1.2.08.38-.03.63h.36c-.1-.18-.14-.37-.06-.56.07-.17.25-.36.47-.36h1.2s.41-.99.41-.99Z"/>
              <path class="l04c-cls-3" d="M547.33,140.68c-.46.37-.46.96-.06,1.35.39.37.95.45,1.48.32.21.11.4.19.67.22-.14-.33-.07-.56.09-.82.22-.38.06-.85-.29-1.11-.33-.27-.76-.34-1.18-.28l-.12-.03s-.01-.17.02-.18c.5-.11,1.12.02,1.51.38s.51.91.24,1.38c-.18.22-.15.55.12.69l.03.11c.05.16-.69.11-1.11-.13-.93.22-1.96-.3-1.97-1.23,0-.63.63-1.04.6-.83l-.02.16Z"/>
              <path class="l04c-cls-3" d="M546.37,142.36l.69.05s.09.03.12.04c.15.1-.2.26-.74.13-.42.23-1.14.28-1.11.15l.03-.13c.27-.14.29-.47.11-.69-.29-.5-.14-1.11.34-1.46.64-.47,1.56-.46,2.17.05.55.46.57,1.22.05,1.7-.03.03-.13.06-.17.03-.05-.02-.04-.16,0-.2.41-.36.42-.93.02-1.31-.52-.49-1.37-.52-1.94-.09-.37.28-.52.75-.28,1.14.15.25.21.5.06.78.23-.01.43-.08.65-.2Z"/>
              <path class="l04c-cls-3" d="M550.77,145.42h-.85c-.39,0-.79.28-.83.69-.05.47.05.82-.1.93-.04.02-.14-.06-.14-.11v-.67c0-.54.4-1.02.96-1.05.3-.02.61-.01.92-.01.58,0,1.07.43,1.1,1.01v1.98s-.08.12-.08.12c-.02.03-.12-.05-.14-.09v-2.05c-.02-.41-.44-.74-.83-.74Z"/>
              <path class="l04c-cls-3" d="M545.22,145.41h-.83c-.43,0-.77.33-.83.74v2.02s-.07.11-.11.13-.11-.09-.11-.12v-2.06c.08-.5.49-.91,1.01-.92.34,0,.67-.01,1.01,0,.52.03.94.47.95.98v.74s-.05.11-.09.12-.13-.07-.13-.11l-.02-.8c0-.43-.43-.73-.85-.73Z"/>
              <path class="l04c-cls-3" d="M544.57,142.85c.6-.15,1.15.2,1.29.77.13.52-.21,1.1-.76,1.24s-1.12-.18-1.27-.75c-.14-.52.15-1.12.74-1.27ZM544.58,143.08c-.46.15-.65.64-.51,1.03.15.44.61.66,1.03.52s.66-.6.54-1.01c-.14-.44-.58-.7-1.05-.55Z"/>
              <path class="l04c-cls-3" d="M550.06,142.85c.6-.15,1.15.21,1.28.78.12.54-.21,1.1-.76,1.24s-1.11-.18-1.27-.75c-.15-.53.16-1.13.75-1.27ZM550.06,143.08c-.46.15-.66.64-.52,1.03.15.43.61.66,1.03.52s.65-.59.53-1c-.13-.44-.58-.71-1.04-.56Z"/>
              <path class="l04c-cls-3" d="M547.42,143.15c.52-.09.97.25,1.05.71.09.5-.22.97-.72,1.05-.47.08-.94-.21-1.04-.7-.1-.46.19-.97.71-1.07ZM547.43,143.38c-.4.1-.59.5-.49.84s.47.56.81.47c.37-.09.59-.46.5-.83-.08-.34-.43-.58-.82-.49Z"/>
              <path class="l04c-cls-3" d="M547.98,145.38h-.77c-.47,0-.57.42-.72.47-.04.01-.11-.1-.1-.14.09-.29.44-.55.78-.55h.75c.36,0,.68.19.85.5,0,.04-.01.11-.02.14s-.16.02-.17-.02c-.08-.19-.33-.4-.59-.4Z"/>
            </g>
          </g>
        </g>
        <g id="L01_sala_003-2" data-name="L01_sala_003">
          <g>
            <path class="l04c-cls-3" d="M640.85,151.81l-4.63-5.07c-1.18-1.29-1.78-2.96-1.7-4.7.08-1.74.83-3.35,2.12-4.52,1.29-1.18,2.96-1.78,4.7-1.7,1.74.08,3.35.83,4.52,2.12,1.24,1.35,1.87,3.11,1.79,4.94-.08,1.83-.88,3.52-2.23,4.76h0s-4.57,4.17-4.57,4.17ZM641.04,136.23c-1.47,0-2.95.53-4.12,1.59-2.49,2.27-2.67,6.15-.4,8.64l4.35,4.77,4.27-3.89.14.15-.14-.15c2.63-2.4,2.81-6.49.42-9.11-1.2-1.32-2.86-1.99-4.52-1.99Z"/>
            <g>
              <path class="l04c-cls-3" d="M643.35,143.68s.1-.1.13-.09c.05,0,.1.13.08.17l-.48,1.12h-1.31c-.21,0-.32.21-.31.38.01.19.16.34.37.34h1.53c.14,0,.26-.14.31-.26l.71-1.72s.11-.1.15-.09.08.13.06.17l-.78,1.89h.66s.13.05.13.08c0,.04-.05.09-.1.14h-6.64c-.05-.03-.1-.07-.12-.1-.02-.04.09-.12.14-.12h.62s-.79-1.88-.79-1.88c0-.05.02-.14.06-.17s.13.05.15.09l.72,1.75c.06.13.19.23.34.23h1.49c.23,0,.38-.16.38-.36s-.15-.35-.38-.35h-1.24s-.48-1.12-.48-1.12l.05-.16s.13,0,.15.04l.43,1.02h1.15c.2,0,.41.14.49.3.1.2.08.38-.03.63h.36c-.1-.18-.14-.37-.06-.56.07-.17.25-.36.47-.36h1.2s.41-.99.41-.99Z"/>
              <path class="l04c-cls-3" d="M640.9,138.19c-.46.37-.46.96-.06,1.35.39.37.95.45,1.48.32.21.11.4.19.67.22-.14-.33-.07-.56.09-.82.22-.38.06-.85-.29-1.11-.33-.27-.76-.34-1.18-.28l-.12-.03s-.01-.17.02-.18c.5-.11,1.12.02,1.51.38s.51.91.24,1.38c-.18.22-.15.55.12.69l.03.11c.05.16-.69.11-1.11-.13-.93.22-1.96-.3-1.97-1.23,0-.63.63-1.04.6-.83l-.02.16Z"/>
              <path class="l04c-cls-3" d="M639.95,139.87l.69.05s.09.03.12.04c.15.1-.2.26-.74.13-.42.23-1.14.28-1.11.15l.03-.13c.27-.14.29-.47.11-.69-.29-.5-.14-1.11.34-1.46.64-.47,1.56-.46,2.17.05.55.46.57,1.22.05,1.7-.03.03-.13.06-.17.03-.05-.02-.04-.16,0-.2.41-.36.42-.93.02-1.31-.52-.49-1.37-.52-1.94-.09-.37.28-.52.75-.28,1.14.15.25.21.5.06.78.23-.01.43-.08.65-.2Z"/>
              <path class="l04c-cls-3" d="M644.34,142.93h-.85c-.39,0-.79.28-.83.69-.05.47.05.82-.1.93-.04.02-.14-.06-.14-.11v-.67c0-.54.4-1.02.96-1.05.3-.02.61-.01.92-.01.58,0,1.07.43,1.1,1.01v1.98s-.08.12-.08.12c-.02.03-.12-.05-.14-.09v-2.05c-.02-.41-.44-.74-.83-.74Z"/>
              <path class="l04c-cls-3" d="M638.8,142.93h-.83c-.43,0-.77.33-.83.74v2.02s-.07.11-.11.13-.11-.09-.11-.12v-2.06c.08-.5.49-.91,1.01-.92.34,0,.67-.01,1.01,0,.52.03.94.47.95.98v.74s-.05.11-.09.12-.13-.07-.13-.11l-.02-.8c0-.43-.43-.73-.85-.73Z"/>
              <path class="l04c-cls-3" d="M638.14,140.36c.6-.15,1.15.2,1.29.77.13.52-.21,1.1-.76,1.24s-1.12-.18-1.27-.75c-.14-.52.15-1.12.74-1.27ZM638.15,140.59c-.46.15-.65.64-.51,1.03.15.44.61.66,1.03.52s.66-.6.54-1.01c-.14-.44-.58-.7-1.05-.55Z"/>
              <path class="l04c-cls-3" d="M643.63,140.36c.6-.15,1.15.21,1.28.78.12.54-.21,1.1-.76,1.24s-1.11-.18-1.27-.75c-.15-.53.16-1.13.75-1.27ZM643.64,140.59c-.46.15-.66.64-.52,1.03.15.43.61.66,1.03.52s.65-.59.53-1c-.13-.44-.58-.71-1.04-.56Z"/>
              <path class="l04c-cls-3" d="M640.99,140.67c.52-.09.97.25,1.05.71.09.5-.22.97-.72,1.05-.47.08-.94-.21-1.04-.7-.1-.46.19-.97.71-1.07ZM641,140.89c-.4.1-.59.5-.49.84s.47.56.81.47c.37-.09.59-.46.5-.83-.08-.34-.43-.58-.82-.49Z"/>
              <path class="l04c-cls-3" d="M641.55,142.9h-.77c-.47,0-.57.42-.72.47-.04.01-.11-.1-.1-.14.09-.29.44-.55.78-.55h.75c.36,0,.68.19.85.5,0,.04-.01.11-.02.14s-.16.02-.17-.02c-.08-.19-.33-.4-.59-.4Z"/>
            </g>
          </g>
        </g>
        <g id="L01_sala_009">
          <g>
            <path class="l04c-cls-3" d="M670.37,47.38l-4.63-5.07c-1.18-1.29-1.78-2.96-1.7-4.7.08-1.74.83-3.35,2.12-4.52,1.29-1.18,2.96-1.78,4.7-1.7,1.74.08,3.35.83,4.52,2.12,1.24,1.35,1.87,3.11,1.79,4.94-.08,1.83-.88,3.52-2.23,4.76h0s-4.57,4.17-4.57,4.17ZM670.56,31.8c-1.47,0-2.95.53-4.12,1.59-2.49,2.27-2.67,6.15-.4,8.64l4.35,4.77,4.27-3.89.14.15-.14-.15c2.63-2.4,2.81-6.49.42-9.11-1.2-1.32-2.86-1.99-4.52-1.99Z"/>
            <g>
              <path class="l04c-cls-3" d="M672.88,39.25s.1-.1.13-.09c.05,0,.1.13.08.17l-.48,1.12h-1.31c-.21,0-.32.21-.31.38.01.19.16.34.37.34h1.53c.14,0,.26-.14.31-.26l.71-1.72s.11-.1.15-.09.08.13.06.17l-.78,1.89h.66s.13.05.13.08c0,.04-.05.09-.1.14h-6.64c-.05-.03-.1-.07-.12-.1-.02-.04.09-.12.14-.12h.62s-.79-1.88-.79-1.88c0-.05.02-.14.06-.17s.13.05.15.09l.72,1.75c.06.13.19.23.34.23h1.49c.23,0,.38-.16.38-.36s-.15-.35-.38-.35h-1.24s-.48-1.12-.48-1.12l.05-.16s.13,0,.15.04l.43,1.02h1.15c.2,0,.41.14.49.3.1.2.08.38-.03.63h.36c-.1-.18-.14-.37-.06-.56.07-.17.25-.36.47-.36h1.2s.41-.99.41-.99Z"/>
              <path class="l04c-cls-3" d="M670.43,33.76c-.46.37-.46.96-.06,1.35.39.37.95.45,1.48.32.21.11.4.19.67.22-.14-.33-.07-.56.09-.82.22-.38.06-.85-.29-1.11-.33-.27-.76-.34-1.18-.28l-.12-.03s-.01-.17.02-.18c.5-.11,1.12.02,1.51.38s.51.91.24,1.38c-.18.22-.15.55.12.69l.03.11c.05.16-.69.11-1.11-.13-.93.22-1.96-.3-1.97-1.23,0-.63.63-1.04.6-.83l-.02.16Z"/>
              <path class="l04c-cls-3" d="M669.47,35.44l.69.05s.09.03.12.04c.15.1-.2.26-.74.13-.42.23-1.14.28-1.11.15l.03-.13c.27-.14.29-.47.11-.69-.29-.5-.14-1.11.34-1.46.64-.47,1.56-.46,2.17.05.55.46.57,1.22.05,1.7-.03.03-.13.06-.17.03-.05-.02-.04-.16,0-.2.41-.36.42-.93.02-1.31-.52-.49-1.37-.52-1.94-.09-.37.28-.52.75-.28,1.14.15.25.21.5.06.78.23-.01.43-.08.65-.2Z"/>
              <path class="l04c-cls-3" d="M673.87,38.5h-.85c-.39,0-.79.28-.83.69-.05.47.05.82-.1.93-.04.02-.14-.06-.14-.11v-.67c0-.54.4-1.02.96-1.05.3-.02.61-.01.92-.01.58,0,1.07.43,1.1,1.01v1.98s-.08.12-.08.12c-.02.03-.12-.05-.14-.09v-2.05c-.02-.41-.44-.74-.83-.74Z"/>
              <path class="l04c-cls-3" d="M668.32,38.5h-.83c-.43,0-.77.33-.83.74v2.02s-.07.11-.11.13-.11-.09-.11-.12v-2.06c.08-.5.49-.91,1.01-.92.34,0,.67-.01,1.01,0,.52.03.94.47.95.98v.74s-.05.11-.09.12-.13-.07-.13-.11l-.02-.8c0-.43-.43-.73-.85-.73Z"/>
              <path class="l04c-cls-3" d="M667.67,35.93c.6-.15,1.15.2,1.29.77.13.52-.21,1.1-.76,1.24s-1.12-.18-1.27-.75c-.14-.52.15-1.12.74-1.27ZM667.68,36.16c-.46.15-.65.64-.51,1.03.15.44.61.66,1.03.52s.66-.6.54-1.01c-.14-.44-.58-.7-1.05-.55Z"/>
              <path class="l04c-cls-3" d="M673.15,35.93c.6-.15,1.15.21,1.28.78.12.54-.21,1.1-.76,1.24s-1.11-.18-1.27-.75c-.15-.53.16-1.13.75-1.27ZM673.16,36.16c-.46.15-.66.64-.52,1.03.15.43.61.66,1.03.52s.65-.59.53-1c-.13-.44-.58-.71-1.04-.56Z"/>
              <path class="l04c-cls-3" d="M670.52,36.23c.52-.09.97.25,1.05.71.09.5-.22.97-.72,1.05-.47.08-.94-.21-1.04-.7-.1-.46.19-.97.71-1.07ZM670.52,36.46c-.4.1-.59.5-.49.84s.47.56.81.47c.37-.09.59-.46.5-.83-.08-.34-.43-.58-.82-.49Z"/>
              <path class="l04c-cls-3" d="M671.08,38.46h-.77c-.47,0-.57.42-.72.47-.04.01-.11-.1-.1-.14.09-.29.44-.55.78-.55h.75c.36,0,.68.19.85.5,0,.04-.01.11-.02.14s-.16.02-.17-.02c-.08-.19-.33-.4-.59-.4Z"/>
            </g>
          </g>
        </g>
        <g id="L01_sala_008">
          <g>
            <path class="l04c-cls-3" d="M611.02,47.38l-4.63-5.07c-1.18-1.29-1.78-2.96-1.7-4.7.08-1.74.83-3.35,2.12-4.52,1.29-1.18,2.96-1.78,4.7-1.7,1.74.08,3.35.83,4.52,2.12,1.24,1.35,1.87,3.11,1.79,4.94-.08,1.83-.88,3.52-2.23,4.76h0s-4.57,4.17-4.57,4.17ZM611.21,31.8c-1.47,0-2.95.53-4.12,1.59-2.49,2.27-2.67,6.15-.4,8.64l4.35,4.77,4.27-3.89.14.15-.14-.15c2.63-2.4,2.81-6.49.42-9.11-1.2-1.32-2.86-1.99-4.52-1.99Z"/>
            <g>
              <path class="l04c-cls-3" d="M613.52,39.25s.1-.1.13-.09c.05,0,.1.13.08.17l-.48,1.12h-1.31c-.21,0-.32.21-.31.38.01.19.16.34.37.34h1.53c.14,0,.26-.14.31-.26l.71-1.72s.11-.1.15-.09.08.13.06.17l-.78,1.89h.66s.13.05.13.08c0,.04-.05.09-.1.14h-6.64c-.05-.03-.1-.07-.12-.1-.02-.04.09-.12.14-.12h.62s-.79-1.88-.79-1.88c0-.05.02-.14.06-.17s.13.05.15.09l.72,1.75c.06.13.19.23.34.23h1.49c.23,0,.38-.16.38-.36s-.15-.35-.38-.35h-1.24s-.48-1.12-.48-1.12l.05-.16s.13,0,.15.04l.43,1.02h1.15c.2,0,.41.14.49.3.1.2.08.38-.03.63h.36c-.1-.18-.14-.37-.06-.56.07-.17.25-.36.47-.36h1.2s.41-.99.41-.99Z"/>
              <path class="l04c-cls-3" d="M611.07,33.76c-.46.37-.46.96-.06,1.35.39.37.95.45,1.48.32.21.11.4.19.67.22-.14-.33-.07-.56.09-.82.22-.38.06-.85-.29-1.11-.33-.27-.76-.34-1.18-.28l-.12-.03s-.01-.17.02-.18c.5-.11,1.12.02,1.51.38s.51.91.24,1.38c-.18.22-.15.55.12.69l.03.11c.05.16-.69.11-1.11-.13-.93.22-1.96-.3-1.97-1.23,0-.63.63-1.04.6-.83l-.02.16Z"/>
              <path class="l04c-cls-3" d="M610.12,35.44l.69.05s.09.03.12.04c.15.1-.2.26-.74.13-.42.23-1.14.28-1.11.15l.03-.13c.27-.14.29-.47.11-.69-.29-.5-.14-1.11.34-1.46.64-.47,1.56-.46,2.17.05.55.46.57,1.22.05,1.7-.03.03-.13.06-.17.03-.05-.02-.04-.16,0-.2.41-.36.42-.93.02-1.31-.52-.49-1.37-.52-1.94-.09-.37.28-.52.75-.28,1.14.15.25.21.5.06.78.23-.01.43-.08.65-.2Z"/>
              <path class="l04c-cls-3" d="M614.51,38.5h-.85c-.39,0-.79.28-.83.69-.05.47.05.82-.1.93-.04.02-.14-.06-.14-.11v-.67c0-.54.4-1.02.96-1.05.3-.02.61-.01.92-.01.58,0,1.07.43,1.1,1.01v1.98s-.08.12-.08.12c-.02.03-.12-.05-.14-.09v-2.05c-.02-.41-.44-.74-.83-.74Z"/>
              <path class="l04c-cls-3" d="M608.97,38.5h-.83c-.43,0-.77.33-.83.74v2.02s-.07.11-.11.13-.11-.09-.11-.12v-2.06c.08-.5.49-.91,1.01-.92.34,0,.67-.01,1.01,0,.52.03.94.47.95.98v.74s-.05.11-.09.12-.13-.07-.13-.11l-.02-.8c0-.43-.43-.73-.85-.73Z"/>
              <path class="l04c-cls-3" d="M608.31,35.93c.6-.15,1.15.2,1.29.77.13.52-.21,1.1-.76,1.24s-1.12-.18-1.27-.75c-.14-.52.15-1.12.74-1.27ZM608.32,36.16c-.46.15-.65.64-.51,1.03.15.44.61.66,1.03.52s.66-.6.54-1.01c-.14-.44-.58-.7-1.05-.55Z"/>
              <path class="l04c-cls-3" d="M613.8,35.93c.6-.15,1.15.21,1.28.78.12.54-.21,1.1-.76,1.24s-1.11-.18-1.27-.75c-.15-.53.16-1.13.75-1.27ZM613.81,36.16c-.46.15-.66.64-.52,1.03.15.43.61.66,1.03.52s.65-.59.53-1c-.13-.44-.58-.71-1.04-.56Z"/>
              <path class="l04c-cls-3" d="M611.16,36.23c.52-.09.97.25,1.05.71.09.5-.22.97-.72,1.05-.47.08-.94-.21-1.04-.7-.1-.46.19-.97.71-1.07ZM611.17,36.46c-.4.1-.59.5-.49.84s.47.56.81.47c.37-.09.59-.46.5-.83-.08-.34-.43-.58-.82-.49Z"/>
              <path class="l04c-cls-3" d="M611.72,38.46h-.77c-.47,0-.57.42-.72.47-.04.01-.11-.1-.1-.14.09-.29.44-.55.78-.55h.75c.36,0,.68.19.85.5,0,.04-.01.11-.02.14s-.16.02-.17-.02c-.08-.19-.33-.4-.59-.4Z"/>
            </g>
          </g>
        </g>
        <g id="L01_sala_005">
          <g>
            <path class="l04c-cls-3" d="M477.65,153.44l-4.63-5.07c-1.18-1.29-1.78-2.96-1.7-4.7.08-1.74.83-3.35,2.12-4.52,1.29-1.18,2.96-1.78,4.7-1.7,1.74.08,3.35.83,4.52,2.12,1.24,1.35,1.87,3.11,1.79,4.94-.08,1.83-.88,3.52-2.23,4.76h0s-4.57,4.17-4.57,4.17ZM477.84,137.86c-1.47,0-2.95.53-4.12,1.59-2.49,2.27-2.67,6.15-.4,8.64l4.35,4.77,4.27-3.89.14.15-.14-.15c2.63-2.4,2.81-6.49.42-9.11-1.2-1.32-2.86-1.99-4.52-1.99Z"/>
            <g>
              <path class="l04c-cls-3" d="M480.15,145.31s.1-.1.13-.09c.05,0,.1.13.08.17l-.48,1.12h-1.31c-.21,0-.32.21-.31.38.01.19.16.34.37.34h1.53c.14,0,.26-.14.31-.26l.71-1.72s.11-.1.15-.09.08.13.06.17l-.78,1.89h.66s.13.05.13.08c0,.04-.05.09-.1.14h-6.64c-.05-.03-.1-.07-.12-.1-.02-.04.09-.12.14-.12h.62s-.79-1.88-.79-1.88c0-.05.02-.14.06-.17s.13.05.15.09l.72,1.75c.06.13.19.23.34.23h1.49c.23,0,.38-.16.38-.36s-.15-.35-.38-.35h-1.24s-.48-1.12-.48-1.12l.05-.16s.13,0,.15.04l.43,1.02h1.15c.2,0,.41.14.49.3.1.2.08.38-.03.63h.36c-.1-.18-.14-.37-.06-.56.07-.17.25-.36.47-.36h1.2s.41-.99.41-.99Z"/>
              <path class="l04c-cls-3" d="M477.7,139.82c-.46.37-.46.96-.06,1.35.39.37.95.45,1.48.32.21.11.4.19.67.22-.14-.33-.07-.56.09-.82.22-.38.06-.85-.29-1.11-.33-.27-.76-.34-1.18-.28l-.12-.03s-.01-.17.02-.18c.5-.11,1.12.02,1.51.38s.51.91.24,1.38c-.18.22-.15.55.12.69l.03.11c.05.16-.69.11-1.11-.13-.93.22-1.96-.3-1.97-1.23,0-.63.63-1.04.6-.83l-.02.16Z"/>
              <path class="l04c-cls-3" d="M476.75,141.5l.69.05s.09.03.12.04c.15.1-.2.26-.74.13-.42.23-1.14.28-1.11.15l.03-.13c.27-.14.29-.47.11-.69-.29-.5-.14-1.11.34-1.46.64-.47,1.56-.46,2.17.05.55.46.57,1.22.05,1.7-.03.03-.13.06-.17.03-.05-.02-.04-.16,0-.2.41-.36.42-.93.02-1.31-.52-.49-1.37-.52-1.94-.09-.37.28-.52.75-.28,1.14.15.25.21.5.06.78.23-.01.43-.08.65-.2Z"/>
              <path class="l04c-cls-3" d="M481.15,144.56h-.85c-.39,0-.79.28-.83.69-.05.47.05.82-.1.93-.04.02-.14-.06-.14-.11v-.67c0-.54.4-1.02.96-1.05.3-.02.61-.01.92-.01.58,0,1.07.43,1.1,1.01v1.98s-.08.12-.08.12c-.02.03-.12-.05-.14-.09v-2.05c-.02-.41-.44-.74-.83-.74Z"/>
              <path class="l04c-cls-3" d="M475.6,144.55h-.83c-.43,0-.77.33-.83.74v2.02s-.07.11-.11.13-.11-.09-.11-.12v-2.06c.08-.5.49-.91,1.01-.92.34,0,.67-.01,1.01,0,.52.03.94.47.95.98v.74s-.05.11-.09.12-.13-.07-.13-.11l-.02-.8c0-.43-.43-.73-.85-.73Z"/>
              <path class="l04c-cls-3" d="M474.94,141.99c.6-.15,1.15.2,1.29.77.13.52-.21,1.1-.76,1.24s-1.12-.18-1.27-.75c-.14-.52.15-1.12.74-1.27ZM474.95,142.22c-.46.15-.65.64-.51,1.03.15.44.61.66,1.03.52s.66-.6.54-1.01c-.14-.44-.58-.7-1.05-.55Z"/>
              <path class="l04c-cls-3" d="M480.43,141.99c.6-.15,1.15.21,1.28.78.12.54-.21,1.1-.76,1.24s-1.11-.18-1.27-.75c-.15-.53.16-1.13.75-1.27ZM480.44,142.22c-.46.15-.66.64-.52,1.03.15.43.61.66,1.03.52s.65-.59.53-1c-.13-.44-.58-.71-1.04-.56Z"/>
              <path class="l04c-cls-3" d="M477.8,142.29c.52-.09.97.25,1.05.71.09.5-.22.97-.72,1.05-.47.08-.94-.21-1.04-.7-.1-.46.19-.97.71-1.07ZM477.8,142.52c-.4.1-.59.5-.49.84s.47.56.81.47c.37-.09.59-.46.5-.83-.08-.34-.43-.58-.82-.49Z"/>
              <path class="l04c-cls-3" d="M478.35,144.52h-.77c-.47,0-.57.42-.72.47-.04.01-.11-.1-.1-.14.09-.29.44-.55.78-.55h.75c.36,0,.68.19.85.5,0,.04-.01.11-.02.14s-.16.02-.17-.02c-.08-.19-.33-.4-.59-.4Z"/>
            </g>
          </g>
        </g>
        <g id="L01_sala_007">
          <g>
            <path class="l04c-cls-3" d="M543.78,46.92l-4.63-5.07c-1.18-1.29-1.78-2.96-1.7-4.7.08-1.74.83-3.35,2.12-4.52,1.29-1.18,2.96-1.78,4.7-1.7,1.74.08,3.35.83,4.52,2.12,1.24,1.35,1.87,3.11,1.79,4.94-.08,1.83-.88,3.52-2.23,4.76h0s-4.57,4.17-4.57,4.17ZM543.98,31.34c-1.47,0-2.95.53-4.12,1.59-2.49,2.27-2.67,6.15-.4,8.64l4.35,4.77,4.27-3.89.14.15-.14-.15c2.63-2.4,2.81-6.49.42-9.11-1.2-1.32-2.86-1.99-4.52-1.99Z"/>
            <g>
              <path class="l04c-cls-3" d="M546.29,38.79s.1-.1.13-.09c.05,0,.1.13.08.17l-.48,1.12h-1.31c-.21,0-.32.21-.31.38.01.19.16.34.37.34h1.53c.14,0,.26-.14.31-.26l.71-1.72s.11-.1.15-.09.08.13.06.17l-.78,1.89h.66s.13.05.13.08c0,.04-.05.09-.1.14h-6.64c-.05-.03-.1-.07-.12-.1-.02-.04.09-.12.14-.12h.62s-.79-1.88-.79-1.88c0-.05.02-.14.06-.17s.13.05.15.09l.72,1.75c.06.13.19.23.34.23h1.49c.23,0,.38-.16.38-.36s-.15-.35-.38-.35h-1.24s-.48-1.12-.48-1.12l.05-.16s.13,0,.15.04l.43,1.02h1.15c.2,0,.41.14.49.3.1.2.08.38-.03.63h.36c-.1-.18-.14-.37-.06-.56.07-.17.25-.36.47-.36h1.2s.41-.99.41-.99Z"/>
              <path class="l04c-cls-3" d="M543.84,33.3c-.46.37-.46.96-.06,1.35.39.37.95.45,1.48.32.21.11.4.19.67.22-.14-.33-.07-.56.09-.82.22-.38.06-.85-.29-1.11-.33-.27-.76-.34-1.18-.28l-.12-.03s-.01-.17.02-.18c.5-.11,1.12.02,1.51.38s.51.91.24,1.38c-.18.22-.15.55.12.69l.03.11c.05.16-.69.11-1.11-.13-.93.22-1.96-.3-1.97-1.23,0-.63.63-1.04.6-.83l-.02.16Z"/>
              <path class="l04c-cls-3" d="M542.88,34.98l.69.05s.09.03.12.04c.15.1-.2.26-.74.13-.42.23-1.14.28-1.11.15l.03-.13c.27-.14.29-.47.11-.69-.29-.5-.14-1.11.34-1.46.64-.47,1.56-.46,2.17.05.55.46.57,1.22.05,1.7-.03.03-.13.06-.17.03-.05-.02-.04-.16,0-.2.41-.36.42-.93.02-1.31-.52-.49-1.37-.52-1.94-.09-.37.28-.52.75-.28,1.14.15.25.21.5.06.78.23-.01.43-.08.65-.2Z"/>
              <path class="l04c-cls-3" d="M547.28,38.04h-.85c-.39,0-.79.28-.83.69-.05.47.05.82-.1.93-.04.02-.14-.06-.14-.11v-.67c0-.54.4-1.02.96-1.05.3-.02.61-.01.92-.01.58,0,1.07.43,1.1,1.01v1.98s-.08.12-.08.12c-.02.03-.12-.05-.14-.09v-2.05c-.02-.41-.44-.74-.83-.74Z"/>
              <path class="l04c-cls-3" d="M541.73,38.03h-.83c-.43,0-.77.33-.83.74v2.02s-.07.11-.11.13-.11-.09-.11-.12v-2.06c.08-.5.49-.91,1.01-.92.34,0,.67-.01,1.01,0,.52.03.94.47.95.98v.74s-.05.11-.09.12-.13-.07-.13-.11l-.02-.8c0-.43-.43-.73-.85-.73Z"/>
              <path class="l04c-cls-3" d="M541.08,35.47c.6-.15,1.15.2,1.29.77.13.52-.21,1.1-.76,1.24s-1.12-.18-1.27-.75c-.14-.52.15-1.12.74-1.27ZM541.09,35.7c-.46.15-.65.64-.51,1.03.15.44.61.66,1.03.52s.66-.6.54-1.01c-.14-.44-.58-.7-1.05-.55Z"/>
              <path class="l04c-cls-3" d="M546.57,35.47c.6-.15,1.15.21,1.28.78.12.54-.21,1.1-.76,1.24s-1.11-.18-1.27-.75c-.15-.53.16-1.13.75-1.27ZM546.57,35.7c-.46.15-.66.64-.52,1.03.15.43.61.66,1.03.52s.65-.59.53-1c-.13-.44-.58-.71-1.04-.56Z"/>
              <path class="l04c-cls-3" d="M543.93,35.77c.52-.09.97.25,1.05.71.09.5-.22.97-.72,1.05-.47.08-.94-.21-1.04-.7-.1-.46.19-.97.71-1.07ZM543.94,36c-.4.1-.59.5-.49.84s.47.56.81.47c.37-.09.59-.46.5-.83-.08-.34-.43-.58-.82-.49Z"/>
              <path class="l04c-cls-3" d="M544.49,38h-.77c-.47,0-.57.42-.72.47-.04.01-.11-.1-.1-.14.09-.29.44-.55.78-.55h.75c.36,0,.68.19.85.5,0,.04-.01.11-.02.14s-.16.02-.17-.02c-.08-.19-.33-.4-.59-.4Z"/>
            </g>
          </g>
        </g>
        <g id="L01_sala_006">
          <g>
            <path class="l04c-cls-3" d="M480.86,46.84l-4.63-5.07c-1.18-1.29-1.78-2.96-1.7-4.7.08-1.74.83-3.35,2.12-4.52,1.29-1.18,2.96-1.78,4.7-1.7,1.74.08,3.35.83,4.52,2.12,1.24,1.35,1.87,3.11,1.79,4.94-.08,1.83-.88,3.52-2.23,4.76h0s-4.57,4.17-4.57,4.17ZM481.06,31.25c-1.47,0-2.95.53-4.12,1.59-2.49,2.27-2.67,6.15-.4,8.64l4.35,4.77,4.27-3.89.14.15-.14-.15c2.63-2.4,2.81-6.49.42-9.11-1.2-1.32-2.86-1.99-4.52-1.99Z"/>
            <g>
              <path class="l04c-cls-3" d="M483.37,38.7s.1-.1.13-.09c.05,0,.1.13.08.17l-.48,1.12h-1.31c-.21,0-.32.21-.31.38.01.19.16.34.37.34h1.53c.14,0,.26-.14.31-.26l.71-1.72s.11-.1.15-.09.08.13.06.17l-.78,1.89h.66s.13.05.13.08c0,.04-.05.09-.1.14h-6.64c-.05-.03-.1-.07-.12-.1-.02-.04.09-.12.14-.12h.62s-.79-1.88-.79-1.88c0-.05.02-.14.06-.17s.13.05.15.09l.72,1.75c.06.13.19.23.34.23h1.49c.23,0,.38-.16.38-.36s-.15-.35-.38-.35h-1.24s-.48-1.12-.48-1.12l.05-.16s.13,0,.15.04l.43,1.02h1.15c.2,0,.41.14.49.3.1.2.08.38-.03.63h.36c-.1-.18-.14-.37-.06-.56.07-.17.25-.36.47-.36h1.2s.41-.99.41-.99Z"/>
              <path class="l04c-cls-3" d="M480.92,33.21c-.46.37-.46.96-.06,1.35.39.37.95.45,1.48.32.21.11.4.19.67.22-.14-.33-.07-.56.09-.82.22-.38.06-.85-.29-1.11-.33-.27-.76-.34-1.18-.28l-.12-.03s-.01-.17.02-.18c.5-.11,1.12.02,1.51.38s.51.91.24,1.38c-.18.22-.15.55.12.69l.03.11c.05.16-.69.11-1.11-.13-.93.22-1.96-.3-1.97-1.23,0-.63.63-1.04.6-.83l-.02.16Z"/>
              <path class="l04c-cls-3" d="M479.96,34.89l.69.05s.09.03.12.04c.15.1-.2.26-.74.13-.42.23-1.14.28-1.11.15l.03-.13c.27-.14.29-.47.11-.69-.29-.5-.14-1.11.34-1.46.64-.47,1.56-.46,2.17.05.55.46.57,1.22.05,1.7-.03.03-.13.06-.17.03-.05-.02-.04-.16,0-.2.41-.36.42-.93.02-1.31-.52-.49-1.37-.52-1.94-.09-.37.28-.52.75-.28,1.14.15.25.21.5.06.78.23-.01.43-.08.65-.2Z"/>
              <path class="l04c-cls-3" d="M484.36,37.95h-.85c-.39,0-.79.28-.83.69-.05.47.05.82-.1.93-.04.02-.14-.06-.14-.11v-.67c0-.54.4-1.02.96-1.05.3-.02.61-.01.92-.01.58,0,1.07.43,1.1,1.01v1.98s-.08.12-.08.12c-.02.03-.12-.05-.14-.09v-2.05c-.02-.41-.44-.74-.83-.74Z"/>
              <path class="l04c-cls-3" d="M478.81,37.95h-.83c-.43,0-.77.33-.83.74v2.02s-.07.11-.11.13-.11-.09-.11-.12v-2.06c.08-.5.49-.91,1.01-.92.34,0,.67-.01,1.01,0,.52.03.94.47.95.98v.74s-.05.11-.09.12-.13-.07-.13-.11l-.02-.8c0-.43-.43-.73-.85-.73Z"/>
              <path class="l04c-cls-3" d="M478.16,35.38c.6-.15,1.15.2,1.29.77.13.52-.21,1.1-.76,1.24s-1.12-.18-1.27-.75c-.14-.52.15-1.12.74-1.27ZM478.17,35.61c-.46.15-.65.64-.51,1.03.15.44.61.66,1.03.52s.66-.6.54-1.01c-.14-.44-.58-.7-1.05-.55Z"/>
              <path class="l04c-cls-3" d="M483.65,35.38c.6-.15,1.15.21,1.28.78.12.54-.21,1.1-.76,1.24s-1.11-.18-1.27-.75c-.15-.53.16-1.13.75-1.27ZM483.65,35.61c-.46.15-.66.64-.52,1.03.15.43.61.66,1.03.52s.65-.59.53-1c-.13-.44-.58-.71-1.04-.56Z"/>
              <path class="l04c-cls-3" d="M481.01,35.69c.52-.09.97.25,1.05.71.09.5-.22.97-.72,1.05-.47.08-.94-.21-1.04-.7-.1-.46.19-.97.71-1.07ZM481.02,35.92c-.4.1-.59.5-.49.84s.47.56.81.47c.37-.09.59-.46.5-.83-.08-.34-.43-.58-.82-.49Z"/>
              <path class="l04c-cls-3" d="M481.57,37.92h-.77c-.47,0-.57.42-.72.47-.04.01-.11-.1-.1-.14.09-.29.44-.55.78-.55h.75c.36,0,.68.19.85.5,0,.04-.01.11-.02.14s-.16.02-.17-.02c-.08-.19-.33-.4-.59-.4Z"/>
            </g>
          </g>
        </g>
        <g id="L01_sala_005_p023_l02_banheiro_feminino">
          <path class="l04c-cls-4" d="M243.74,25.08h-4.52c-.41,0-.74.33-.74.74v14.52c0,.41.33.74.74.74h4.52c1.51,0,2.74-1.23,2.74-2.74v-10.53c0-1.51-1.23-2.74-2.74-2.74ZM242.25,26.34c.98,0,1.77.78,1.77,1.75,0,.97-.78,1.75-1.75,1.76-.97,0-1.76-.78-1.77-1.75,0-.96.78-1.76,1.75-1.77ZM244.23,36.53h-.03c-.05,0-.1,0-.17,0v.17c0,.48,0,.96,0,1.44,0,.93-.75,1.68-1.68,1.68h-.16c-.93,0-1.68-.75-1.68-1.68,0-.48,0-.96,0-1.43v-.18h-.16c-.98,0-1.58-.77-1.34-1.72s.5-1.98.76-2.97c.24-.92,1.07-1.57,2.02-1.57.32,0,.65,0,.97,0,.94,0,1.77.65,2,1.56.26,1.01.52,2.02.77,3.03.23.92-.35,1.67-1.3,1.67Z"/>
        </g>
        <path id="P024__L02_banheiro_masculino" class="l04c-cls-4" d="M177.73,38.64h-2.51c-1.76,0-3.18,1.42-3.18,3.18v9.64c0,1.76,1.42,3.18,3.18,3.18h2.51c.65,0,1.18-.53,1.18-1.18v-13.63c0-.65-.53-1.18-1.18-1.18ZM175.15,39.9c.97,0,1.75.79,1.74,1.76,0,.97-.79,1.75-1.76,1.75-.98,0-1.76-.79-1.75-1.77,0-.97.79-1.75,1.77-1.74ZM176.9,49.05v.18c0,1.08,0,2.17,0,3.25,0,.45-.26.79-.68.88-.08.02-.16.02-.24.02-.16,0-.33,0-.49,0-1.16,0-2.1-.94-2.1-2.1,0-.69,0-1.37,0-2.06v-.17c-.09-.01-.16-.02-.24-.04-.24-.06-.42-.28-.42-.53,0-.75,0-1.5,0-2.25,0-1.33,1.09-2.41,2.42-2.41h0c1.33,0,2.42,1.08,2.42,2.41,0,.75,0,1.5,0,2.25,0,.32-.23.52-.66.56Z"/>
        <g id="P023_L02_banheiro_feminino">
          <path class="l04c-cls-4" d="M176.17,75.9h-4.52c-.41,0-.74.33-.74.74v14.52c0,.41.33.74.74.74h4.52c1.51,0,2.74-1.23,2.74-2.74v-10.53c0-1.51-1.23-2.74-2.74-2.74ZM174.69,77.16c.98,0,1.77.78,1.77,1.75,0,.97-.78,1.75-1.75,1.76-.97,0-1.76-.78-1.77-1.75,0-.96.78-1.76,1.75-1.77ZM176.67,87.35h-.03c-.05,0-.1,0-.17,0v.17c0,.48,0,.96,0,1.44,0,.93-.75,1.68-1.68,1.68h-.16c-.93,0-1.68-.75-1.68-1.68,0-.48,0-.96,0-1.43v-.18h-.16c-.98,0-1.58-.77-1.34-1.72s.5-1.98.76-2.97c.24-.92,1.07-1.57,2.02-1.57.32,0,.65,0,.97,0,.94,0,1.77.65,2,1.56.26,1.01.52,2.02.77,3.03.23.92-.35,1.67-1.3,1.67Z"/>
        </g>
        <path id="P024_L02_banheiro_masculino" class="l04c-cls-4" d="M168.98,75.9h-2.51c-1.76,0-3.18,1.42-3.18,3.18v9.64c0,1.76,1.42,3.18,3.18,3.18h2.51c.65,0,1.18-.53,1.18-1.18v-13.63c0-.65-.53-1.18-1.18-1.18ZM166.41,77.16c.97,0,1.75.79,1.74,1.76,0,.97-.79,1.75-1.76,1.75-.98,0-1.76-.79-1.75-1.77,0-.97.79-1.75,1.77-1.74ZM168.16,86.31v.18c0,1.08,0,2.17,0,3.25,0,.45-.26.79-.68.88-.08.02-.16.02-.24.02-.16,0-.33,0-.49,0-1.16,0-2.1-.94-2.1-2.1,0-.69,0-1.37,0-2.06v-.17c-.09-.01-.16-.02-.24-.04-.24-.06-.42-.28-.42-.53,0-.75,0-1.5,0-2.25,0-1.33,1.09-2.41,2.42-2.41h0c1.33,0,2.42,1.08,2.42,2.41,0,.75,0,1.5,0,2.25,0,.32-.23.52-.66.56Z"/>
    </g>
    <g id="L04_POI" data-layer="2026_mapa_L04_poi.svg" style="display:none" visibility="hidden" aria-hidden="true" pointer-events="none">
      <rect id="L04_poi_0016" class="l04p-cls-1" x="60" y="96" width="44" height="44"/>
        <rect id="L04_poi_0017_espaco_brincar" class="l04p-cls-1" x="580.02" y="131.7" width="113.57" height="63.27"/>
        <polygon id="L04_poi_0012" class="l04p-cls-1" points="175.26 197.37 14.43 197.37 14.43 24.72 149.69 24.72 149.69 102.15 175.26 102.15 175.26 121.27 150.87 120.81 150.87 139.83 175.26 139.83 175.26 197.37"/>
        <rect id="L04_poi_0015" class="l04p-cls-1" x="447.72" y="130.18" width="65.4" height="63.11"/>
        <rect id="L04_poi_0005" class="l04p-cls-1" x="392.35" y="9.91" width="51.63" height="83.66"/>
        <rect id="L04_poi_0014" class="l04p-cls-1" x="266.67" y="146.45" width="114.13" height="49.79"/>
        <rect id="L04_poi_0003" class="l04p-cls-1" x="261.02" y="11.09" width="28.2" height="80.87"/>
        <rect id="L04_poi_0004" class="l04p-cls-1" x="299.88" y="14.98" width="62.22" height="77.67"/>
        <rect id="L04_poi_0013" class="l04p-cls-1" x="225.59" y="136.77" width="29.25" height="60.61"/>
        <rect id="L04_poi_0010" class="l04p-cls-1" x="235.98" y="56.12" width="13.88" height="35.84"/>
        <rect id="L04_poi_0002" class="l04p-cls-1" x="196.28" y="21.98" width="53.59" height="27.32"/>
        <rect id="L04_poi_0006" class="l04p-cls-1" x="457.33" y="26.56" width="47.54" height="62.09"/>
        <rect id="L04_poi_0007" class="l04p-cls-1" x="517.73" y="26.56" width="52.53" height="62.09"/>
        <rect id="L04_poi_0008" class="l04p-cls-1" x="582.14" y="26.56" width="55.48" height="62.09"/>
        <rect id="L04_poi_0009" class="l04p-cls-1" x="645.91" y="26.56" width="49.4" height="62.09"/>
        <rect id="L04_poi_0001" class="l04p-cls-1" x="163.57" y="21.98" width="24.91" height="46.29"/>
        <rect id="L04_poi_0011" class="l04p-cls-1" x="162.45" y="77.16" width="33.06" height="16.1"/>
    </g>
    <g id="L04_NODES" data-layer="2026_mapa_L04_node.svg" style="display:none" visibility="hidden" aria-hidden="true" pointer-events="none">
      <circle id="L04_node_0013_entrada_corredor_e" class="l04n-cls-1" cx="244.49" cy="111" r="1"/>
        <circle id="L04_node_0014_hall_corredor_c" class="l04n-cls-1" cx="330.75" cy="110.56" r="1"/>
        <circle id="L04_node_0015_entrada_corredor_d" class="l04n-cls-1" cx="392.76" cy="111" r="1"/>
        <circle id="L04_node_0016_entrada_corredor_d" class="l04n-cls-1" cx="533.62" cy="111" r="1"/>
        <circle id="L04_node_0017_entrada_corredor_d" class="l04n-cls-1" cx="551.9" cy="111.04" r="1"/>
        <circle id="L04_node_0018_entrada_corredor_d" class="l04n-cls-1" cx="567.48" cy="111.04" r="1"/>
        <circle id="L04_node_0019_entrada_corredor_d" class="l04n-cls-1" cx="691.59" cy="110.5" r="1"/>
        <circle id="L04_node_0020_entrada_espaco_brincar" class="l04n-cls-1" cx="691.59" cy="126.72" r="1"/>
        <circle id="L04_node_0010_entrada_corredor_d" class="l04n-cls-1" cx="691.59" cy="96.66" r="1"/>
        <circle id="L04_node_0009_entrada_corredor_d" class="l04n-cls-1" cx="567.48" cy="96.79" r="1"/>
        <circle id="L04_node_0008_entrada_corredor_d" class="l04n-cls-1" cx="533.62" cy="96.18" r="1"/>
        <circle id="L04_node_0004_escada_emergen" class="l04n-cls-1" cx="369.49" cy="74.98" r="1"/>
        <circle id="L04_node_0024_escada_lateral" class="l04n-cls-1" cx="392.76" cy="140.02" r="1"/>
        <circle id="L04_node_0002_hall_principal" class="l04n-cls-1" cx="331.39" cy="51.03" r="1"/>
        <circle id="L04_node_0001_elevador" class="l04n-cls-1" cx="292.41" cy="51.02" r="1"/>
        <circle id="L04_node_0005" class="l04n-cls-1" cx="239.22" cy="97.16" r="1"/>
        <circle id="L04_node_0012" class="l04n-cls-1" cx="226.97" cy="111" r="1"/>
        <circle id="L04_node_0011" class="l04n-cls-1" cx="156.19" cy="112" r="1"/>
        <circle id="L04_node_0021" class="l04n-cls-1" cx="223.55" cy="130.07" r="1"/>
        <circle id="L04_node_0020" class="l04n-cls-1" cx="203.92" cy="130.51" r="1"/>
        <circle id="L04_node_0003" class="l04n-cls-1" cx="208.04" cy="62.05" r="1"/>
        <circle id="L04_node_0023_auditorio_l01" class="l04n-cls-1" cx="82" cy="118" r="1"/>
        <circle id="L04_node_0006_entrada_corredor_d" class="l04n-cls-1" cx="466.37" cy="96.88" r="1"/>
        <circle id="L04_node_0007_entrada_corredor_d" class="l04n-cls-1" cx="500" cy="96.79" r="1"/>
        <circle id="L04_node_0022_entrada_corredor_d" class="l04n-cls-1" cx="496.82" cy="124.86" r="1"/>
    </g>
    <g id="L04_EDGES" data-layer="2026_mapa_L04_edge.svg" style="display:none" visibility="hidden" aria-hidden="true" pointer-events="none">
      <line id="L04_edge_0024_node_0013_node_0014" class="l04e-cls-1" x1="245.49" y1="111" x2="329.75" y2="110.56"/>
        <line id="L04_edge_0023_node_0014_node_0002" class="l04e-cls-1" x1="330.75" y1="109.56" x2="331.39" y2="52.03"/>
        <line id="L04_edge_0022_node_0002_node_0001" class="l04e-cls-1" x1="329.94" y1="50.88" x2="294.2" y2="50.65"/>
        <path id="L04_edge_0021_node_0002_node_0004" class="l04e-cls-1" d="M332.39,51.03c13.82.16,24.58,8.37,24.65,22.19v1.76h11.17"/>
        <line id="L04_edge_0020_node_0015_node_0014" class="l04e-cls-1" x1="391.76" y1="110.87" x2="331.75" y2="110.56"/>
        <line id="L04_edge_0019_node_0015_node_0024" class="l04e-cls-1" x1="392.76" y1="112" x2="392.85" y2="139.02"/>
        <line id="L04_edge_0018_node_0015_node_0016" class="l04e-cls-1" x1="393.76" y1="110.87" x2="532.62" y2="111.01"/>
        <polyline id="L04_edge_0017_node_0021_node_0013" class="l04e-cls-1" points="223.55 129.07 223.55 117.86 241.06 117.86 244.49 112"/>
        <line id="L04_edge_0016_node_0013_node_0012" class="l04e-cls-1" x1="243.26" y1="111" x2="227.97" y2="110.56"/>
        <polyline id="L04_edge_0015_node_0013_node_0005" class="l04e-cls-1" points="244.49 110 244.49 102.29 239.55 98.1"/>
        <polyline id="L04_edge_0014_node_0003_node_0012" class="l04e-cls-1" points="208.04 63.05 215.61 102.46 226.24 110"/>
        <line id="L04_edge_0013_node_0016_node_0008" class="l04e-cls-1" x1="533.62" y1="110" x2="533.45" y2="97.16"/>
        <line id="L04_edge_0012_node_0016_node_0017" class="l04e-cls-1" x1="534.62" y1="111" x2="550.9" y2="111.04"/>
        <polyline id="L04_edge_0011_node_0017_node_0022" class="l04e-cls-1" points="551.55 111.97 551.55 120.06 496.82 119.41 496.82 123.88"/>
        <line id="L04_edge_0010_node_0017_node_0018" class="l04e-cls-1" x1="552.9" y1="111.04" x2="566.48" y2="111.04"/>
        <line id="L04_edge_0009_node_0011_node_0023" class="l04e-cls-1" x1="156.19" y1="112" x2="82" y2="118"/>
        <line id="L04_edge_0008_node_0018_node_0019" class="l04e-cls-1" x1="568.48" y1="111.04" x2="690.59" y2="110.5"/>
        <line id="L04_edge_0007_node_0019_node_0010" class="l04e-cls-1" x1="691.59" y1="109.5" x2="691.59" y2="97.66"/>
        <polyline id="L04_edge_0006_node_0018_node_0009" class="l04e-cls-1" points="566.93 110 567.48 110.04 567.2 97.18"/>
        <line id="L04_edge_0005_node_0011_node_0012" class="l04e-cls-1" x1="157.19" y1="112" x2="225.97" y2="111"/>
        <polyline id="L04_edge_0004_node_0012_node_0020" class="l04e-cls-1" points="226.97 112 226.97 114.66 203.33 114.66 203.92 129.51"/>
        <polyline id="L04_edge_0003_node_0015_node_0006" class="l04e-cls-1" points="392.76 110 392.85 105.37 466.37 105.37 466.37 97.88"/>
        <polyline id="L04_edge_0002_node_0015_node_0007" class="l04e-cls-1" points="393.76 110.87 498.33 108.04 500 97.79"/>
        <line id="L04_edge_0001_node_0020_node_0019" class="l04e-cls-1" x1="691.59" y1="125.72" x2="691.59" y2="111.5"/>
    </g>
    </g>
  </g>
</svg>
