<?xml version="1.0" encoding="UTF-8"?>
<svg xmlns="http://www.w3.org/2000/svg" xmlns:xlink="http://www.w3.org/1999/xlink" viewBox="0 0 577.67 271.82" version="1.1">
  <defs>
    <style>
      .b01-bg { fill: #ffffff; }
      .b01w-cls-1, .b01w-cls-2 {
              fill: #475ca9;
            }
      
            .b01w-cls-3 {
              stroke: silver;
              stroke-miterlimit: 10;
              stroke-width: .25px;
            }
      
            .b01w-cls-3, .b01w-cls-4 {
              fill: none;
            }
      
            .b01w-cls-5 {
              fill: #cecdb6;
            }
      
            .b01w-cls-6 {
              opacity: .06;
            }
      
            .b01w-cls-7 {
              fill: #2a54a4;
            }
      
            .b01w-cls-2 {
              stroke: #2f9d49;
              stroke-linecap: round;
              stroke-linejoin: round;
            }
      
            .b01w-cls-8 {
              opacity: .1;
            }
      
            .b01w-cls-9 {
              fill: #2f9d49;
            }

      .b01i-cls-1 {
              letter-spacing: 0em;
            }
      
            .b01i-cls-2 {
              letter-spacing: 0em;
            }
      
            .b01i-cls-3 {
              letter-spacing: -.03em;
            }
      
            .b01i-cls-4 {
              letter-spacing: -.02em;
            }
      
            .b01i-cls-5 {
              letter-spacing: 0em;
            }
      
            .b01i-cls-6, .b01i-cls-7, .b01i-cls-8, .b01i-cls-9 {
              fill: #848484;
            }
      
            .b01i-cls-10 {
              fill: #bababa;
            }
      
            .b01i-cls-11 {
              letter-spacing: -.02em;
            }
      
            .b01i-cls-12 {
              fill: #fff;
            }
      
            .b01i-cls-13 {
              letter-spacing: -.02em;
            }
      
            .b01i-cls-14 {
              fill: #193124;
            }
      
            .b01i-cls-15 {
              letter-spacing: -.01em;
            }
      
            .b01i-cls-16 {
              letter-spacing: -.01em;
            }
      
            .b01i-cls-17 {
              letter-spacing: -.02em;
            }
      
            .b01i-cls-18 {
              letter-spacing: 0em;
            }
      
            .b01i-cls-7 {
              font-size: 2.11px;
            }
      
            .b01i-cls-7, .b01i-cls-8, .b01i-cls-9 {
              font-family: Gotham-Light, Gotham;
              font-weight: 300;
            }
      
            .b01i-cls-8 {
              font-size: 1.7px;
            }
      
            .b01i-cls-9 {
              font-size: 2.51px;
            }
      
            .b01i-cls-19 {
              letter-spacing: -.02em;
            }
      
            .b01i-cls-20 {
              letter-spacing: -.02em;
            }
      
            .b01i-cls-21 {
              letter-spacing: -.01em;
            }
      
            .b01i-cls-22 {
              letter-spacing: 0em;
            }
      
            .b01i-cls-23 {
              letter-spacing: 0em;
            }
      
            .b01i-cls-24 {
              letter-spacing: 0em;
            }
      
            .b01i-cls-25 {
              letter-spacing: -.01em;
            }
      
            .b01i-cls-26 {
              letter-spacing: 0em;
            }
      
            .b01i-cls-27 {
              letter-spacing: 0em;
            }
      
            .b01i-cls-28 {
              letter-spacing: 0em;
            }
      
            .b01i-cls-29 {
              letter-spacing: 0em;
            }
      
            .b01i-cls-30 {
              fill: none;
              stroke: #2f9d49;
              stroke-miterlimit: 10;
            }
      
            .b01i-cls-31 {
              fill: #2f9d49;
            }
      
            .b01i-cls-32 {
              letter-spacing: -.01em;
            }

      .b01p-cls-1 {
              fill: #b4cbd8;
            }

      .b01n-cls-1 {
              fill: #080630;
            }

      .b01e-cls-1 {
              fill: none;
              stroke: #ff9700;
              stroke-miterlimit: 10;
            }
    </style>
    <symbol id="SUB_PULPITO" data-name="SUB PULPITO" viewBox="0 0 577.67 271.67">
          <g>
            <g>
              <rect class="b01w-cls-9" x="574.37" y="41.19" width="3.31" height="144.39"/>
              <g>
                <polygon class="b01w-cls-4" points="46.8 62.04 4.22 62.04 46.8 62.16 46.8 62.04"/>
                <path class="b01w-cls-4" d="M321.96,144.62v.07s.03-.06.05-.08h-.05Z"/>
                <rect class="b01w-cls-4" x="457.82" y="252.54" width="61.02" height="15.66"/>
                <path class="b01w-cls-4" d="M4.87,114.25l-.65-52.21v51.86c.23.1.45.22.65.35Z"/>
                <rect class="b01w-cls-4" x="457.82" y="190.73" width="61.02" height="58.34"/>
                <polygon class="b01w-cls-4" points="62.23 268.2 454.42 268.2 454.52 268.2 450.05 252.75 57.76 252.75 62.23 268.2"/>
                <polygon class="b01w-cls-4" points="67.82 62.04 50.11 62.04 50.11 62.17 67.75 62.22 67.82 62.04"/>
                <path class="b01w-cls-9" d="M306.73,150.93v-.95c-4.41.74-8.92,1.37-13.33,1.89l-3.31.42c-22.75,2.42-45.69,2.31-68.34-.42l-3.31-.42c-23.75-3.05-47.84-10.39-70.18-19.01l-17.63-8.35v-.24H34.44v2.87h25.05v38.32h3.31v-38.32h12.73v27.12h3.31v-27.12h51l18.83,8.77c18.84,7.25,39.02,13.97,58.86,17.33v37.41c.94-.08,1.8,0,2.84,0,.18,0,.31.18.47.27v-37.15c6.81,1.05,13.53,1.89,20.44,2.52v19.33h3.31v-19.02c23.05,1.79,46.19.95,69.04-2.52v33.83h-77.06v2.84h80.16v-.11h.1v-39.29h-.1Z"/>
                <polygon class="b01w-cls-9" points="305.44 210.59 424.78 210.59 428.08 210.59 428.08 201.76 424.78 201.76 424.78 207.64 305.44 207.64 305.44 210.59"/>
                <path class="b01w-cls-9" d="M518.65,182.64v2.84h.1v2.31h-61.02v-7.57h-3.31v7.57h-29.06v2.94h29.06v58.34h-98v-21.34h-3.31v.21h-56.41v2.94h56.41v18.08h-66.53v-40.26h.1v-2.94h-59.72v2.94h56.31v40.26h-53.61v-28.28h-3.31v28.28l-16.59.22.43-40.66h-3.31l-.43,40.66-144.24-.22v-58.97h.51c-.04-.18-.07-.36-.09-.54-.19-.8-.21-1.63-.03-2.4h-.38v-7.57h-3.31v7.57H3.31v-6.1H0v9.04h58.92v81.57h395.6v.11h3.31v-.11h64.23v-85.98h54.41v-2.94h-57.82ZM454.52,268.2H62.23v-15.45h391.69s.6,15.45.6,15.45ZM518.85,268.2h-61.02v-15.66h61.02v15.66ZM518.85,249.07h-61.02v-58.34h61.02v58.34Z"/>
                <polygon class="b01w-cls-9" points="454.74 163.68 407.54 163.68 407.54 166.63 407.74 166.63 407.74 182.18 383.9 182.18 380.59 182.18 380.59 187.02 358.24 187.02 358.24 189.96 380.59 189.96 383.9 189.96 383.9 185.13 410.85 185.13 410.95 185.13 410.95 166.63 454.74 166.63 454.74 168.41 458.05 168.41 458.05 126.71 454.74 126.71 454.74 163.68"/>
                <polygon class="b01w-cls-9" points=".91 124.88 .91 127.83 .91 154.23 4.22 154.23 4.22 153.81 4.22 127.41 12.23 127.41 12.23 124.46 4.22 124.46 4.22 123.85 .91 123.85 .91 124.88"/>
                <path class="b01w-cls-9" d="M518.55,59.41v-.11h-3.31v.11h-.41c.06.53.12,1.07.18,1.6.04.35.02.69-.04,1.02h.16v61.41h-127.46v.21l-27.76,9.99c-11.32,4.1-22.85,7.36-34.47,10.09l-3.31-.3-.17-.05.03,1.22s-.05.03-.05.08v45.64h.9v.11h26.05v-2.94h-23.65v-40.59c11.82-2.73,23.55-6.1,35.07-10.2l27.56-9.88v-.11h66.85v-.47h3.31v.47h60.51V62.36h.2v-2.94h-.2Z"/>
                <rect class="b01w-cls-9" x="454.74" y="126.24" width="3.31" height=".47"/>
                <path class="b01w-cls-9" d="M322.01,144.61l.15-.03c-.06,0-.11,0-.15.03Z"/>
                <path class="b01w-cls-9" d="M2.17,123.5c-.45,0-.87-.05-1.26-.15v.5h3.31v-.76c-.59.26-1.27.4-2.05.4Z"/>
              </g>
            </g>
            <rect class="b01w-cls-9" x="369.75" y="208.3" width="3.56" height="44.67"/>
          </g>
        </symbol>
        <symbol id="Sub_Solo_NARNIA_-_comunic" data-name="Sub Solo NARNIA - comunic" viewBox="0 0 518.76 190.11">
          <g>
            <rect class="b01w-cls-1" x="218.93" y="130" width="59.39" height="3.78"/>
            <rect class="b01w-cls-1" x="68.04" y="95.78" width="138.07" height="8.04"/>
            <rect class="b01w-cls-1" x="67.75" y="106.77" width="138.07" height="8.04"/>
            <g>
              <polygon class="b01w-cls-1" points="78.83 126.92 129.83 126.72 78.83 126.72 78.83 126.92"/>
              <path class="b01w-cls-1" d="M210.83,153.35v.7l7.43,1.51,13.01.89v-.57c-6.91-.63-13.63-1.47-20.44-2.52Z"/>
              <path class="b01w-cls-1" d="M62.8,126.72h12.73v.22h3.31v-.22h51l18.83,8.77c18.84,7.25,39.02,13.97,58.86,17.33,0,0,16.83,2.42,23.75,3.05l3.31.32c23.05,1.79,46.19.95,69.04-2.52v33.83l3.21-.13v-36.42h-.1v-.95c-4.41.74-8.92,1.37-13.33,1.89v-48.63h4.61v-2.94h-4.61v-11.88h-4.91v2.94h1.6v60.93c-22.75,2.42-45.69,2.31-68.34-.42v-36.89h-3.31v36.47c-23.75-3.05-47.84-10.39-70.18-19.01l-17.63-8.35v-.32h-.8l-.9-.32v.32H49.77v-9.25h-3.31v9.25h-22.34v2.94h35.37v63.39h3.31v-63.39Z"/>
              <polygon class="b01w-cls-1" points="3.31 187.05 3.31 180.95 0 180.95 0 189.99 3.31 189.99 62.8 189.99 62.93 187.05 3.31 187.05"/>
              <line class="b01w-cls-2" x1="321.96" y1="144.68" x2="321.96" y2="141.3"/>
              <polygon class="b01w-cls-1" points="278.37 140.21 278.37 91.47 280.17 91.47 280.17 88.53 218.25 88.53 218.25 91.47 221.56 91.47 275.06 91.47 275.06 140.21 278.37 140.21"/>
              <rect class="b01w-cls-1" x="218.25" y="91.47" width="3.31" height="4.41"/>
              <path class="b01w-cls-1" d="M518.55,59.41v-.11h-3.31v.11h-61.82v-10.41l.2.11v-2.94l-36.17-15.03c-2.1-.84-4.11-1.68-6.21-2.52v-.11h-.3C370.06,12.43,326.67,3.07,283.08.66v-.1h-2.3c-61.22-3.15-123.05,7.25-180.06,30.9l-35.17,14.72v2.94l.2-.11v10.41H4.22v-4.1H.91v98.91h3.31v-26.82h8.02v-2.94H4.22v-62.42h42.59v38.4h3.31v-38.4h53.51v-2.94h-34.67v-11.77l31.96-13.35c9.22-3.78,18.54-7.36,27.96-10.41v35.53h-3.11v2.94h21.14v-2.94h-14.73V22.52c19.94-6.41,40.38-11.35,61.02-14.61v51.19h-18.04v2.94h25.95v-2.94h-4.61V7.38c27.56-4.2,55.41-5.57,83.17-4.31v56.03h-48.5v2.94h63.53v-2.94h-11.72V3.28c17.44.95,34.67,3.05,51.9,6.2v49.61h-10.02v2.94h18.54v-2.94h-5.31V10.12c23.75,4.52,47.09,11.14,69.74,19.87v19.55h3.31v-18.29c2.21.84,4.31,1.68,6.41,2.63l32.47,13.45v11.77h-90.48v2.94h12.02v6.41h3.31v-6.41h15.43v6.52h3.31v-6.52h121.54v61.41h-127.46v.21l-27.76,9.99c-11.32,4.1-22.85,7.36-34.47,10.09v-13.77h35.87v-.21h.1v-37.86h70.64v-2.94h-38.38v-5.57h-3.31v5.57h-15.43v-5.68h-3.31v5.68h-40.41v2.73h26.88v35.13h-42.69v-35.13h4.69v-2.73h-8v11.44h-4.31v2.94h4.31v26.74h10.02v14.51c-.1,0-.2,0-.2.11v42.04l3.31-.14v-39.69c11.82-2.73,23.55-6.1,35.07-10.2l27.56-9.88v-.11h64.12l2.72-.47,25.63.47h38.18V62.36h.2v-2.94h-.2Z"/>
            </g>
          </g>
        </symbol>
  </defs>
  <g id="B01_map_background">
    <rect class="b01-bg" data-floor-bg="true" width="577.67" height="271.82"/>
    <g id="B01_map_content">
    <g id="B01_WALL" data-layer="2026_mapa_B01_wall_parede.svg">
      <g id="templo_linhas_OK" data-name="templo linhas OK" class="b01w-cls-8">
          <rect class="b01w-cls-7" x="72.88" y="56.54" width="6.05" height="70.02"/>
          <rect class="b01w-cls-7" x="72.98" y="121.09" width="57.23" height="6.11"/>
          <rect class="b01w-cls-7" x="510.34" y="50.12" width="6.05" height="76.44"/>
          <rect class="b01w-cls-7" x="459.06" y="121.08" width="57.23" height="6.11"/>
          <path class="b01w-cls-7" d="M410.84,34.33l-44.79-16.41c-55.11-19.83-114.46-19.76-169.53.21l-45.13,16.37v-3.11l45.05-16.35c55.06-19.98,114.42-20.07,169.53-.25l46.65,16.94-1.77,2.59Z"/>
          <polygon class="b01w-cls-7" points="512 64.83 490.53 48.8 490.54 48.79 489.64 48.14 488.68 47.43 488.68 47.44 488.54 47.34 483.27 53.85 475.42 47.87 475.39 47.91 475.35 47.88 470.05 54.36 462.57 47.64 462.53 47.69 462.45 47.63 456.68 53.69 449.73 46.42 449.58 46.56 449.58 46.56 448.2 47.91 447.93 48.17 447.93 48.18 443.61 52.42 443.79 52.26 441.93 53.95 443.68 55.91 449.68 49.94 456.87 57.18 462.64 51.04 470.5 57.83 475.79 51.26 481.71 55.77 481.68 55.81 483.1 56.84 483.73 57.32 484.17 56.65 488.97 50.73 510.63 66.9 512 64.83"/>
          <polygon class="b01w-cls-7" points="77.75 65.19 99.23 49.17 99.22 49.16 100.12 48.51 101.07 47.8 101.08 47.81 101.22 47.71 106.49 54.22 114.34 48.23 114.36 48.28 114.41 48.24 119.71 54.73 127.19 48.01 127.23 48.06 127.3 48 133.07 54.06 140.03 46.78 140.17 46.93 140.18 46.92 141.56 48.27 141.83 48.54 141.83 48.54 146.15 52.78 145.96 52.62 147.83 54.32 146.08 56.27 140.08 50.3 132.88 57.55 127.11 51.4 119.26 58.19 113.97 51.62 108.05 56.14 108.07 56.17 106.65 57.2 106.03 57.68 105.59 57.02 100.79 51.09 79.12 67.26 77.75 65.19"/>
          <path class="b01w-cls-7" d="M399.54,49.58l11.41-17.52c.32-.49.93-.59,1.37-.24.44.35.54,1.03.22,1.52l-11.41,17.52c-.32.48-.93.59-1.37.24-.44-.35-.54-1.03-.22-1.52"/>
          <path class="b01w-cls-7" d="M163.8,49.5l-11.41-17.52c-.32-.49-.93-.59-1.37-.24-.44.35-.54,1.03-.22,1.52l11.41,17.52c.32.48.93.59,1.37.24.44-.35.54-1.03.22-1.52"/>
        </g>
        <g id="L01_escadas_lateral">
          <rect class="b01w-cls-3" x="305.44" y="149.74" width="16.19" height="4.99"/>
          <rect class="b01w-cls-3" x="305.44" y="154.73" width="16.19" height="4.99"/>
          <rect class="b01w-cls-3" x="305.44" y="159.71" width="16.19" height="4.99"/>
          <rect class="b01w-cls-3" x="305.44" y="164.7" width="16.19" height="4.99"/>
          <rect class="b01w-cls-3" x="305.44" y="169.69" width="16.19" height="4.99"/>
          <rect class="b01w-cls-3" x="305.44" y="174.68" width="16.19" height="4.99"/>
          <rect class="b01w-cls-3" x="305.44" y="179.66" width="16.19" height="4.99"/>
          <rect class="b01w-cls-3" x="305.44" y="184.65" width="16.19" height="4.99"/>
          <rect class="b01w-cls-3" x="299.43" y="217.28" width="18.17" height="5.53" transform="translate(88.47 528.57) rotate(-90)"/>
          <rect class="b01w-cls-3" x="304.96" y="217.28" width="18.17" height="5.53" transform="translate(94 534.1) rotate(-90)"/>
          <rect class="b01w-cls-3" x="310.5" y="217.28" width="18.17" height="5.53" transform="translate(99.54 539.63) rotate(-90)"/>
          <rect class="b01w-cls-3" x="316.03" y="217.28" width="18.17" height="5.53" transform="translate(105.07 545.16) rotate(-90)"/>
          <rect class="b01w-cls-3" x="321.56" y="217.28" width="18.17" height="5.53" transform="translate(110.6 550.7) rotate(-90)"/>
          <rect class="b01w-cls-3" x="327.1" y="217.28" width="18.17" height="5.53" transform="translate(116.14 556.23) rotate(-90)"/>
          <rect class="b01w-cls-3" x="332.63" y="217.28" width="18.17" height="5.53" transform="translate(121.67 561.76) rotate(-90)"/>
          <rect class="b01w-cls-3" x="338.16" y="217.28" width="18.17" height="5.53" transform="translate(127.2 567.29) rotate(-90)"/>
          <rect class="b01w-cls-3" x="28.72" y="169.27" width="17.28" height="5.83" transform="translate(-134.82 209.54) rotate(-90)"/>
          <rect class="b01w-cls-3" x="34.55" y="169.27" width="17.28" height="5.83" transform="translate(-128.99 215.37) rotate(-90)"/>
          <rect class="b01w-cls-3" x="40.38" y="169.27" width="17.28" height="5.83" transform="translate(-123.16 221.2) rotate(-90)"/>
          <rect class="b01w-cls-3" x="46.21" y="169.27" width="17.28" height="5.83" transform="translate(-117.33 227.03) rotate(-90)"/>
          <rect class="b01w-cls-3" x="343.69" y="217.28" width="18.17" height="5.53" transform="translate(132.73 572.83) rotate(-90)"/>
        </g>
        <use width="577.67" height="271.67" transform="translate(0 .15)" xlink:href="#SUB_PULPITO"/>
        <rect class="b01w-cls-5" x="238.75" y="158.83" width="61.23" height="26.7"/>
        <rect class="b01w-cls-5" x="460.98" y="192.97" width="55.31" height="51.49"/>
        <use class="b01w-cls-6" width="518.76" height="190.11" transform="translate(.91)" xlink:href="#Sub_Solo_NARNIA_-_comunic"/>
    </g>
    <g id="B01_ICONS" data-layer="2026_mapa_B01_info.svg">
      <g id="L05_icon_">
          <g id="L01_sala_003">
            <g>
              <path class="b01i-cls-31" d="M436.48,234.76l-3.33-3.65c-.85-.93-1.28-2.13-1.22-3.38.06-1.25.6-2.41,1.53-3.26.93-.85,2.13-1.28,3.38-1.22,1.25.06,2.41.6,3.26,1.53.89.98,1.35,2.24,1.29,3.56-.06,1.32-.63,2.53-1.61,3.42h0s-3.29,3-3.29,3ZM436.62,223.54c-1.06,0-2.12.38-2.96,1.15-1.79,1.64-1.92,4.42-.28,6.22l3.13,3.43,3.07-2.8.1.11-.1-.11c1.89-1.73,2.03-4.67.3-6.56-.87-.95-2.06-1.43-3.25-1.43Z"/>
              <g>
                <path class="b01i-cls-31" d="M438.28,228.9s.07-.07.1-.07c.03,0,.07.09.06.13l-.35.81h-.95c-.15,0-.23.15-.22.28.01.13.12.24.27.24h1.1c.1,0,.19-.1.22-.18l.51-1.24s.08-.07.11-.06.06.09.04.12l-.56,1.36h.47s.1.04.09.06c0,.03-.04.07-.07.1h-4.78s-.07-.05-.09-.07c-.01-.03.07-.09.1-.09h.44s-.57-1.36-.57-1.36c0-.04.02-.1.04-.12s.1.03.11.06l.52,1.26c.04.09.14.16.24.16h1.07c.16,0,.27-.12.27-.26s-.11-.25-.27-.25h-.9s-.35-.81-.35-.81l.04-.11s.1,0,.11.03l.31.73h.83c.15,0,.29.1.35.21.07.14.06.28-.02.45h.26c-.07-.13-.1-.27-.05-.4.05-.12.18-.26.34-.26h.86s.3-.71.3-.71Z"/>
                <path class="b01i-cls-31" d="M436.52,224.95c-.33.26-.33.69-.04.97.28.27.68.32,1.07.23.15.08.29.13.48.16-.1-.24-.05-.4.06-.59.16-.28.04-.61-.21-.8-.24-.19-.54-.25-.85-.2l-.09-.02s0-.12.02-.13c.36-.08.8.01,1.08.27s.36.65.17.99c-.13.16-.11.4.08.5l.02.08c.03.12-.5.08-.8-.1-.67.16-1.41-.22-1.42-.88,0-.45.45-.75.43-.6l-.02.11Z"/>
                <path class="b01i-cls-31" d="M435.83,226.16l.5.04s.07.02.08.03c.11.07-.14.19-.53.1-.3.16-.82.2-.8.11l.02-.1c.19-.1.21-.34.08-.5-.21-.36-.1-.8.24-1.05.46-.34,1.12-.33,1.56.04.4.33.41.88.04,1.22-.02.02-.1.04-.12.02-.03-.02-.03-.11,0-.14.29-.26.31-.67.02-.94-.38-.35-.98-.37-1.4-.07-.27.2-.37.54-.2.82.11.18.15.36.04.56.16,0,.31-.06.47-.15Z"/>
                <path class="b01i-cls-31" d="M439,228.36h-.61c-.28,0-.57.2-.6.5-.03.34.04.59-.07.67-.03.02-.1-.05-.1-.08v-.48c0-.39.29-.73.69-.76.22-.01.44,0,.66-.01.42,0,.77.31.79.73v1.43s-.06.08-.06.08c-.02.02-.09-.04-.1-.07v-1.48c-.01-.3-.32-.53-.59-.53Z"/>
                <path class="b01i-cls-31" d="M435,228.36h-.6c-.31,0-.55.24-.6.54v1.46s-.05.08-.08.09-.08-.06-.08-.09v-1.49c.05-.36.35-.65.73-.66.25,0,.48,0,.72,0,.37.02.68.34.68.71v.53s-.04.08-.06.09-.09-.05-.09-.08v-.57c-.02-.31-.32-.53-.62-.53Z"/>
                <path class="b01i-cls-31" d="M434.53,226.51c.44-.11.83.15.93.56.09.38-.15.79-.54.89s-.81-.13-.92-.54c-.1-.37.11-.81.53-.91ZM434.54,226.68c-.33.11-.47.46-.37.74.11.32.44.48.74.38s.48-.43.39-.72c-.1-.32-.42-.51-.76-.4Z"/>
                <path class="b01i-cls-31" d="M438.48,226.51c.43-.11.83.15.92.56.09.39-.15.79-.54.89s-.8-.13-.91-.54c-.11-.38.11-.81.54-.92ZM438.49,226.68c-.33.11-.48.46-.37.74.11.31.44.48.74.38s.47-.43.38-.72c-.09-.32-.42-.51-.75-.4Z"/>
                <path class="b01i-cls-31" d="M436.58,226.73c.38-.07.69.18.76.51.07.36-.16.7-.52.76-.34.06-.67-.15-.75-.5-.07-.33.13-.7.51-.77ZM436.59,226.9c-.29.07-.42.36-.35.61s.34.4.58.34c.27-.06.42-.33.36-.6-.06-.24-.31-.42-.59-.35Z"/>
                <path class="b01i-cls-31" d="M436.99,228.34h-.56c-.34,0-.41.3-.52.34-.03,0-.08-.07-.07-.1.07-.21.32-.39.56-.39h.54c.26,0,.49.13.61.36,0,.03,0,.08-.01.1s-.11.02-.12-.01c-.06-.13-.24-.29-.43-.29Z"/>
              </g>
            </g>
          </g>
          <g>
            <path class="b01i-cls-10" d="M312.14,165.16c.22.1.42.18.6.29.05.03.1.13.1.2,0,.3-.03.59-.05.89-.02.36.17.62.5.65.29.03.54-.19.57-.53.04-.5.06-1,.08-1.5,0-.24-.12-.4-.33-.5-.33-.16-.66-.32-.99-.47-.13-.06-.18-.13-.17-.27.01-.24,0-.49,0-.78.56.69,1.32.53,2.01.6.25.03.41-.19.42-.45,0-.25-.14-.43-.38-.46-.3-.04-.59-.07-.89-.1-.18-.01-.32-.08-.43-.23-.29-.37-.57-.74-.88-1.09-.36-.4-.61-.43-1.05-.12-.47.33-.94.68-1.39,1.04-.11.08-.19.25-.2.38-.06.5-.1,1-.13,1.5-.02.27.14.47.4.5.28.03.48-.11.52-.4.04-.3.09-.6.06-.89-.03-.43.21-.63.56-.8,0,.09.02.16.02.23,0,.63.05,1.26,0,1.89-.05.54-.21,1.07-.33,1.6-.12.55-.26,1.09-.39,1.64-.07.32.07.59.35.67.31.09.59-.07.68-.41.24-.96.47-1.93.71-2.9,0-.04.02-.08.05-.16Z"/>
            <path class="b01i-cls-10" d="M317.09,163.15v1.41h-1.42v1.42h-1.43v1.44h-1.42v1.59c.23.06.39.01.56-.15,1.7-1.71,3.4-3.41,5.11-5.11.18-.17.26-.35.19-.6h-1.58Z"/>
            <path class="b01i-cls-10" d="M311.23,159.97c0,.52.4.92.92.92.51,0,.92-.41.91-.93,0-.49-.42-.91-.91-.91-.51,0-.92.41-.92.92Z"/>
          </g>
          <g>
            <path class="b01i-cls-10" d="M333.27,219.95c.22.1.42.18.6.29.05.03.1.13.1.2,0,.3-.03.59-.05.89-.02.36.17.62.5.65.29.03.54-.19.57-.53.04-.5.06-1,.08-1.5,0-.24-.12-.4-.33-.5-.33-.16-.66-.32-.99-.47-.13-.06-.18-.13-.17-.27.01-.24,0-.49,0-.78.56.69,1.32.53,2.01.6.25.03.41-.19.42-.45,0-.25-.14-.43-.38-.46-.3-.04-.59-.07-.89-.1-.18-.01-.32-.08-.43-.23-.29-.37-.57-.74-.88-1.09-.36-.4-.61-.43-1.05-.12-.47.33-.94.68-1.39,1.04-.11.08-.19.25-.2.38-.06.5-.1,1-.13,1.5-.02.27.14.47.4.5.28.03.48-.11.52-.4.04-.3.09-.6.06-.89-.03-.43.21-.63.56-.8,0,.09.02.16.02.23,0,.63.05,1.26,0,1.89-.05.54-.21,1.07-.33,1.6-.12.55-.26,1.09-.39,1.64-.07.32.07.59.35.67.31.09.59-.07.68-.41.24-.96.47-1.93.71-2.9,0-.04.02-.08.05-.16Z"/>
            <path class="b01i-cls-10" d="M338.22,217.94v1.41h-1.42v1.42h-1.43v1.44h-1.42v1.59c.23.06.39.01.56-.15,1.7-1.71,3.4-3.41,5.11-5.11.18-.17.26-.35.19-.6h-1.58Z"/>
            <path class="b01i-cls-10" d="M332.37,214.75c0,.52.4.92.92.92.51,0,.92-.41.91-.93,0-.49-.42-.91-.91-.91-.51,0-.92.41-.92.92Z"/>
          </g>
          <g id="L03_sala_004">
            <g>
              <path class="b01i-cls-31" d="M366.52,160.23l-4.63-5.07c-1.18-1.29-1.78-2.96-1.7-4.7.08-1.74.83-3.35,2.12-4.52,1.29-1.18,2.96-1.78,4.7-1.7,1.74.08,3.35.83,4.52,2.12,1.24,1.35,1.87,3.11,1.79,4.94-.08,1.83-.88,3.52-2.23,4.76h0s-4.57,4.17-4.57,4.17ZM366.71,144.65c-1.47,0-2.95.53-4.12,1.59-2.49,2.27-2.67,6.15-.4,8.64l4.35,4.77,4.27-3.89.14.15-.14-.15c2.63-2.4,2.81-6.49.42-9.11-1.2-1.32-2.86-1.99-4.52-1.99Z"/>
              <g>
                <path class="b01i-cls-31" d="M369.03,152.1s.1-.1.13-.09c.05,0,.1.13.08.17l-.48,1.12h-1.31c-.21,0-.32.21-.31.38.01.19.16.34.37.34h1.53c.14,0,.26-.14.31-.26l.71-1.72s.11-.1.15-.09.08.13.06.17l-.78,1.89h.66s.13.05.13.08c0,.04-.05.09-.1.14h-6.64c-.05-.03-.1-.07-.12-.1-.02-.04.09-.12.14-.12h.62s-.79-1.88-.79-1.88c0-.05.02-.14.06-.17s.13.05.15.09l.72,1.75c.06.13.19.23.34.23h1.49c.23,0,.38-.16.38-.36s-.15-.35-.38-.35h-1.24s-.48-1.12-.48-1.12l.05-.16s.13,0,.15.04l.43,1.02h1.15c.2,0,.41.14.49.3.1.2.08.38-.03.63h.36c-.1-.18-.14-.37-.06-.56.07-.17.25-.36.47-.36h1.2s.41-.99.41-.99Z"/>
                <path class="b01i-cls-31" d="M366.58,146.61c-.46.37-.46.96-.06,1.35.39.37.95.45,1.48.32.21.11.4.19.67.22-.14-.33-.07-.56.09-.82.22-.38.06-.85-.29-1.11-.33-.27-.76-.34-1.18-.28l-.12-.03s-.01-.17.02-.18c.5-.11,1.12.02,1.51.38s.51.91.24,1.38c-.18.22-.15.55.12.69l.03.11c.05.16-.69.11-1.11-.13-.93.22-1.96-.3-1.97-1.23,0-.63.63-1.04.6-.83l-.02.16Z"/>
                <path class="b01i-cls-31" d="M365.62,148.29l.69.05s.09.03.12.04c.15.1-.2.26-.74.13-.42.23-1.14.28-1.11.15l.03-.13c.27-.14.29-.47.11-.69-.29-.5-.14-1.11.34-1.46.64-.47,1.56-.46,2.17.05.55.46.57,1.22.05,1.7-.03.03-.13.06-.17.03-.05-.02-.04-.16,0-.2.41-.36.42-.93.02-1.31-.52-.49-1.37-.52-1.94-.09-.37.28-.52.75-.28,1.14.15.25.21.5.06.78.23-.01.43-.08.65-.2Z"/>
                <path class="b01i-cls-31" d="M370.02,151.35h-.85c-.39,0-.79.28-.83.69-.05.47.05.82-.1.93-.04.02-.14-.06-.14-.11v-.67c0-.54.4-1.02.96-1.05.3-.02.61-.01.92-.01.58,0,1.07.43,1.1,1.01v1.98s-.08.12-.08.12c-.02.03-.12-.05-.14-.09v-2.05c-.02-.41-.44-.74-.83-.74Z"/>
                <path class="b01i-cls-31" d="M364.47,151.35h-.83c-.43,0-.77.33-.83.74v2.02s-.07.11-.11.13-.11-.09-.11-.12v-2.06c.08-.5.49-.91,1.01-.92.34,0,.67-.01,1.01,0,.52.03.94.47.95.98v.74s-.05.11-.09.12-.13-.07-.13-.11l-.02-.8c0-.43-.43-.73-.85-.73Z"/>
                <path class="b01i-cls-31" d="M363.82,148.78c.6-.15,1.15.2,1.29.77.13.52-.21,1.1-.76,1.24s-1.12-.18-1.27-.75c-.14-.52.15-1.12.74-1.27ZM363.83,149.01c-.46.15-.65.64-.51,1.03.15.44.61.66,1.03.52s.66-.6.54-1.01c-.14-.44-.58-.7-1.05-.55Z"/>
                <path class="b01i-cls-31" d="M369.31,148.78c.6-.15,1.15.21,1.28.78.12.54-.21,1.1-.76,1.24s-1.11-.18-1.27-.75c-.15-.53.16-1.13.75-1.27ZM369.31,149.01c-.46.15-.66.64-.52,1.03.15.43.61.66,1.03.52s.65-.59.53-1c-.13-.44-.58-.71-1.04-.56Z"/>
                <path class="b01i-cls-31" d="M366.67,149.08c.52-.09.97.25,1.05.71.09.5-.22.97-.72,1.05-.47.08-.94-.21-1.04-.7-.1-.46.19-.97.71-1.07ZM366.67,149.31c-.4.1-.59.5-.49.84s.47.56.81.47c.37-.09.59-.46.5-.83-.08-.34-.43-.58-.82-.49Z"/>
                <path class="b01i-cls-31" d="M367.23,151.31h-.77c-.47,0-.57.42-.72.47-.04.01-.11-.1-.1-.14.09-.29.44-.55.78-.55h.75c.36,0,.68.19.85.5,0,.04-.01.11-.02.14s-.16.02-.17-.02c-.08-.19-.33-.4-.59-.4Z"/>
              </g>
            </g>
          </g>
          <g id="P023_L02_banheiro_feminino">
            <path class="b01i-cls-14" d="M240.94,221h-4.52c-.41,0-.74.33-.74.74v14.52c0,.41.33.74.74.74h4.52c1.51,0,2.74-1.23,2.74-2.74v-10.53c0-1.51-1.23-2.74-2.74-2.74ZM239.46,222.26c.98,0,1.77.78,1.77,1.75,0,.97-.78,1.75-1.75,1.76-.97,0-1.76-.78-1.77-1.75,0-.96.78-1.76,1.75-1.77ZM241.44,232.45h-.03c-.05,0-.1,0-.17,0v.17c0,.48,0,.96,0,1.44,0,.93-.75,1.68-1.68,1.68h-.16c-.93,0-1.68-.75-1.68-1.68,0-.48,0-.96,0-1.43v-.18h-.16c-.98,0-1.58-.77-1.34-1.72s.5-1.98.76-2.97c.24-.92,1.07-1.57,2.02-1.57.32,0,.65,0,.97,0,.94,0,1.77.65,2,1.56.26,1.01.52,2.02.77,3.03.23.92-.35,1.67-1.3,1.67Z"/>
          </g>
          <path id="P024__L02_banheiro_masculino" class="b01i-cls-14" d="M298.98,233.06h-2.11c-1.48,0-2.67,1.18-2.67,2.63v7.96c0,1.45,1.2,2.63,2.67,2.63h2.11c.55,0,1-.44,1-.98v-11.26c0-.54-.45-.98-1-.98ZM296.82,234.1c.82,0,1.47.65,1.47,1.46,0,.8-.66,1.45-1.48,1.44-.82,0-1.48-.65-1.47-1.46,0-.8.67-1.44,1.48-1.44ZM298.28,241.66v.15c0,.9,0,1.79,0,2.69,0,.37-.22.65-.57.73-.07.01-.14.02-.21.02-.14,0-.27,0-.41,0-.97,0-1.76-.78-1.76-1.74,0-.57,0-1.13,0-1.7v-.14c-.07-.01-.14-.02-.2-.03-.2-.05-.35-.23-.35-.43,0-.62,0-1.24,0-1.86,0-1.1.91-1.99,2.03-1.99h0c1.12,0,2.03.89,2.03,1.99,0,.62,0,1.24,0,1.86,0,.27-.2.43-.55.46Z"/>
          <polyline class="b01i-cls-30" points="313.56 157.59 313.56 153.41 311.23 154.71 313.91 149.48 316.41 154.76"/>
          <g>
            <path d="M463.99,155.34l-.18.04c-.04.58-.44,1.28-.52,1.83-.03.24.12.24-.06.66-.2.48-.59.63-.69,1.11v7.17c.05.39.42.38.29.89-.03.12-.19.24-.24.36-.11.3-.1,3.89-.05,4.41.06.61.73.49.77.98.03.3-.17.35-.29.53-.13.2-.08.93-.06,1.21.06,1.17.21,2.38.37,3.54.1.68.39,1.62.41,2.24.01.32-.19.61.09.87.15.14.65.27.72.42.11.23-.02.66-.06.91l-.12.06h-4.33s-.21-.07-.21-.07c-.02-.26-.12-.55-.07-.8.06-.29.57-.34.75-.51.28-.26.07-.56.09-.87.06-1.25.54-2.92.66-4.28.04-.45.22-2.4.09-2.68-.04-.09-.19-.16-.26-.29-.32-.64.65-.69.71-1.19-.14-.74.2-4.15-.07-4.58-.06-.09-.2-.12-.25-.23-.17-.36.08-.47.27-.72l.05-7.3c-.07-.61-.73-.81-.79-1.51-.05-.65-.23-1.42-.48-2.05-.05-.14-.2-.19-.18-.34.03-.2,1.05-.98,1.25-1.29.24-.38-.03-.41.04-.68.02-.1.31-.66.38-.77.04-.06.07-.16.16-.14.05.01.49.87.5.95.03.2-.17.3-.07.54.07.16.71.75.89.92.2.2.52.29.45.66ZM461.28,155.34l-.54.03.55,1.95h.3s-.3-1.98-.3-1.98ZM462.91,155.34h-1.45l.37,1.98h.68s.4-1.98.4-1.98ZM463.63,155.34h-.54s-.3,1.99-.3,1.99h.3s.55-1.99.55-1.99Z"/>
            <polygon class="b01i-cls-12" points="462.91 155.34 462.51 157.33 461.83 157.32 461.46 155.34 462.91 155.34"/>
            <polygon class="b01i-cls-12" points="461.28 155.34 461.58 157.33 461.29 157.32 460.74 155.37 461.28 155.34"/>
            <polygon class="b01i-cls-12" points="463.63 155.34 463.08 157.32 462.79 157.33 463.09 155.34 463.63 155.34"/>
          </g>
          <g id="L01_sala_003-2" data-name="L01_sala_003">
            <g>
              <path class="b01i-cls-31" d="M130.04,187.37l-3.33-3.65c-.85-.93-1.28-2.13-1.22-3.38.06-1.25.6-2.41,1.53-3.26.93-.85,2.13-1.28,3.38-1.22,1.25.06,2.41.6,3.26,1.53.89.98,1.35,2.24,1.29,3.56-.06,1.32-.63,2.53-1.61,3.42h0s-3.29,3-3.29,3ZM130.17,176.16c-1.06,0-2.12.38-2.96,1.15-1.79,1.64-1.92,4.42-.28,6.22l3.13,3.43,3.07-2.8.1.11-.1-.11c1.89-1.73,2.03-4.67.3-6.56-.87-.95-2.06-1.43-3.25-1.43Z"/>
              <g>
                <path class="b01i-cls-31" d="M131.84,181.52s.07-.07.1-.07c.03,0,.07.09.06.13l-.35.81h-.95c-.15,0-.23.15-.22.28.01.13.12.24.27.24h1.1c.1,0,.19-.1.22-.18l.51-1.24s.08-.07.11-.06.06.09.04.12l-.56,1.36h.47s.1.04.09.06c0,.03-.04.07-.07.1h-4.78s-.07-.05-.09-.07c-.01-.03.07-.09.1-.09h.44s-.57-1.36-.57-1.36c0-.04.02-.1.04-.12s.1.03.11.06l.52,1.26c.04.09.14.16.24.16h1.07c.16,0,.27-.12.27-.26s-.11-.25-.27-.25h-.9s-.35-.81-.35-.81l.04-.11s.1,0,.11.03l.31.73h.83c.15,0,.29.1.35.21.07.14.06.28-.02.45h.26c-.07-.13-.1-.27-.05-.4.05-.12.18-.26.34-.26h.86s.3-.71.3-.71Z"/>
                <path class="b01i-cls-31" d="M130.08,177.57c-.33.26-.33.69-.04.97.28.27.68.32,1.07.23.15.08.29.13.48.16-.1-.24-.05-.4.06-.59.16-.28.04-.61-.21-.8-.24-.19-.54-.25-.85-.2l-.09-.02s0-.12.02-.13c.36-.08.8.01,1.08.27s.36.65.17.99c-.13.16-.11.4.08.5l.02.08c.03.12-.5.08-.8-.1-.67.16-1.41-.22-1.42-.88,0-.45.45-.75.43-.6l-.02.11Z"/>
                <path class="b01i-cls-31" d="M129.39,178.78l.5.04s.07.02.08.03c.11.07-.14.19-.53.1-.3.16-.82.2-.8.11l.02-.1c.19-.1.21-.34.08-.5-.21-.36-.1-.8.24-1.05.46-.34,1.12-.33,1.56.04.4.33.41.88.04,1.22-.02.02-.1.04-.12.02-.03-.02-.03-.11,0-.14.29-.26.31-.67.02-.94-.38-.35-.98-.37-1.4-.07-.27.2-.37.54-.2.82.11.18.15.36.04.56.16,0,.31-.06.47-.15Z"/>
                <path class="b01i-cls-31" d="M132.56,180.98h-.61c-.28,0-.57.2-.6.5-.03.34.04.59-.07.67-.03.02-.1-.05-.1-.08v-.48c0-.39.29-.73.69-.76.22-.01.44,0,.66-.01.42,0,.77.31.79.73v1.43s-.06.08-.06.08c-.02.02-.09-.04-.1-.07v-1.48c-.01-.3-.32-.53-.59-.53Z"/>
                <path class="b01i-cls-31" d="M128.56,180.98h-.6c-.31,0-.55.24-.6.54v1.46s-.05.08-.08.09-.08-.06-.08-.09v-1.49c.05-.36.35-.65.73-.66.25,0,.48,0,.72,0,.37.02.68.34.68.71v.53s-.04.08-.06.09-.09-.05-.09-.08v-.57c-.02-.31-.32-.53-.62-.53Z"/>
                <path class="b01i-cls-31" d="M128.09,179.13c.44-.11.83.15.93.56.09.38-.15.79-.54.89s-.81-.13-.92-.54c-.1-.37.11-.81.53-.91ZM128.1,179.3c-.33.11-.47.46-.37.74.11.32.44.48.74.38s.48-.43.39-.72c-.1-.32-.42-.51-.76-.4Z"/>
                <path class="b01i-cls-31" d="M132.04,179.13c.43-.11.83.15.92.56.09.39-.15.79-.54.89s-.8-.13-.91-.54c-.11-.38.11-.81.54-.92ZM132.05,179.3c-.33.11-.48.46-.37.74.11.31.44.48.74.38s.47-.43.38-.72c-.09-.32-.42-.51-.75-.4Z"/>
                <path class="b01i-cls-31" d="M130.14,179.35c.38-.07.69.18.76.51.07.36-.16.7-.52.76-.34.06-.67-.15-.75-.5-.07-.33.13-.7.51-.77ZM130.15,179.51c-.29.07-.42.36-.35.61s.34.4.58.34c.27-.06.42-.33.36-.6-.06-.24-.31-.42-.59-.35Z"/>
                <path class="b01i-cls-31" d="M130.55,180.95h-.56c-.34,0-.41.3-.52.34-.03,0-.08-.07-.07-.1.07-.21.32-.39.56-.39h.54c.26,0,.49.13.61.36,0,.03,0,.08-.01.1s-.11.02-.12-.01c-.06-.13-.24-.29-.43-.29Z"/>
              </g>
            </g>
          </g>
        </g>
        <g id="B01_salas">
          <g id="B01_sala_0001_banheiro_masculino_b01bathroom">
            <g id="B01_sala_0001_banheiro_masculino_b01bathroom-2" data-name="B01_sala_0001_banheiro_masculino_b01bathroom">
              <path class="b01i-cls-6" d="M310.25,238.74c-.03.06-.08.11-.14.15s-.13.07-.21.1c-.08.02-.18.03-.28.03h-.82v-1.75h.78c.09,0,.17,0,.25.03.08.02.14.05.19.09.05.04.09.08.12.14.03.05.04.11.04.18h0c0,.07,0,.12-.03.16-.02.04-.04.08-.07.12-.03.03-.07.06-.1.08-.04.02-.08.04-.11.06.06.01.11.03.16.05.05.02.1.05.14.08.04.03.07.07.09.12s.04.1.04.16h0c0,.08-.02.14-.05.2ZM310.05,237.71c0-.1-.04-.18-.12-.24s-.2-.09-.35-.09h-.64v.69h.62c.07,0,.13,0,.19-.02.06-.02.11-.04.15-.07.04-.03.08-.07.1-.11.02-.04.04-.1.04-.16h0ZM310.16,238.54c0-.11-.05-.19-.15-.25-.1-.06-.24-.09-.43-.09h-.64v.71h.69c.16,0,.29-.03.39-.1.1-.06.14-.15.14-.26h0Z"/>
              <path class="b01i-cls-6" d="M311.67,239.02v-.21s-.05.06-.08.09-.07.06-.12.08-.09.04-.15.05c-.05.01-.11.02-.18.02s-.13,0-.19-.03c-.06-.02-.12-.04-.17-.08-.05-.03-.09-.08-.12-.12-.03-.05-.05-.11-.05-.18h0c0-.07.01-.13.04-.18.03-.05.07-.09.12-.13.05-.04.12-.06.19-.08.07-.02.16-.03.25-.03.1,0,.18,0,.25.02.07,0,.14.02.21.04v-.05c0-.13-.04-.23-.12-.29s-.19-.1-.33-.1c-.08,0-.16,0-.23.03s-.14.04-.2.07l-.05-.11c.08-.03.15-.06.23-.08.08-.02.16-.03.26-.03.18,0,.32.04.42.12.1.08.15.21.15.38v.8h-.13ZM311.67,238.4c-.06-.01-.12-.03-.2-.04-.08-.01-.17-.02-.26-.02-.15,0-.26.03-.34.08-.08.05-.12.13-.12.22h0c0,.05.01.09.03.13s.05.07.09.09c.04.03.08.04.13.06.05.01.1.02.15.02.07,0,.14,0,.2-.03.06-.02.12-.05.17-.08s.08-.08.11-.12c.03-.05.04-.1.04-.16v-.14Z"/>
              <path class="b01i-cls-6" d="M313.32,239.02v-.76c0-.13-.04-.24-.11-.32-.08-.08-.18-.12-.32-.12-.07,0-.13.01-.19.03s-.11.05-.15.09-.08.09-.1.14c-.02.06-.04.12-.04.18v.74h-.13v-1.28h.13v.24c.05-.08.11-.14.19-.19.08-.05.18-.08.31-.08.09,0,.16.01.23.04.07.03.13.06.17.11s.08.1.11.17c.02.06.04.13.04.21v.78h-.13Z"/>
              <path class="b01i-cls-6" d="M314.98,239.02v-.76c0-.13-.04-.24-.11-.32-.08-.08-.18-.12-.32-.12-.07,0-.13.01-.19.03s-.11.05-.15.09-.08.09-.1.14c-.02.06-.04.12-.04.18v.74h-.13v-1.83h.13v.79c.05-.08.11-.14.19-.19.08-.05.18-.08.31-.08.09,0,.16.01.23.04.07.03.13.06.17.11s.08.1.11.17c.02.06.04.13.04.21v.78h-.13Z"/>
              <path class="b01i-cls-6" d="M315.69,238.64c.03.06.07.11.12.16s.1.08.17.1c.06.02.13.03.2.03.11,0,.2-.02.28-.06.07-.04.14-.09.2-.14l.09.08c-.07.07-.15.13-.24.17-.09.05-.2.07-.33.07-.09,0-.18-.02-.26-.05-.08-.03-.15-.08-.22-.13-.06-.06-.11-.13-.15-.21s-.05-.17-.05-.27h0c0-.1.02-.18.05-.26s.08-.15.14-.21c.06-.06.13-.11.21-.14.08-.03.17-.05.26-.05s.18.02.26.05c.08.03.14.08.2.14.05.06.1.13.13.21.03.08.04.17.04.26h0v.03s0,.01,0,.02h-1.14c0,.08.02.15.06.21ZM316.64,238.32c0-.07-.02-.13-.04-.19-.02-.06-.05-.11-.09-.16-.04-.05-.09-.08-.15-.11-.06-.03-.13-.04-.21-.04-.07,0-.13.01-.19.04-.06.02-.11.06-.16.1s-.08.1-.11.16c-.03.06-.05.13-.05.2h1Z"/>
              <path class="b01i-cls-6" d="M317.17,237.41v-.17h.17v.17h-.17ZM317.19,239.02v-1.28h.13v1.28h-.13Z"/>
              <path class="b01i-cls-6" d="M318.57,237.86c-.08,0-.16.01-.23.04-.07.03-.14.07-.19.12-.05.05-.1.12-.13.2s-.05.17-.05.27v.52h-.13v-1.28h.13v.36c.03-.06.06-.11.1-.16.04-.05.09-.09.14-.12.05-.03.11-.06.17-.08.06-.02.13-.03.2-.02v.13h-.01Z"/>
              <path class="b01i-cls-6" d="M320.12,238.64c-.04.08-.08.15-.15.21-.06.06-.14.11-.23.15s-.18.05-.28.05-.2-.02-.28-.05-.16-.08-.22-.14c-.06-.06-.11-.13-.15-.21s-.05-.17-.05-.26h0c0-.1.02-.18.05-.26s.08-.15.15-.21c.06-.06.14-.11.23-.15.09-.04.18-.05.28-.05s.2.02.28.05.16.08.22.14c.06.06.11.13.15.21s.05.17.05.26h0c0,.09-.02.18-.05.26ZM320.03,238.38c0-.08-.01-.15-.04-.22s-.07-.13-.12-.18-.11-.09-.18-.12c-.07-.03-.14-.04-.22-.04s-.16.01-.23.04-.13.07-.18.12-.09.11-.12.17c-.03.07-.04.14-.04.21h0c0,.08.01.15.04.22.03.07.07.13.12.18s.11.09.18.12c.07.03.14.04.22.04s.16-.01.23-.04.13-.07.18-.12c.05-.05.09-.11.12-.17.03-.07.04-.14.04-.21h0Z"/>
              <path class="b01i-cls-6" d="M321.96,239.31v.11h-1.63v-.11h1.63Z"/>
              <path class="b01i-cls-6" d="M324.16,239.02v-.76c0-.14-.04-.25-.11-.32s-.17-.11-.3-.11c-.06,0-.11,0-.17.03-.05.02-.1.05-.14.09-.04.04-.07.08-.09.14-.02.06-.04.12-.04.19v.74h-.13v-.77c0-.13-.04-.24-.11-.31s-.17-.11-.29-.11c-.06,0-.12.01-.17.04s-.1.06-.14.1c-.04.04-.07.09-.09.15-.02.05-.03.12-.03.18v.74h-.13v-1.28h.13v.23s.05-.07.07-.1.06-.06.1-.08c.04-.02.08-.04.13-.06.05-.01.1-.02.16-.02s.11,0,.16.02c.05.01.09.04.13.06.04.03.07.05.1.09.03.03.05.07.07.11.02-.04.05-.07.08-.1.03-.03.07-.06.11-.09.04-.03.09-.05.14-.06.05-.02.11-.02.17-.02.08,0,.15.01.22.04.07.03.12.06.17.11s.08.1.11.17c.02.07.04.14.04.22v.77h-.13Z"/>
              <path class="b01i-cls-6" d="M325.72,239.02v-.21s-.05.06-.09.09-.07.06-.11.08c-.04.02-.09.04-.15.05-.05.01-.12.02-.18.02s-.13,0-.19-.03c-.06-.02-.12-.04-.17-.08-.05-.03-.09-.08-.12-.12s-.05-.11-.05-.18h0c0-.07.02-.13.04-.18.03-.05.07-.09.12-.13.05-.04.12-.06.19-.08.07-.02.16-.03.25-.03.1,0,.18,0,.25.02.07,0,.14.02.21.04v-.05c0-.13-.04-.23-.12-.29s-.19-.1-.33-.1c-.08,0-.16,0-.23.03s-.14.04-.2.07l-.05-.11c.08-.03.15-.06.23-.08s.16-.03.26-.03c.18,0,.32.04.42.12.1.08.15.21.15.38v.8h-.13ZM325.72,238.4c-.06-.01-.12-.03-.2-.04-.08-.01-.17-.02-.27-.02-.15,0-.26.03-.34.08-.08.05-.12.13-.12.22h0c0,.05.01.09.03.13.02.04.05.07.09.09.04.03.08.04.13.06s.1.02.15.02c.07,0,.14,0,.2-.03.06-.02.12-.05.17-.08s.09-.08.11-.12c.03-.05.04-.1.04-.16v-.14Z"/>
              <path class="b01i-cls-6" d="M327.21,238.83s-.06.08-.1.12c-.04.03-.09.06-.15.08s-.12.03-.19.03c-.1,0-.2-.02-.3-.05-.1-.04-.19-.08-.26-.14l.08-.1c.08.05.16.09.24.12s.17.04.26.04c.09,0,.17-.02.24-.06.06-.04.1-.1.1-.18h0s0-.07-.03-.1c-.02-.03-.05-.05-.08-.07-.03-.02-.07-.04-.12-.05-.04-.01-.09-.03-.14-.04-.06-.02-.11-.03-.17-.05-.06-.02-.11-.04-.15-.06-.04-.03-.08-.06-.11-.1s-.04-.09-.04-.14h0c0-.06.01-.1.03-.15.02-.04.05-.08.09-.11.04-.03.09-.06.14-.07s.12-.03.18-.03c.08,0,.17.01.26.04.09.03.17.06.23.1l-.07.1c-.06-.04-.13-.07-.2-.09s-.15-.04-.22-.04c-.1,0-.17.02-.23.06-.06.04-.09.09-.09.16h0s.01.07.03.1c.02.03.05.05.08.07s.08.03.12.05c.05.01.09.03.14.04.06.01.11.03.16.05.05.02.1.04.15.07s.08.06.1.1c.03.04.04.09.04.14h0c0,.06-.01.11-.04.16Z"/>
              <path class="b01i-cls-6" d="M328.6,238.98c-.09.05-.2.07-.32.07-.1,0-.19-.02-.28-.05-.09-.04-.16-.08-.22-.14-.06-.06-.11-.13-.15-.21-.04-.08-.05-.17-.05-.26h0c0-.1.02-.18.05-.26.04-.08.08-.15.15-.21.06-.06.14-.11.22-.15.08-.04.18-.05.28-.05.07,0,.12,0,.18.02.05.01.1.03.15.05.05.02.09.05.12.08.04.03.07.06.1.09l-.09.09c-.06-.06-.12-.11-.2-.15-.07-.04-.16-.06-.26-.06-.08,0-.15.01-.22.04s-.13.07-.18.12c-.05.05-.09.11-.12.17-.03.07-.04.14-.04.21h0c0,.08.01.15.04.22.03.07.07.13.12.18.05.05.11.09.18.12.07.03.14.04.22.04.1,0,.18-.02.26-.06.08-.04.14-.09.2-.15l.09.08c-.07.07-.15.13-.24.18Z"/>
              <path class="b01i-cls-6" d="M330.24,239.02v-.24c-.05.08-.11.14-.19.19-.08.05-.18.08-.31.08-.09,0-.16-.01-.23-.04-.07-.03-.13-.06-.17-.11s-.08-.1-.11-.17-.04-.13-.04-.21v-.78h.13v.76c0,.13.04.24.11.32.08.08.18.12.32.12.07,0,.13-.01.19-.03s.11-.05.15-.09.08-.09.1-.14.04-.12.04-.18v-.74h.13v1.28h-.13Z"/>
              <path class="b01i-cls-6" d="M330.89,239.02v-1.83h.13v1.83h-.13Z"/>
              <path class="b01i-cls-6" d="M331.55,237.41v-.17h.17v.17h-.17ZM331.56,239.02v-1.28h.13v1.28h-.13Z"/>
              <path class="b01i-cls-6" d="M333.27,239.02v-.76c0-.13-.04-.24-.11-.32-.08-.08-.18-.12-.32-.12-.07,0-.13.01-.19.03s-.11.05-.15.09-.08.09-.1.14c-.02.06-.04.12-.04.18v.74h-.13v-1.28h.13v.24c.05-.08.11-.14.19-.19.08-.05.18-.08.31-.08.09,0,.16.01.23.04.07.03.13.06.17.11s.08.1.11.17c.02.06.04.13.04.21v.78h-.13Z"/>
              <path class="b01i-cls-6" d="M335.14,238.64c-.04.08-.08.15-.15.21-.06.06-.14.11-.23.15-.09.04-.18.05-.28.05s-.2-.02-.28-.05c-.09-.04-.16-.08-.22-.14-.06-.06-.11-.13-.15-.21s-.05-.17-.05-.26h0c0-.1.02-.18.05-.26s.08-.15.15-.21c.06-.06.14-.11.23-.15.09-.04.18-.05.28-.05s.2.02.28.05c.08.04.16.08.22.14.06.06.11.13.15.21s.05.17.05.26h0c0,.09-.02.18-.05.26ZM335.06,238.38c0-.08-.01-.15-.04-.22-.03-.07-.07-.13-.12-.18-.05-.05-.11-.09-.18-.12-.07-.03-.14-.04-.22-.04s-.16.01-.23.04c-.07.03-.13.07-.18.12s-.09.11-.12.17c-.03.07-.04.14-.04.21h0c0,.08.01.15.04.22.03.07.07.13.12.18.05.05.11.09.18.12.07.03.14.04.22.04s.16-.01.23-.04c.07-.03.13-.07.18-.12.05-.05.09-.11.12-.17.03-.07.04-.14.04-.21h0Z"/>
              <path class="b01i-cls-6" d="M336.98,239.31v.11h-1.63v-.11h1.63Z"/>
              <path class="b01i-cls-6" d="M338.71,238.74c-.03.06-.08.11-.14.15s-.13.07-.21.1c-.08.02-.18.03-.28.03h-.82v-1.75h.78c.09,0,.17,0,.25.03.08.02.14.05.19.09.05.04.09.08.12.14.03.05.04.11.04.18h0c0,.07,0,.12-.03.16-.02.04-.04.08-.07.12-.03.03-.07.06-.1.08-.04.02-.08.04-.11.06.06.01.11.03.16.05.05.02.1.05.14.08.04.03.07.07.09.12s.04.1.04.16h0c0,.08-.02.14-.05.2ZM338.51,237.71c0-.1-.04-.18-.12-.24s-.2-.09-.35-.09h-.64v.69h.62c.07,0,.13,0,.19-.02.06-.02.11-.04.15-.07.04-.03.08-.07.1-.11.02-.04.04-.1.04-.16h0ZM338.61,238.54c0-.11-.05-.19-.15-.25-.1-.06-.24-.09-.43-.09h-.64v.71h.69c.16,0,.29-.03.39-.1.1-.06.14-.15.14-.26h0Z"/>
              <path class="b01i-cls-6" d="M340.61,238.49c-.04.11-.09.21-.16.29-.07.08-.15.15-.25.2-.1.05-.21.07-.33.07s-.23-.02-.33-.07c-.1-.05-.18-.11-.25-.2s-.12-.18-.16-.29-.05-.23-.05-.35.02-.24.05-.35c.04-.11.09-.21.16-.29.07-.08.15-.15.25-.2.1-.05.21-.07.33-.07s.23.02.33.07c.1.05.18.11.25.2.07.08.12.18.16.29s.05.23.05.35-.02.24-.06.35ZM340.48,237.85c-.03-.1-.07-.18-.13-.25-.06-.07-.12-.13-.2-.17-.08-.04-.17-.07-.26-.07s-.19.02-.26.06c-.08.04-.15.1-.2.17-.05.07-.1.16-.13.25-.03.09-.04.19-.04.29s.01.2.04.3c.03.09.07.18.13.25.06.07.12.13.2.17.08.04.17.07.26.07s.19-.02.26-.06c.08-.04.15-.1.2-.17.05-.07.1-.16.13-.25.03-.09.04-.19.04-.3s-.02-.2-.04-.3Z"/>
              <path class="b01i-cls-6" d="M341.35,237.25h.11v1.77h-.14v-1.63l-.37.12-.04-.1.43-.15Z"/>
              <path class="b01i-cls-6" d="M310.25,241.75c-.03.06-.08.11-.14.15s-.13.07-.21.09c-.08.02-.18.03-.28.03h-.82v-1.75h.78c.09,0,.17.01.25.03.08.02.14.05.19.09.05.04.09.08.12.14.03.05.04.11.04.18h0c0,.06,0,.12-.03.16-.02.04-.04.08-.07.12-.03.03-.07.06-.1.08-.04.02-.08.04-.11.06.06.01.11.03.16.05.05.02.1.05.14.08.04.03.07.07.09.12s.04.1.04.16h0c0,.08-.02.14-.05.2ZM310.05,240.72c0-.1-.04-.18-.12-.24-.08-.06-.2-.09-.35-.09h-.64v.69h.62c.07,0,.13,0,.19-.02.06-.02.11-.04.15-.07.04-.03.08-.07.1-.11.02-.05.04-.1.04-.16h0ZM310.16,241.55c0-.11-.05-.19-.15-.25-.1-.06-.24-.09-.43-.09h-.64v.71h.69c.16,0,.29-.03.39-.1s.14-.15.14-.26h0Z"/>
              <path class="b01i-cls-6" d="M311.67,242.03v-.21s-.05.06-.08.09-.07.05-.12.08-.09.04-.15.06c-.05.01-.11.02-.18.02s-.13,0-.19-.03c-.06-.02-.12-.04-.17-.08-.05-.03-.09-.08-.12-.12-.03-.05-.05-.11-.05-.18h0c0-.07.01-.13.04-.18.03-.05.07-.1.12-.13.05-.04.12-.06.19-.08.07-.02.16-.03.25-.03.1,0,.18,0,.25.01s.14.02.21.04v-.05c0-.13-.04-.23-.12-.29-.08-.07-.19-.1-.33-.1-.08,0-.16,0-.23.03-.07.02-.14.04-.2.07l-.05-.11c.08-.03.15-.06.23-.08.08-.02.16-.03.26-.03.18,0,.32.04.42.13.1.08.15.21.15.38v.8h-.13ZM311.67,241.4c-.06-.01-.12-.03-.2-.04-.08-.01-.17-.02-.26-.02-.15,0-.26.03-.34.08-.08.05-.12.13-.12.22h0c0,.05.01.09.03.13.02.04.05.07.09.09.04.02.08.04.13.06.05.01.1.02.15.02.07,0,.14,0,.2-.03.06-.02.12-.05.17-.08s.08-.08.11-.12c.03-.05.04-.1.04-.16v-.15Z"/>
              <path class="b01i-cls-6" d="M312.84,242.04s-.07.01-.12.01c-.05,0-.1,0-.15-.02-.05-.01-.09-.03-.12-.06s-.06-.07-.08-.11c-.02-.04-.03-.1-.03-.16v-.84h-.2v-.11h.2v-.41h.13v.41h.48v.11h-.48v.82c0,.09.03.16.08.19.05.04.12.05.2.05.03,0,.07,0,.1,0,.03,0,.07-.02.11-.03v.12s-.07.03-.11.03Z"/>
              <path class="b01i-cls-6" d="M314.39,242.03v-.76c0-.13-.04-.24-.11-.32-.08-.08-.18-.12-.32-.12-.07,0-.13.01-.19.03-.06.02-.11.05-.15.09-.04.04-.08.09-.1.14s-.04.12-.04.18v.74h-.13v-1.83h.13v.79c.05-.08.11-.14.19-.19s.18-.08.31-.08c.09,0,.16.01.23.04.07.03.13.06.17.11.05.05.08.1.11.17s.04.13.04.21v.78h-.13Z"/>
              <path class="b01i-cls-6" d="M315.73,240.87c-.08,0-.16.01-.23.04-.07.03-.14.07-.19.12s-.1.12-.13.2c-.03.08-.05.17-.05.27v.52h-.13v-1.28h.13v.36c.03-.06.06-.11.1-.16.04-.05.09-.09.14-.12.05-.03.11-.06.17-.08.06-.02.13-.03.2-.02v.14h-.01Z"/>
              <path class="b01i-cls-6" d="M317.28,241.64c-.04.08-.08.15-.15.21-.06.06-.14.11-.23.15-.09.04-.18.05-.28.05s-.2-.02-.28-.05c-.09-.04-.16-.08-.22-.14-.06-.06-.11-.13-.15-.21s-.05-.17-.05-.26h0c0-.09.02-.18.05-.26.04-.08.08-.15.15-.21.06-.06.14-.11.23-.15.09-.04.18-.05.28-.05s.2.02.28.05.16.08.22.14c.06.06.11.13.15.21.04.08.05.17.05.26h0c0,.1-.02.18-.05.26ZM317.19,241.39c0-.08-.01-.15-.04-.22s-.07-.13-.12-.18-.11-.09-.18-.12c-.07-.03-.14-.04-.22-.04s-.16.01-.23.04c-.07.03-.13.07-.18.12-.05.05-.09.11-.12.17s-.04.14-.04.21h0c0,.08.01.15.04.22.03.07.07.13.12.18.05.05.11.09.18.12.07.03.14.04.22.04s.16-.01.23-.04.13-.07.18-.12.09-.11.12-.17c.03-.07.04-.14.04-.21h0Z"/>
              <path class="b01i-cls-6" d="M319.01,241.64c-.04.08-.08.15-.15.21-.06.06-.14.11-.23.15-.09.04-.18.05-.28.05s-.2-.02-.28-.05c-.09-.04-.16-.08-.22-.14-.06-.06-.11-.13-.15-.21s-.05-.17-.05-.26h0c0-.09.02-.18.05-.26.04-.08.08-.15.15-.21.06-.06.14-.11.23-.15.09-.04.18-.05.28-.05s.2.02.28.05c.08.04.16.08.22.14.06.06.11.13.15.21.04.08.05.17.05.26h0c0,.1-.02.18-.05.26ZM318.92,241.39c0-.08-.01-.15-.04-.22-.03-.07-.07-.13-.12-.18-.05-.05-.11-.09-.18-.12-.07-.03-.14-.04-.22-.04s-.16.01-.23.04c-.07.03-.13.07-.18.12-.05.05-.09.11-.12.17-.03.07-.04.14-.04.21h0c0,.08.01.15.04.22.03.07.07.13.12.18.05.05.11.09.18.12.07.03.14.04.22.04s.16-.01.23-.04c.07-.03.13-.07.18-.12s.09-.11.12-.17c.03-.07.04-.14.04-.21h0Z"/>
              <path class="b01i-cls-6" d="M321.42,242.03v-.76c0-.14-.04-.25-.11-.32-.07-.08-.17-.11-.3-.11-.06,0-.11,0-.17.03-.05.02-.1.05-.14.09-.04.04-.07.09-.09.14-.02.06-.04.12-.04.19v.74h-.13v-.77c0-.13-.04-.24-.11-.31-.07-.08-.17-.11-.29-.11-.06,0-.12.01-.17.04-.05.02-.1.06-.14.1-.04.04-.07.09-.09.14-.02.06-.03.12-.03.18v.74h-.13v-1.28h.13v.23s.05-.07.07-.1c.03-.03.06-.06.1-.08s.08-.04.12-.06c.05-.01.1-.02.16-.02s.11,0,.16.02c.05.02.09.04.13.06.04.02.07.05.1.09.03.03.05.07.07.1.02-.04.05-.07.08-.1.03-.03.07-.06.11-.09.04-.03.09-.05.14-.06.05-.01.11-.02.17-.02.08,0,.16.01.22.04.07.03.12.06.17.11s.08.1.11.17c.02.07.04.14.04.22v.77h-.13Z"/>
            </g>
          </g>
          <g id="B01_sala_0002_banheiro_feminino_b01bathroom">
            <g id="B01_sala_0002_banheiro_feminino_b01bathroom-2" data-name="B01_sala_0002_banheiro_feminino_b01bathroom">
              <path class="b01i-cls-6" d="M249.3,228.72c-.03.06-.08.11-.14.15-.06.04-.13.07-.21.1s-.17.03-.28.03h-.82v-1.75h.78c.09,0,.18,0,.25.03.08.02.14.05.19.09.05.04.09.08.12.14.03.05.04.11.04.18h0c0,.07,0,.12-.03.16-.02.04-.04.08-.07.12-.03.03-.06.06-.1.08s-.08.04-.11.06c.06.01.11.03.16.05.05.02.1.05.14.08s.07.07.09.12.04.1.04.16h0c0,.08-.02.14-.05.2ZM249.11,227.69c0-.1-.04-.18-.12-.24s-.2-.09-.35-.09h-.64v.69h.62c.07,0,.13,0,.19-.02.06-.02.11-.04.15-.07s.08-.07.1-.11c.02-.04.04-.1.04-.16h0ZM249.21,228.52c0-.11-.05-.19-.15-.25-.1-.06-.24-.09-.43-.09h-.64v.71h.69c.16,0,.29-.03.39-.1.09-.06.14-.15.14-.26h0Z"/>
              <path class="b01i-cls-6" d="M250.72,229v-.21s-.05.06-.09.09-.07.06-.11.08c-.04.02-.09.04-.15.05-.05.01-.12.02-.18.02s-.13,0-.19-.03c-.06-.02-.12-.04-.17-.08-.05-.03-.09-.08-.12-.12s-.05-.11-.05-.18h0c0-.07.02-.13.04-.18.03-.05.07-.09.12-.13.05-.04.12-.06.19-.08.07-.02.16-.03.25-.03.1,0,.18,0,.25.02.07,0,.14.02.21.04v-.05c0-.13-.04-.23-.12-.29s-.19-.1-.33-.1c-.08,0-.16,0-.23.03s-.14.04-.2.07l-.05-.11c.08-.03.15-.06.23-.08s.16-.03.26-.03c.18,0,.32.04.42.12.1.08.15.21.15.38v.8h-.13ZM250.73,228.38c-.06-.01-.12-.03-.2-.04-.08-.01-.17-.02-.27-.02-.15,0-.26.03-.34.08-.08.05-.12.13-.12.22h0c0,.05.01.09.03.13.02.04.05.07.09.09.04.03.08.04.13.06s.1.02.15.02c.07,0,.14,0,.2-.03.06-.02.12-.05.17-.08s.09-.08.11-.12c.03-.05.04-.1.04-.16v-.14Z"/>
              <path class="b01i-cls-6" d="M252.38,229v-.76c0-.13-.04-.24-.11-.32-.08-.08-.18-.12-.32-.12-.07,0-.13.01-.19.03-.06.02-.11.05-.15.09-.04.04-.08.09-.1.14-.02.06-.04.12-.04.18v.74h-.13v-1.28h.13v.24c.05-.08.11-.14.19-.19s.18-.08.31-.08c.09,0,.16.01.23.04.07.03.13.06.17.11s.08.1.11.17.04.13.04.21v.78h-.13Z"/>
              <path class="b01i-cls-6" d="M254.03,229v-.76c0-.13-.04-.24-.11-.32-.08-.08-.18-.12-.32-.12-.07,0-.13.01-.19.03-.06.02-.11.05-.15.09-.04.04-.08.09-.1.14-.02.06-.04.12-.04.18v.74h-.13v-1.83h.13v.79c.05-.08.11-.14.19-.19s.18-.08.31-.08c.09,0,.16.01.23.04.07.03.13.06.17.11s.08.1.11.17.04.13.04.21v.78h-.13Z"/>
              <path class="b01i-cls-6" d="M254.75,228.62c.03.06.07.11.12.16s.1.08.17.1.13.03.2.03c.11,0,.2-.02.28-.06.08-.04.14-.09.2-.14l.09.08c-.07.07-.15.13-.24.17-.09.05-.2.07-.33.07-.09,0-.18-.02-.26-.05-.08-.03-.15-.08-.22-.13s-.11-.13-.15-.21-.05-.17-.05-.27h0c0-.1.02-.18.05-.26.03-.08.08-.15.14-.21.06-.06.13-.11.21-.14.08-.03.17-.05.26-.05s.18.02.26.05c.08.03.14.08.2.14.05.06.1.13.13.21.03.08.04.17.04.26h0v.03s0,.01,0,.02h-1.14c0,.08.02.15.06.21ZM255.69,228.3c0-.07-.02-.13-.04-.19s-.05-.11-.09-.16c-.04-.05-.09-.08-.15-.11-.06-.03-.13-.04-.21-.04-.07,0-.13.01-.19.04-.06.02-.11.06-.16.1-.04.04-.08.1-.11.16-.03.06-.05.13-.05.2h1.01Z"/>
              <path class="b01i-cls-6" d="M256.22,227.39v-.17h.17v.17h-.17ZM256.24,229v-1.28h.13v1.28h-.13Z"/>
              <path class="b01i-cls-6" d="M257.62,227.84c-.08,0-.16.01-.23.04s-.14.07-.19.12c-.05.05-.1.12-.13.2-.03.08-.05.17-.05.27v.52h-.13v-1.28h.13v.36c.03-.06.06-.11.1-.16.04-.05.09-.09.14-.12.05-.03.11-.06.17-.08.06-.02.13-.03.2-.02v.13h-.01Z"/>
              <path class="b01i-cls-6" d="M259.18,228.62c-.04.08-.08.15-.15.21-.06.06-.14.11-.23.15-.09.04-.18.05-.28.05s-.2-.02-.28-.05c-.09-.04-.16-.08-.22-.14-.06-.06-.11-.13-.15-.21s-.05-.17-.05-.26h0c0-.1.02-.18.05-.26s.08-.15.15-.21c.06-.06.14-.11.23-.15.09-.04.18-.05.28-.05s.2.02.28.05c.08.04.16.08.22.14.06.06.11.13.15.21s.05.17.05.26h0c0,.09-.02.18-.05.26ZM259.09,228.36c0-.08-.01-.15-.04-.22-.03-.07-.07-.13-.12-.18-.05-.05-.11-.09-.18-.12-.07-.03-.14-.04-.22-.04s-.16.01-.23.04c-.07.03-.13.07-.18.12s-.09.11-.12.17c-.03.07-.04.14-.04.21h0c0,.08.01.15.04.22.03.07.07.13.12.18.05.05.11.09.18.12.07.03.14.04.22.04s.16-.01.23-.04c.07-.03.13-.07.18-.12.05-.05.09-.11.12-.17.03-.07.04-.14.04-.21h0Z"/>
              <path class="b01i-cls-6" d="M261.01,229.29v.11h-1.63v-.11h1.63Z"/>
              <path class="b01i-cls-6" d="M261.85,227.28s-.06,0-.1,0c-.19,0-.28.11-.28.32v.12h.48v.11h-.48v1.17h-.13v-1.17h-.2v-.11h.2v-.12c0-.14.04-.25.11-.32.07-.08.17-.11.3-.11.04,0,.08,0,.11,0s.06.01.09.02v.12s-.08-.02-.11-.03Z"/>
              <path class="b01i-cls-6" d="M262.32,228.62c.03.06.07.11.12.16s.1.08.17.1.13.03.2.03c.11,0,.2-.02.28-.06.08-.04.14-.09.2-.14l.09.08c-.07.07-.15.13-.24.17-.09.05-.2.07-.33.07-.09,0-.18-.02-.26-.05-.08-.03-.15-.08-.22-.13s-.11-.13-.15-.21-.05-.17-.05-.27h0c0-.1.02-.18.05-.26.03-.08.08-.15.14-.21.06-.06.13-.11.21-.14.08-.03.17-.05.26-.05s.18.02.26.05c.08.03.14.08.2.14.05.06.1.13.13.21.03.08.04.17.04.26h0v.03s0,.01,0,.02h-1.14c0,.08.02.15.06.21ZM263.26,228.3c0-.07-.02-.13-.04-.19s-.05-.11-.09-.16c-.04-.05-.09-.08-.15-.11-.06-.03-.13-.04-.21-.04-.07,0-.13.01-.19.04-.06.02-.11.06-.16.1-.04.04-.08.1-.11.16-.03.06-.05.13-.05.2h1.01Z"/>
              <path class="b01i-cls-6" d="M265.74,229v-.76c0-.14-.04-.25-.11-.32-.07-.08-.17-.11-.3-.11-.06,0-.11,0-.17.03-.05.02-.1.05-.14.09-.04.04-.07.08-.09.14-.02.06-.04.12-.04.19v.74h-.13v-.77c0-.13-.04-.24-.11-.31s-.17-.11-.29-.11c-.06,0-.12.01-.17.04-.05.02-.1.06-.14.1-.04.04-.07.09-.09.15-.02.05-.03.12-.03.18v.74h-.13v-1.28h.13v.23s.05-.07.07-.1c.03-.03.06-.06.1-.08.04-.02.08-.04.12-.06.05-.01.1-.02.16-.02s.11,0,.16.02c.05.01.09.04.13.06.04.03.07.05.1.09.03.03.05.07.07.11.02-.04.05-.07.08-.1.03-.03.07-.06.11-.09.04-.03.09-.05.14-.06.05-.02.11-.02.17-.02.08,0,.16.01.22.04.07.03.12.06.17.11s.08.1.11.17c.02.07.04.14.04.22v.77h-.13Z"/>
              <path class="b01i-cls-6" d="M266.36,227.39v-.17h.17v.17h-.17ZM266.38,229v-1.28h.13v1.28h-.13Z"/>
              <path class="b01i-cls-6" d="M268.08,229v-.76c0-.13-.04-.24-.11-.32-.08-.08-.18-.12-.32-.12-.07,0-.13.01-.19.03-.06.02-.11.05-.15.09-.04.04-.08.09-.1.14-.02.06-.04.12-.04.18v.74h-.13v-1.28h.13v.24c.05-.08.11-.14.19-.19s.18-.08.31-.08c.09,0,.16.01.23.04.07.03.13.06.17.11s.08.1.11.17.04.13.04.21v.78h-.13Z"/>
              <path class="b01i-cls-6" d="M268.69,227.39v-.17h.17v.17h-.17ZM268.71,229v-1.28h.13v1.28h-.13Z"/>
              <path class="b01i-cls-6" d="M270.41,229v-.76c0-.13-.04-.24-.11-.32-.08-.08-.18-.12-.32-.12-.07,0-.13.01-.19.03-.06.02-.11.05-.15.09-.04.04-.08.09-.1.14-.02.06-.04.12-.04.18v.74h-.13v-1.28h.13v.24c.05-.08.11-.14.19-.19s.18-.08.31-.08c.09,0,.16.01.23.04.07.03.13.06.17.11s.08.1.11.17.04.13.04.21v.78h-.13Z"/>
              <path class="b01i-cls-6" d="M272.29,228.62c-.04.08-.08.15-.15.21-.06.06-.14.11-.23.15-.09.04-.18.05-.28.05s-.2-.02-.28-.05c-.09-.04-.16-.08-.22-.14-.06-.06-.11-.13-.15-.21s-.05-.17-.05-.26h0c0-.1.02-.18.05-.26s.08-.15.15-.21c.06-.06.14-.11.23-.15.09-.04.18-.05.28-.05s.2.02.28.05c.08.04.16.08.22.14.06.06.11.13.15.21s.05.17.05.26h0c0,.09-.02.18-.05.26ZM272.2,228.36c0-.08-.01-.15-.04-.22-.03-.07-.07-.13-.12-.18-.05-.05-.11-.09-.18-.12-.07-.03-.14-.04-.22-.04s-.16.01-.23.04c-.07.03-.13.07-.18.12s-.09.11-.12.17c-.03.07-.04.14-.04.21h0c0,.08.01.15.04.22.03.07.07.13.12.18.05.05.11.09.18.12.07.03.14.04.22.04s.16-.01.23-.04c.07-.03.13-.07.18-.12.05-.05.09-.11.12-.17.03-.07.04-.14.04-.21h0Z"/>
              <path class="b01i-cls-6" d="M274.13,229.29v.11h-1.63v-.11h1.63Z"/>
              <path class="b01i-cls-6" d="M275.85,228.72c-.03.06-.08.11-.14.15s-.13.07-.21.1c-.08.02-.18.03-.28.03h-.82v-1.75h.78c.09,0,.17,0,.25.03.08.02.14.05.19.09.05.04.09.08.12.14.03.05.04.11.04.18h0c0,.07,0,.12-.03.16-.02.04-.04.08-.07.12-.03.03-.07.06-.1.08-.04.02-.08.04-.11.06.06.01.11.03.16.05.05.02.1.05.14.08.04.03.07.07.09.12s.04.1.04.16h0c0,.08-.02.14-.05.2ZM275.65,227.69c0-.1-.04-.18-.12-.24s-.2-.09-.35-.09h-.64v.69h.62c.07,0,.13,0,.19-.02.06-.02.11-.04.15-.07.04-.03.08-.07.1-.11.02-.04.04-.1.04-.16h0ZM275.76,228.52c0-.11-.05-.19-.15-.25-.1-.06-.24-.09-.43-.09h-.64v.71h.69c.16,0,.29-.03.39-.1.1-.06.14-.15.14-.26h0Z"/>
              <path class="b01i-cls-6" d="M277.76,228.47c-.04.11-.09.21-.16.29-.07.08-.15.15-.25.2-.1.05-.21.07-.33.07s-.23-.02-.33-.07c-.1-.05-.18-.11-.25-.2s-.12-.18-.16-.29-.05-.23-.05-.35.02-.24.05-.35c.04-.11.09-.21.16-.29.07-.08.15-.15.25-.2.1-.05.21-.07.33-.07s.23.02.33.07c.1.05.18.11.25.2.07.08.12.18.16.29s.05.23.05.35-.02.24-.06.35ZM277.63,227.83c-.03-.1-.07-.18-.13-.25-.06-.07-.12-.13-.2-.17-.08-.04-.17-.07-.26-.07s-.19.02-.26.06c-.08.04-.15.1-.2.17-.05.07-.1.16-.13.25-.03.09-.04.19-.04.29s.01.2.04.3c.03.09.07.18.13.25.06.07.12.13.2.17.08.04.17.07.26.07s.19-.02.26-.06c.08-.04.15-.1.2-.17.05-.07.1-.16.13-.25.03-.09.04-.19.04-.3s-.02-.2-.04-.3Z"/>
              <path class="b01i-cls-6" d="M278.49,227.23h.11v1.77h-.14v-1.63l-.36.12-.04-.1.43-.15Z"/>
              <path class="b01i-cls-6" d="M249.3,231.73c-.03.06-.08.11-.14.15-.06.04-.13.07-.21.09s-.17.03-.28.03h-.82v-1.75h.78c.09,0,.18.01.25.03.08.02.14.05.19.09.05.04.09.08.12.14.03.05.04.11.04.18h0c0,.06,0,.12-.03.16-.02.04-.04.08-.07.12-.03.03-.06.06-.1.08s-.08.04-.11.06c.06.01.11.03.16.05.05.02.1.05.14.08s.07.07.09.12.04.1.04.16h0c0,.08-.02.14-.05.2ZM249.11,230.7c0-.1-.04-.18-.12-.24-.08-.06-.2-.09-.35-.09h-.64v.69h.62c.07,0,.13,0,.19-.02.06-.02.11-.04.15-.07s.08-.07.1-.11c.02-.05.04-.1.04-.16h0ZM249.21,231.52c0-.11-.05-.19-.15-.25-.1-.06-.24-.09-.43-.09h-.64v.71h.69c.16,0,.29-.03.39-.1.09-.06.14-.15.14-.26h0Z"/>
              <path class="b01i-cls-6" d="M250.72,232.01v-.21s-.05.06-.09.09-.07.05-.11.08c-.04.02-.09.04-.15.06-.05.01-.12.02-.18.02s-.13,0-.19-.03c-.06-.02-.12-.04-.17-.08-.05-.03-.09-.08-.12-.12-.03-.05-.05-.11-.05-.18h0c0-.07.02-.13.04-.18.03-.05.07-.1.12-.13.05-.04.12-.06.19-.08.07-.02.16-.03.25-.03.1,0,.18,0,.25.01s.14.02.21.04v-.05c0-.13-.04-.23-.12-.29-.08-.07-.19-.1-.33-.1-.08,0-.16,0-.23.03-.07.02-.14.04-.2.07l-.05-.11c.08-.03.15-.06.23-.08s.16-.03.26-.03c.18,0,.32.04.42.13.1.08.15.21.15.38v.8h-.13ZM250.73,231.38c-.06-.01-.12-.03-.2-.04-.08-.01-.17-.02-.27-.02-.15,0-.26.03-.34.08-.08.05-.12.13-.12.22h0c0,.05.01.09.03.13.02.04.05.07.09.09.04.02.08.04.13.06.05.01.1.02.15.02.07,0,.14,0,.2-.03.06-.02.12-.05.17-.08s.09-.08.11-.12c.03-.05.04-.1.04-.16v-.15Z"/>
              <path class="b01i-cls-6" d="M251.89,232.02s-.07.01-.12.01c-.05,0-.1,0-.15-.02-.05-.01-.09-.03-.12-.06s-.06-.07-.08-.11-.03-.1-.03-.16v-.84h-.2v-.11h.2v-.41h.13v.41h.48v.11h-.48v.82c0,.09.03.16.08.19.05.04.12.05.2.05.03,0,.07,0,.1,0,.03,0,.07-.02.11-.03v.12s-.07.03-.11.03Z"/>
              <path class="b01i-cls-6" d="M253.45,232.01v-.76c0-.13-.04-.24-.11-.32-.08-.08-.18-.12-.32-.12-.07,0-.13.01-.19.03s-.11.05-.15.09c-.04.04-.08.09-.1.14s-.04.12-.04.18v.74h-.13v-1.83h.13v.79c.05-.08.11-.14.19-.19.08-.05.18-.08.31-.08.09,0,.16.01.23.04.07.03.13.06.17.11.05.05.08.1.11.17.02.06.04.13.04.21v.78h-.13Z"/>
              <path class="b01i-cls-6" d="M254.78,230.84c-.08,0-.16.01-.23.04-.07.03-.14.07-.19.12-.05.05-.1.12-.13.2-.03.08-.05.17-.05.27v.52h-.13v-1.28h.13v.36c.03-.06.06-.11.1-.16.04-.05.09-.09.14-.12.05-.03.11-.06.17-.08.06-.02.13-.03.2-.02v.14h-.01Z"/>
              <path class="b01i-cls-6" d="M256.34,231.62c-.04.08-.08.15-.15.21-.06.06-.14.11-.23.15-.09.04-.18.05-.28.05s-.2-.02-.28-.05c-.09-.04-.16-.08-.22-.14-.06-.06-.11-.13-.15-.21s-.05-.17-.05-.26h0c0-.09.02-.18.05-.26.04-.08.08-.15.15-.21.06-.06.14-.11.23-.15.09-.04.18-.05.28-.05s.2.02.28.05c.08.04.16.08.22.14.06.06.11.13.15.21.04.08.05.17.05.26h0c0,.1-.02.18-.05.26ZM256.25,231.37c0-.08-.01-.15-.04-.22-.03-.07-.07-.13-.12-.18-.05-.05-.11-.09-.18-.12-.07-.03-.14-.04-.22-.04s-.16.01-.23.04c-.07.03-.13.07-.18.12-.05.05-.09.11-.12.17-.03.07-.04.14-.04.21h0c0,.08.01.15.04.22.03.07.07.13.12.18.05.05.11.09.18.12.07.03.14.04.22.04s.16-.01.23-.04c.07-.03.13-.07.18-.12s.09-.11.12-.17c.03-.07.04-.14.04-.21h0Z"/>
              <path class="b01i-cls-6" d="M258.07,231.62c-.04.08-.08.15-.15.21-.06.06-.14.11-.23.15-.09.04-.18.05-.28.05s-.2-.02-.28-.05c-.09-.04-.16-.08-.22-.14-.06-.06-.11-.13-.15-.21s-.05-.17-.05-.26h0c0-.09.02-.18.05-.26.04-.08.08-.15.15-.21.06-.06.14-.11.23-.15.09-.04.18-.05.28-.05s.2.02.28.05.16.08.22.14c.06.06.11.13.15.21.04.08.05.17.05.26h0c0,.1-.02.18-.05.26ZM257.98,231.37c0-.08-.01-.15-.04-.22s-.07-.13-.12-.18-.11-.09-.18-.12c-.07-.03-.14-.04-.22-.04s-.16.01-.23.04c-.07.03-.13.07-.18.12-.05.05-.09.11-.12.17s-.04.14-.04.21h0c0,.08.01.15.04.22.03.07.07.13.12.18.05.05.11.09.18.12.07.03.14.04.22.04s.16-.01.23-.04.13-.07.18-.12.09-.11.12-.17c.03-.07.04-.14.04-.21h0Z"/>
              <path class="b01i-cls-6" d="M260.48,232.01v-.76c0-.14-.04-.25-.11-.32-.07-.08-.17-.11-.3-.11-.06,0-.11,0-.17.03-.05.02-.1.05-.14.09-.04.04-.07.09-.09.14-.02.06-.04.12-.04.19v.74h-.13v-.77c0-.13-.04-.24-.11-.31-.07-.08-.17-.11-.29-.11-.06,0-.12.01-.17.04-.05.02-.1.06-.14.1-.04.04-.07.09-.09.14-.02.06-.03.12-.03.18v.74h-.13v-1.28h.13v.23s.05-.07.07-.1c.03-.03.06-.06.1-.08s.08-.04.13-.06c.05-.01.1-.02.16-.02s.11,0,.16.02c.05.02.09.04.13.06.04.02.07.05.1.09.03.03.05.07.07.1.02-.04.05-.07.08-.1.03-.03.07-.06.11-.09.04-.03.09-.05.14-.06.05-.01.11-.02.17-.02.08,0,.15.01.22.04.07.03.12.06.17.11s.08.1.11.17c.02.07.04.14.04.22v.77h-.13Z"/>
            </g>
          </g>
          <g id="B01_sala_0003_entrada_de_narnia_b1_e_b2banheiro_b1batisterio_tencomun_b2ensaio_b1pastoreo_b1">
            <g id="B01_sala_0003_entrada_de_narnia_b1_e_b2banheiro_b1batisterio_tencomun_b2ensaio_b1pastoreo_b1-2" data-name="B01_sala_0003_entrada_de_narnia_b1_e_b2banheiro_b1batisterio_tencomun_b2ensaio_b1pastoreo_b1">
              <g>
                <path class="b01i-cls-6" d="M466.4,168.66v-1.61h1.25v.11h-1.12v.64h1v.11h-1v.65h1.13v.11h-1.26Z"/>
                <path class="b01i-cls-6" d="M469.02,168.66v-.7c0-.12-.04-.22-.11-.29-.07-.07-.17-.11-.3-.11-.06,0-.12,0-.17.03-.05.02-.1.05-.14.09s-.07.08-.09.13-.03.11-.03.17v.68h-.12v-1.18h.12v.22c.04-.07.1-.13.18-.17.07-.05.17-.07.28-.07.08,0,.15.01.21.04.06.02.12.06.16.1.04.04.08.09.1.15.02.06.03.12.03.19v.72h-.12Z"/>
                <path class="b01i-cls-6" d="M470.11,168.67s-.07,0-.11,0c-.05,0-.1,0-.14-.02-.04-.01-.08-.03-.11-.06-.03-.03-.06-.06-.08-.1-.02-.04-.03-.09-.03-.14v-.77h-.18v-.1h.18v-.38h.12v.38h.45v.1h-.45v.76c0,.08.02.14.07.18.05.03.11.05.18.05.03,0,.06,0,.09,0s.06-.02.1-.03v.11s-.07.02-.1.03Z"/>
                <path class="b01i-cls-6" d="M471.25,167.59c-.07,0-.14.01-.21.04-.07.03-.12.06-.18.11s-.09.11-.12.18c-.03.07-.04.16-.04.25v.48h-.12v-1.18h.12v.33c.03-.05.06-.1.1-.14.04-.04.08-.08.13-.11.05-.03.1-.06.16-.07.06-.02.12-.02.18-.02v.12h-.01Z"/>
                <path class="b01i-cls-6" d="M472.39,168.66v-.2s-.05.06-.08.08c-.03.03-.07.05-.11.07-.04.02-.08.04-.14.05-.05.01-.11.02-.17.02s-.12,0-.18-.02c-.06-.02-.11-.04-.16-.07-.05-.03-.08-.07-.11-.12s-.04-.1-.04-.16h0c0-.07.01-.12.04-.17s.07-.09.11-.12c.05-.03.11-.06.17-.07s.14-.03.23-.03c.09,0,.17,0,.23.01.07,0,.13.02.19.04v-.05c0-.12-.04-.21-.11-.27s-.18-.09-.31-.09c-.08,0-.15,0-.21.03-.07.02-.13.04-.19.07l-.04-.1c.07-.03.14-.06.21-.08.07-.02.15-.03.24-.03.17,0,.29.04.39.12.09.08.14.19.14.35v.73h-.12ZM472.39,168.08c-.05-.01-.12-.02-.19-.04-.07-.01-.15-.02-.24-.02-.14,0-.24.02-.31.07s-.11.12-.11.2h0s0,.08.03.12c.02.03.05.06.08.08.03.02.07.04.12.05.04.01.09.02.14.02.07,0,.13,0,.19-.03.06-.02.11-.04.15-.07s.08-.07.11-.11c.03-.04.04-.09.04-.15v-.13Z"/>
                <path class="b01i-cls-6" d="M474.01,168.66v-.26s-.06.08-.09.11-.07.07-.12.09c-.04.03-.09.05-.14.06-.05.02-.11.02-.17.02-.08,0-.15-.01-.23-.04s-.14-.07-.2-.12c-.06-.05-.11-.12-.14-.19-.04-.08-.05-.16-.05-.26h0c0-.1.02-.19.05-.26.04-.08.08-.14.14-.19.06-.05.12-.09.2-.12s.15-.04.23-.04c.06,0,.12,0,.17.02.05.02.1.04.14.06.04.03.08.06.11.09s.06.07.09.11v-.76h.12v1.68h-.12ZM474.02,168.07c0-.08-.01-.14-.04-.21-.03-.06-.07-.12-.12-.16-.05-.04-.1-.08-.17-.1-.06-.02-.13-.04-.19-.04-.07,0-.14.01-.2.03-.06.02-.11.06-.16.1-.04.04-.08.1-.11.16-.03.06-.04.13-.04.21h0c0,.08.01.15.04.21.03.06.06.12.11.16s.1.08.16.1c.06.02.12.04.19.04s.13-.01.19-.04c.06-.03.12-.06.17-.1.05-.04.09-.1.12-.16.03-.06.04-.13.04-.21h0Z"/>
                <path class="b01i-cls-6" d="M475.48,168.66v-.2s-.05.06-.08.08c-.03.03-.07.05-.11.07-.04.02-.08.04-.14.05-.05.01-.11.02-.17.02s-.12,0-.18-.02c-.06-.02-.11-.04-.16-.07-.05-.03-.08-.07-.11-.12s-.04-.1-.04-.16h0c0-.07.01-.12.04-.17s.07-.09.11-.12c.05-.03.11-.06.17-.07s.14-.03.23-.03c.09,0,.17,0,.23.01.07,0,.13.02.19.04v-.05c0-.12-.04-.21-.11-.27s-.18-.09-.31-.09c-.08,0-.15,0-.21.03-.07.02-.13.04-.19.07l-.04-.1c.07-.03.14-.06.21-.08.07-.02.15-.03.24-.03.17,0,.29.04.39.12.09.08.14.19.14.35v.73h-.12ZM475.48,168.08c-.05-.01-.12-.02-.19-.04-.07-.01-.15-.02-.24-.02-.14,0-.24.02-.31.07s-.11.12-.11.2h0s0,.08.03.12c.02.03.05.06.08.08.03.02.07.04.12.05.04.01.09.02.14.02.07,0,.13,0,.19-.03.06-.02.11-.04.15-.07s.08-.07.11-.11c.03-.04.04-.09.04-.15v-.13Z"/>
                <path class="b01i-cls-6" d="M478.6,168.66v-.26s-.06.08-.09.11-.07.07-.12.09c-.04.03-.09.05-.14.06-.05.02-.11.02-.17.02-.08,0-.15-.01-.23-.04s-.14-.07-.2-.12c-.06-.05-.11-.12-.14-.19-.04-.08-.05-.16-.05-.26h0c0-.1.02-.19.05-.26.04-.08.08-.14.14-.19.06-.05.12-.09.2-.12s.15-.04.23-.04c.06,0,.12,0,.17.02.05.02.1.04.14.06.04.03.08.06.11.09s.06.07.09.11v-.76h.12v1.68h-.12ZM478.6,168.07c0-.08-.01-.14-.04-.21-.03-.06-.07-.12-.12-.16-.05-.04-.1-.08-.17-.1-.06-.02-.13-.04-.19-.04-.07,0-.14.01-.2.03-.06.02-.11.06-.16.1-.04.04-.08.1-.11.16-.03.06-.04.13-.04.21h0c0,.08.01.15.04.21.03.06.06.12.11.16s.1.08.16.1c.06.02.12.04.19.04s.13-.01.19-.04c.06-.03.12-.06.17-.1.05-.04.09-.1.12-.16.03-.06.04-.13.04-.21h0Z"/>
                <path class="b01i-cls-6" d="M479.28,168.31c.03.06.07.1.11.14s.1.07.15.09.12.03.18.03c.1,0,.18-.02.25-.05s.13-.08.18-.13l.08.07c-.07.06-.14.12-.22.16-.08.04-.18.06-.31.06-.08,0-.16-.01-.24-.04-.08-.03-.14-.07-.2-.12s-.1-.12-.14-.19-.05-.16-.05-.25h0c0-.09.02-.17.05-.24.03-.07.07-.14.13-.19.05-.06.12-.1.19-.13s.15-.05.24-.05.17.02.24.05.13.08.18.13c.05.06.09.12.12.2.03.07.04.16.04.24h0v.03s0,.01,0,.02h-1.06c0,.07.02.14.05.2ZM480.16,168.01c0-.06-.02-.12-.04-.17-.02-.05-.05-.1-.09-.14-.04-.04-.08-.08-.14-.1-.05-.03-.12-.04-.19-.04-.06,0-.12.01-.18.03-.06.02-.1.06-.14.1-.04.04-.07.09-.1.15-.03.06-.04.12-.05.18h.93Z"/>
                <path class="b01i-cls-6" d="M482.78,168.66l-1.23-1.43v1.43h-.12v-1.61h.12l1.21,1.4v-1.4h.12v1.61h-.1Z"/>
                <path class="b01i-cls-6" d="M484.24,168.66v-.2s-.05.06-.08.08c-.03.03-.07.05-.11.07-.04.02-.08.04-.14.05-.05.01-.11.02-.17.02s-.12,0-.18-.02c-.06-.02-.11-.04-.16-.07-.05-.03-.08-.07-.11-.12s-.04-.1-.04-.16h0c0-.07.01-.12.04-.17s.07-.09.11-.12c.05-.03.11-.06.17-.07s.14-.03.23-.03c.09,0,.17,0,.23.01.07,0,.13.02.19.04v-.05c0-.12-.04-.21-.11-.27s-.18-.09-.31-.09c-.08,0-.15,0-.21.03-.07.02-.13.04-.19.07l-.04-.1c.07-.03.14-.06.21-.08.07-.02.15-.03.24-.03.17,0,.29.04.39.12.09.08.14.19.14.35v.73h-.12ZM484.24,168.08c-.05-.01-.12-.02-.19-.04-.07-.01-.15-.02-.24-.02-.14,0-.24.02-.31.07s-.11.12-.11.2h0s0,.08.03.12c.02.03.05.06.08.08.03.02.07.04.12.05.04.01.09.02.14.02.07,0,.13,0,.19-.03.06-.02.11-.04.15-.07s.08-.07.11-.11c.03-.04.04-.09.04-.15v-.13Z"/>
                <path class="b01i-cls-6" d="M485.48,167.59c-.07,0-.14.01-.21.04-.07.03-.12.06-.18.11s-.09.11-.12.18c-.03.07-.04.16-.04.25v.48h-.12v-1.18h.12v.33c.03-.05.06-.1.1-.14.04-.04.08-.08.13-.11.05-.03.1-.06.16-.07.06-.02.12-.02.18-.02v.12h-.01Z"/>
                <path class="b01i-cls-6" d="M486.77,168.66v-.7c0-.12-.04-.22-.11-.29-.07-.07-.17-.11-.3-.11-.06,0-.12,0-.17.03-.05.02-.1.05-.14.09s-.07.08-.09.13-.03.11-.03.17v.68h-.12v-1.18h.12v.22c.04-.07.1-.13.18-.17.07-.05.17-.07.28-.07.08,0,.15.01.21.04.06.02.12.06.16.1.04.04.08.09.1.15.02.06.03.12.03.19v.72h-.12Z"/>
                <path class="b01i-cls-6" d="M487.34,167.17v-.15h.15v.15h-.15ZM487.35,168.66v-1.18h.12v1.18h-.12Z"/>
                <path class="b01i-cls-6" d="M488.83,168.66v-.2s-.05.06-.08.08c-.03.03-.07.05-.11.07-.04.02-.08.04-.14.05-.05.01-.11.02-.17.02s-.12,0-.18-.02c-.06-.02-.11-.04-.16-.07-.05-.03-.08-.07-.11-.12s-.04-.1-.04-.16h0c0-.07.01-.12.04-.17s.07-.09.11-.12c.05-.03.11-.06.17-.07s.14-.03.23-.03c.09,0,.17,0,.23.01.07,0,.13.02.19.04v-.05c0-.12-.04-.21-.11-.27s-.18-.09-.31-.09c-.08,0-.15,0-.21.03-.07.02-.13.04-.19.07l-.04-.1c.07-.03.14-.06.21-.08.07-.02.15-.03.24-.03.17,0,.29.04.39.12.09.08.14.19.14.35v.73h-.12ZM488.83,168.08c-.05-.01-.12-.02-.19-.04-.07-.01-.15-.02-.24-.02-.14,0-.24.02-.31.07s-.11.12-.11.2h0s0,.08.03.12c.02.03.05.06.08.08.03.02.07.04.12.05.04.01.09.02.14.02.07,0,.13,0,.19-.03.06-.02.11-.04.15-.07s.08-.07.11-.11c.03-.04.04-.09.04-.15v-.13Z"/>
                <path class="b01i-cls-6" d="M489.38,167.68v-.2h.17v.2h-.17ZM489.38,168.66v-.2h.17v.2h-.17Z"/>
                <path class="b01i-cls-6" d="M492.11,168.4c-.03.05-.07.1-.13.14-.06.04-.12.07-.2.09-.08.02-.16.03-.26.03h-.76v-1.61h.72c.08,0,.16,0,.23.03.07.02.13.04.18.08.05.04.09.08.12.13.03.05.04.1.04.16h0c0,.06,0,.11-.03.15s-.04.08-.07.11c-.03.03-.06.06-.1.08-.04.02-.07.04-.11.05.05.01.1.03.15.05.05.02.09.05.13.08.04.03.06.07.09.11.02.04.03.09.03.15h0c0,.07-.01.13-.04.19ZM491.92,167.45c0-.09-.04-.16-.11-.22-.08-.06-.18-.08-.33-.08h-.59v.64h.58c.07,0,.12,0,.18-.02.05-.01.1-.04.14-.06.04-.03.07-.06.09-.1.02-.04.03-.09.03-.14h0ZM492.02,168.21c0-.1-.05-.18-.14-.23s-.22-.08-.4-.08h-.59v.65h.63c.15,0,.27-.03.36-.09.09-.06.13-.14.13-.24h0Z"/>
                <path class="b01i-cls-6" d="M492.79,167.03h.1v1.62h-.13v-1.5l-.34.11-.04-.09.4-.14Z"/>
                <path class="b01i-cls-6" d="M494.23,168.31c.03.06.07.1.11.14s.1.07.15.09.12.03.18.03c.1,0,.18-.02.25-.05s.13-.08.18-.13l.08.07c-.07.06-.14.12-.22.16-.08.04-.18.06-.31.06-.08,0-.16-.01-.24-.04-.08-.03-.14-.07-.2-.12s-.1-.12-.14-.19-.05-.16-.05-.25h0c0-.09.02-.17.05-.24.03-.07.07-.14.13-.19.05-.06.12-.1.19-.13s.15-.05.24-.05.17.02.24.05.13.08.18.13c.05.06.09.12.12.2.03.07.04.16.04.24h0v.03s0,.01,0,.02h-1.06c0,.07.02.14.05.2ZM495.1,168.01c0-.06-.02-.12-.04-.17-.02-.05-.05-.1-.09-.14-.04-.04-.08-.08-.14-.1-.05-.03-.12-.04-.19-.04-.06,0-.12.01-.18.03-.06.02-.1.06-.14.1-.04.04-.07.09-.1.15-.03.06-.04.12-.05.18h.93Z"/>
                <path class="b01i-cls-6" d="M497.71,168.4c-.03.05-.07.1-.13.14-.06.04-.12.07-.2.09-.08.02-.16.03-.26.03h-.76v-1.61h.72c.08,0,.16,0,.23.03.07.02.13.04.18.08.05.04.09.08.12.13.03.05.04.1.04.16h0c0,.06,0,.11-.03.15s-.04.08-.07.11c-.03.03-.06.06-.1.08-.04.02-.07.04-.11.05.05.01.1.03.15.05.05.02.09.05.13.08.04.03.06.07.09.11.02.04.03.09.03.15h0c0,.07-.01.13-.04.19ZM497.53,167.45c0-.09-.04-.16-.11-.22-.08-.06-.18-.08-.33-.08h-.59v.64h.58c.07,0,.12,0,.18-.02.05-.01.1-.04.14-.06.04-.03.07-.06.09-.1.02-.04.03-.09.03-.14h0ZM497.62,168.21c0-.1-.05-.18-.14-.23s-.22-.08-.4-.08h-.59v.65h.63c.15,0,.27-.03.36-.09.09-.06.13-.14.13-.24h0Z"/>
                <path class="b01i-cls-6" d="M498.39,167.21c-.08.05-.15.12-.23.22l-.1-.06c.04-.05.08-.1.12-.14.04-.04.09-.08.13-.11.05-.03.1-.05.16-.07s.13-.02.21-.02.14.01.21.03.12.05.16.09.08.09.11.14c.03.05.04.11.04.18,0,.06,0,.11-.02.16-.02.05-.04.1-.08.14-.04.05-.08.1-.14.15-.06.05-.12.11-.2.18l-.53.45h.99v.12h-1.19v-.09l.65-.54c.07-.06.13-.11.18-.16.05-.05.09-.09.12-.14.03-.04.05-.08.07-.12.01-.04.02-.08.02-.12,0-.05-.01-.1-.03-.14s-.05-.08-.09-.11c-.04-.03-.08-.05-.13-.07-.05-.02-.1-.02-.15-.02-.11,0-.21.03-.29.08Z"/>
                <path class="b01i-cls-6" d="M467.74,171.17c-.03.05-.07.1-.13.14-.06.04-.12.07-.2.09-.08.02-.16.03-.26.03h-.76v-1.61h.72c.08,0,.16,0,.23.03.07.02.13.04.18.08.05.04.09.08.12.13.03.05.04.1.04.16h0c0,.06,0,.11-.03.15s-.04.08-.07.11c-.03.03-.06.06-.1.08-.04.02-.07.04-.11.05.05.01.1.03.15.05.05.02.09.05.13.08.04.03.06.07.09.11.02.04.03.09.03.15h0c0,.07-.01.13-.04.19ZM467.56,170.22c0-.09-.04-.16-.11-.22-.08-.06-.18-.08-.33-.08h-.59v.64h.58c.07,0,.12,0,.18-.02.05-.01.1-.04.14-.06.04-.03.07-.06.09-.1.02-.04.03-.09.03-.14h0ZM467.66,170.98c0-.1-.05-.18-.14-.23s-.22-.08-.4-.08h-.59v.65h.63c.15,0,.27-.03.36-.09.09-.06.13-.14.13-.24h0Z"/>
                <path class="b01i-cls-6" d="M469.05,171.42v-.2s-.05.06-.08.08c-.03.03-.07.05-.11.07-.04.02-.08.04-.14.05-.05.01-.11.02-.17.02s-.12,0-.18-.02c-.06-.02-.11-.04-.16-.07-.05-.03-.08-.07-.11-.12s-.04-.1-.04-.16h0c0-.07.01-.12.04-.17s.07-.09.11-.12c.05-.03.11-.06.17-.07s.14-.03.23-.03c.09,0,.17,0,.23.01.07,0,.13.02.19.04v-.05c0-.12-.04-.21-.11-.27s-.18-.09-.31-.09c-.08,0-.15,0-.21.03-.07.02-.13.04-.19.07l-.04-.1c.07-.03.14-.06.21-.08.07-.02.15-.03.24-.03.17,0,.29.04.39.12.09.08.14.19.14.35v.73h-.12ZM469.06,170.85c-.05-.01-.12-.02-.19-.04-.07-.01-.15-.02-.24-.02-.14,0-.24.02-.31.07s-.11.12-.11.2h0s0,.08.03.12c.02.03.05.06.08.08.03.02.07.04.12.05.04.01.09.02.14.02.07,0,.13,0,.19-.03.06-.02.11-.04.15-.07s.08-.07.11-.11c.03-.04.04-.09.04-.15v-.13Z"/>
                <path class="b01i-cls-6" d="M470.58,171.42v-.7c0-.12-.04-.22-.11-.29-.07-.07-.17-.11-.3-.11-.06,0-.12,0-.17.03-.05.02-.1.05-.14.09s-.07.08-.09.13-.03.11-.03.17v.68h-.12v-1.18h.12v.22c.04-.07.1-.13.18-.17.07-.05.17-.07.28-.07.08,0,.15.01.21.04.06.02.12.06.16.1.04.04.08.09.1.15.02.06.03.12.03.19v.72h-.12Z"/>
                <path class="b01i-cls-6" d="M472.11,171.42v-.7c0-.12-.04-.22-.11-.29-.07-.07-.17-.11-.3-.11-.06,0-.12,0-.17.03-.05.02-.1.05-.14.09s-.07.08-.09.13-.03.11-.03.17v.68h-.12v-1.68h.12v.73c.04-.07.1-.13.18-.17.07-.05.17-.07.28-.07.08,0,.15.01.21.04.06.02.12.06.16.1.04.04.08.09.1.15.02.06.03.12.03.19v.72h-.12Z"/>
                <path class="b01i-cls-6" d="M472.77,171.08c.03.06.07.1.11.14s.1.07.15.09.12.03.18.03c.1,0,.18-.02.25-.05s.13-.08.18-.13l.08.07c-.07.06-.14.12-.22.16-.08.04-.18.06-.31.06-.08,0-.16-.01-.24-.04-.08-.03-.14-.07-.2-.12s-.1-.12-.14-.19-.05-.16-.05-.25h0c0-.09.02-.17.05-.24.03-.07.07-.14.13-.19.05-.06.12-.1.19-.13s.15-.05.24-.05.17.02.24.05.13.08.18.13c.05.06.09.12.12.2.03.07.04.16.04.24h0v.03s0,.01,0,.02h-1.06c0,.07.02.14.05.2ZM473.65,170.78c0-.06-.02-.12-.04-.17-.02-.05-.05-.1-.09-.14-.04-.04-.08-.08-.14-.1-.05-.03-.12-.04-.19-.04-.06,0-.12.01-.18.03-.06.02-.1.06-.14.1-.04.04-.07.09-.1.15-.03.06-.04.12-.05.18h.93Z"/>
                <path class="b01i-cls-6" d="M474.14,169.94v-.15h.15v.15h-.15ZM474.15,171.42v-1.18h.12v1.18h-.12Z"/>
                <path class="b01i-cls-6" d="M475.43,170.35c-.07,0-.14.01-.21.04-.07.03-.12.06-.18.11s-.09.11-.12.18c-.03.07-.04.16-.04.25v.48h-.12v-1.18h.12v.33c.03-.05.06-.1.1-.14.04-.04.08-.08.13-.11.05-.03.1-.06.16-.07.06-.02.12-.02.18-.02v.12h-.01Z"/>
                <path class="b01i-cls-6" d="M476.87,171.07c-.03.07-.08.14-.14.2-.06.06-.13.1-.21.14-.08.03-.17.05-.26.05s-.18-.02-.26-.05c-.08-.03-.15-.08-.21-.13-.06-.06-.1-.12-.14-.19-.03-.07-.05-.15-.05-.23h0c0-.09.02-.17.05-.24.03-.07.08-.14.14-.2.06-.06.13-.1.21-.13.08-.03.17-.05.26-.05s.18.02.26.05c.08.03.15.08.21.13s.1.12.14.19c.03.07.05.15.05.24h0c0,.09-.02.17-.05.24ZM476.79,170.84c0-.07-.01-.14-.04-.2-.03-.06-.06-.12-.11-.16s-.1-.08-.17-.11c-.06-.03-.13-.04-.21-.04s-.14.01-.21.04c-.06.03-.12.06-.17.11s-.08.1-.11.16c-.03.06-.04.13-.04.19h0c0,.08.01.14.04.2.03.06.06.12.11.16s.1.08.17.11c.06.03.13.04.21.04s.15-.01.21-.04c.06-.03.12-.06.17-.11s.08-.1.11-.16c.03-.06.04-.13.04-.19h0Z"/>
                <path class="b01i-cls-6" d="M479.41,171.17c-.03.05-.07.1-.13.14-.06.04-.12.07-.2.09-.08.02-.16.03-.26.03h-.76v-1.61h.72c.08,0,.16,0,.23.03.07.02.13.04.18.08.05.04.09.08.12.13.03.05.04.1.04.16h0c0,.06,0,.11-.03.15s-.04.08-.07.11c-.03.03-.06.06-.1.08-.04.02-.07.04-.11.05.05.01.1.03.15.05.05.02.09.05.13.08.04.03.06.07.09.11.02.04.03.09.03.15h0c0,.07-.01.13-.04.19ZM479.23,170.22c0-.09-.04-.16-.11-.22-.08-.06-.18-.08-.33-.08h-.59v.64h.58c.07,0,.12,0,.18-.02.05-.01.1-.04.14-.06.04-.03.07-.06.09-.1.02-.04.03-.09.03-.14h0ZM479.33,170.98c0-.1-.05-.18-.14-.23s-.22-.08-.4-.08h-.59v.65h.63c.15,0,.27-.03.36-.09.09-.06.13-.14.13-.24h0Z"/>
                <path class="b01i-cls-6" d="M480.09,169.8h.1v1.62h-.13v-1.5l-.34.11-.04-.09.4-.14Z"/>
                <path class="b01i-cls-6" d="M466.4,172.58h.72c.2,0,.36.05.46.14.07.07.11.15.11.26h0c0,.21-.15.34-.32.39.23.04.42.18.42.39h0c0,.27-.24.43-.63.43h-.76v-1.61ZM467.14,173.34c.26,0,.47-.12.47-.35h0c0-.21-.18-.34-.49-.34h-.63v.69h.65ZM467.16,174.12c.34,0,.54-.13.54-.35h0c0-.23-.22-.35-.53-.35h-.69v.71h.68Z"/>
                <path class="b01i-cls-6" d="M468.08,173.86h0c0-.25.24-.38.56-.38.17,0,.33.03.45.06v-.08c0-.26-.17-.39-.45-.39-.16,0-.29.04-.41.1l-.03-.06c.14-.06.28-.1.45-.1s.31.04.4.13c.08.08.12.19.12.33v.72h-.08v-.24c-.06.13-.24.27-.53.27-.24,0-.48-.12-.48-.35ZM469.09,173.76v-.14c-.12-.04-.27-.06-.46-.06-.28,0-.47.11-.47.3h0c0,.2.19.29.4.29.31,0,.53-.18.53-.39Z"/>
                <path class="b01i-cls-6" d="M469.66,173.89v-.8h-.19v-.07h.19v-.39h.08v.39h.46v.07h-.46v.79c0,.17.1.25.26.25.06,0,.12-.01.19-.04v.07c-.06.03-.13.04-.2.04-.2,0-.33-.11-.33-.32Z"/>
                <path class="b01i-cls-6" d="M470.56,172.57h.11v.14h-.11v-.14ZM470.57,173.03h.08v1.16h-.08v-1.16Z"/>
                <path class="b01i-cls-6" d="M471.01,174.04l.05-.06c.14.1.31.16.47.16.2,0,.36-.1.36-.24h0c0-.17-.19-.22-.38-.27-.24-.06-.44-.12-.44-.32h0c0-.18.17-.31.43-.31.14,0,.31.05.44.13l-.04.06c-.12-.08-.27-.12-.4-.12-.21,0-.35.1-.35.23h0c0,.15.18.2.38.26.23.06.44.12.44.33h0c0,.2-.2.32-.45.32-.18,0-.38-.06-.51-.17Z"/>
                <path class="b01i-cls-6" d="M472.4,173.89v-.8h-.19v-.07h.19v-.39h.08v.39h.46v.07h-.46v.79c0,.17.1.25.26.25.06,0,.12-.01.19-.04v.07c-.06.03-.13.04-.2.04-.2,0-.33-.11-.33-.32Z"/>
                <path class="b01i-cls-6" d="M473.21,173.61h0c0-.34.25-.61.6-.61.38,0,.58.3.58.61v.03h-1.09c.02.32.26.51.54.51.2,0,.35-.09.45-.21l.06.04c-.12.14-.29.24-.52.24-.34,0-.62-.24-.62-.61ZM474.3,173.57c-.01-.25-.18-.5-.5-.5-.29,0-.5.21-.51.5h1.01ZM473.95,172.52l.1.05-.27.25h-.06l.23-.29Z"/>
                <path class="b01i-cls-6" d="M474.75,173.03h.08v.35c.08-.2.27-.38.54-.38v.08h-.01c-.31,0-.52.27-.52.56v.55h-.08v-1.16Z"/>
                <path class="b01i-cls-6" d="M475.66,172.57h.11v.14h-.11v-.14ZM475.67,173.03h.08v1.16h-.08v-1.16Z"/>
                <path class="b01i-cls-6" d="M476.14,173.61h0c0-.33.27-.61.66-.61s.65.28.65.6h0c0,.33-.27.61-.65.61s-.65-.28-.65-.6ZM477.36,173.61h0c0-.3-.24-.54-.57-.54s-.56.24-.56.54h0c0,.3.24.54.57.54s.57-.25.57-.54Z"/>
                <path class="b01i-cls-6" d="M479.03,172.65h-.62v-.07h1.33v.07h-.62v1.54h-.09v-1.54Z"/>
                <path class="b01i-cls-6" d="M466.4,176.96v-1.61h1.25v.11h-1.12v.64h1v.11h-1v.65h1.13v.11h-1.26Z"/>
                <path class="b01i-cls-6" d="M469.02,176.96v-.7c0-.12-.04-.22-.11-.29-.07-.07-.17-.11-.3-.11-.06,0-.12,0-.17.03-.05.02-.1.05-.14.09s-.07.08-.09.13-.03.11-.03.17v.68h-.12v-1.18h.12v.22c.04-.07.1-.13.18-.17.07-.05.17-.07.28-.07.08,0,.15.01.21.04.06.02.12.06.16.1.04.04.08.09.1.15.02.06.03.12.03.19v.72h-.12Z"/>
                <path class="b01i-cls-6" d="M470.44,176.92c-.08.04-.18.07-.3.07-.09,0-.18-.02-.26-.05-.08-.03-.15-.08-.21-.13-.06-.06-.1-.12-.14-.19-.03-.07-.05-.15-.05-.23h0c0-.09.02-.17.05-.24.03-.07.08-.14.14-.2.06-.06.13-.1.21-.13.08-.03.16-.05.26-.05.06,0,.12,0,.16.02s.09.03.14.05c.04.02.08.04.11.07s.07.05.1.08l-.09.08c-.06-.05-.12-.1-.18-.14-.07-.04-.15-.06-.24-.06-.07,0-.14.01-.2.04-.06.03-.12.06-.16.11s-.08.1-.11.16c-.03.06-.04.13-.04.2h0c0,.08.01.14.04.2.03.06.06.12.11.16s.1.08.17.11c.06.03.13.04.21.04.09,0,.17-.02.24-.06.07-.04.13-.08.19-.14l.08.07c-.07.07-.14.12-.22.17Z"/>
                <path class="b01i-cls-6" d="M472.14,176.6c-.03.07-.08.14-.14.2-.06.06-.13.1-.21.14-.08.03-.17.05-.26.05s-.18-.02-.26-.05c-.08-.03-.15-.08-.21-.13-.06-.06-.1-.12-.14-.19-.03-.07-.05-.15-.05-.23h0c0-.09.02-.17.05-.24.03-.07.08-.14.14-.2.06-.06.13-.1.21-.13.08-.03.17-.05.26-.05s.18.02.26.05c.08.03.15.08.21.13s.1.12.14.19c.03.07.05.15.05.24h0c0,.09-.02.17-.05.24ZM472.06,176.37c0-.07-.01-.14-.04-.2-.03-.06-.06-.12-.11-.16s-.1-.08-.17-.11c-.06-.03-.13-.04-.21-.04s-.14.01-.21.04c-.06.03-.12.06-.17.11s-.08.1-.11.16c-.03.06-.04.13-.04.19h0c0,.08.01.14.04.2.03.06.06.12.11.16s.1.08.17.11c.06.03.13.04.21.04s.15-.01.21-.04c.06-.03.12-.06.17-.11s.08-.1.11-.16c.03-.06.04-.13.04-.19h0Z"/>
                <path class="b01i-cls-6" d="M474.37,176.96v-.7c0-.13-.03-.23-.1-.3-.07-.07-.16-.1-.28-.1-.05,0-.1,0-.15.03s-.09.05-.13.08c-.04.04-.07.08-.09.13-.02.05-.03.11-.03.18v.68h-.12v-.71c0-.12-.03-.22-.1-.29-.07-.07-.16-.1-.27-.1-.06,0-.11.01-.16.03s-.09.05-.13.09c-.04.04-.07.08-.09.13-.02.05-.03.11-.03.17v.68h-.12v-1.18h.12v.21s.04-.06.07-.09c.03-.03.05-.05.09-.08.03-.02.07-.04.12-.05.04-.01.09-.02.15-.02s.11,0,.15.02.09.03.12.05c.04.02.07.05.09.08.03.03.05.06.07.1.02-.03.04-.06.07-.09.03-.03.06-.06.1-.08.04-.02.08-.04.13-.06.05-.01.1-.02.16-.02.07,0,.14.01.2.04.06.02.11.06.16.1s.08.09.1.15.03.13.03.2v.71h-.12Z"/>
                <path class="b01i-cls-6" d="M475.89,176.96v-.22c-.04.07-.1.13-.17.17s-.17.07-.29.07c-.08,0-.15-.01-.21-.04-.06-.02-.12-.06-.16-.1-.04-.04-.08-.09-.1-.15s-.03-.12-.03-.19v-.72h.12v.7c0,.12.04.22.1.29.07.07.17.11.3.11.06,0,.12-.01.17-.03.05-.02.1-.05.14-.09.04-.04.07-.08.09-.13s.03-.11.03-.17v-.68h.12v1.18h-.12Z"/>
                <path class="b01i-cls-6" d="M477.45,176.96v-.7c0-.12-.04-.22-.11-.29-.07-.07-.17-.11-.3-.11-.06,0-.12,0-.17.03-.05.02-.1.05-.14.09s-.07.08-.09.13-.03.11-.03.17v.68h-.12v-1.18h.12v.22c.04-.07.1-.13.18-.17.07-.05.17-.07.28-.07.08,0,.15.01.21.04.06.02.12.06.16.1.04.04.08.09.1.15.02.06.03.12.03.19v.72h-.12Z"/>
                <path class="b01i-cls-6" d="M480.13,176.7c-.03.05-.07.1-.13.14-.06.04-.12.07-.2.09-.08.02-.16.03-.26.03h-.76v-1.61h.72c.08,0,.16,0,.23.03.07.02.13.04.18.08.05.04.09.08.12.13.03.05.04.1.04.16h0c0,.06,0,.11-.03.15s-.04.08-.07.11c-.03.03-.06.06-.1.08-.04.02-.07.04-.11.05.05.01.1.03.15.05.05.02.09.05.13.08.04.03.06.07.09.11.02.04.03.09.03.15h0c0,.07-.01.13-.04.19ZM479.94,175.75c0-.09-.04-.16-.11-.22-.08-.06-.18-.08-.33-.08h-.59v.64h.58c.07,0,.12,0,.18-.02.05-.01.1-.04.14-.06.04-.03.07-.06.09-.1.02-.04.03-.09.03-.14h0ZM480.04,176.51c0-.1-.05-.18-.14-.23s-.22-.08-.4-.08h-.59v.65h.63c.15,0,.27-.03.36-.09.09-.06.13-.14.13-.24h0Z"/>
                <path class="b01i-cls-6" d="M480.81,175.51c-.08.05-.15.12-.23.22l-.1-.06c.04-.05.08-.1.12-.14.04-.04.09-.08.13-.11.05-.03.1-.05.16-.07s.13-.02.21-.02.14.01.21.03.12.05.16.09.08.09.11.14c.03.05.04.11.04.18,0,.06,0,.11-.02.16-.02.05-.04.1-.08.14-.04.05-.08.1-.14.15-.06.05-.12.11-.2.18l-.53.45h.99v.12h-1.19v-.09l.65-.54c.07-.06.13-.11.18-.16.05-.05.09-.09.12-.14.03-.04.05-.08.07-.12.01-.04.02-.08.02-.12,0-.05-.01-.1-.03-.14s-.05-.08-.09-.11c-.04-.03-.08-.05-.13-.07-.05-.02-.1-.02-.15-.02-.11,0-.21.03-.29.08Z"/>
                <path class="b01i-cls-6" d="M466.4,178.11h1.23v.07h-1.15v.69h1.04v.07h-1.04v.71h1.16v.07h-1.25v-1.61Z"/>
                <path class="b01i-cls-6" d="M468.04,178.56h.08v.28c.06-.14.22-.3.49-.3.33,0,.52.21.52.51v.68h-.08v-.67c0-.27-.16-.45-.45-.45-.26,0-.48.2-.48.47v.65h-.08v-1.16Z"/>
                <path class="b01i-cls-6" d="M469.44,179.57l.05-.06c.14.1.31.16.47.16.2,0,.36-.1.36-.24h0c0-.17-.19-.22-.38-.27-.24-.06-.44-.12-.44-.32h0c0-.18.17-.31.43-.31.14,0,.31.05.44.13l-.04.06c-.12-.08-.27-.12-.4-.12-.21,0-.35.1-.35.23h0c0,.15.18.2.38.26.23.06.44.12.44.33h0c0,.2-.2.32-.45.32-.18,0-.38-.06-.51-.17Z"/>
                <path class="b01i-cls-6" d="M470.69,179.4h0c0-.25.24-.38.56-.38.17,0,.33.03.45.06v-.08c0-.26-.17-.39-.45-.39-.16,0-.29.04-.41.1l-.03-.06c.14-.06.28-.1.45-.1s.31.04.4.13c.08.08.12.19.12.33v.72h-.08v-.24c-.06.13-.24.27-.53.27-.24,0-.48-.12-.48-.35ZM471.7,179.3v-.14c-.12-.04-.27-.06-.46-.06-.28,0-.47.11-.47.3h0c0,.2.19.29.4.29.31,0,.53-.18.53-.39Z"/>
                <path class="b01i-cls-6" d="M472.22,178.1h.11v.14h-.11v-.14ZM472.23,178.56h.08v1.16h-.08v-1.16Z"/>
                <path class="b01i-cls-6" d="M472.7,179.15h0c0-.33.27-.61.66-.61s.65.28.65.6h0c0,.33-.27.61-.65.61s-.65-.28-.65-.6ZM473.92,179.15h0c0-.3-.24-.54-.57-.54s-.56.24-.56.54h0c0,.3.24.54.57.54s.57-.25.57-.54Z"/>
                <path class="b01i-cls-6" d="M475.13,178.11h.72c.2,0,.36.05.46.14.07.07.11.15.11.26h0c0,.21-.15.34-.32.39.23.04.42.18.42.39h0c0,.27-.24.43-.63.43h-.76v-1.61ZM475.87,178.87c.26,0,.47-.12.47-.35h0c0-.21-.18-.34-.49-.34h-.63v.69h.65ZM475.89,179.65c.34,0,.54-.13.54-.35h0c0-.23-.22-.35-.53-.35h-.69v.71h.68Z"/>
                <path class="b01i-cls-6" d="M477.11,178.18l-.33.12-.03-.06.38-.14h.07v1.62h-.08v-1.54Z"/>
                <path class="b01i-cls-6" d="M466.4,180.88h.63c.41,0,.66.18.66.49h0c0,.33-.28.5-.68.5h-.52v.62h-.08v-1.61ZM467.01,181.8c.36,0,.59-.16.59-.42h0c0-.27-.22-.42-.58-.42h-.53v.85h.52Z"/>
                <path class="b01i-cls-6" d="M467.91,182.16h0c0-.25.24-.38.56-.38.18,0,.33.03.45.06v-.08c0-.26-.17-.39-.45-.39-.16,0-.29.04-.41.1l-.03-.06c.14-.06.28-.1.45-.1s.31.04.4.13c.08.08.12.19.12.33v.72h-.08v-.24c-.06.13-.24.27-.53.27-.24,0-.48-.12-.48-.35ZM468.92,182.06v-.14c-.12-.04-.27-.06-.46-.06-.28,0-.47.11-.47.3h0c0,.2.19.29.4.29.31,0,.53-.18.53-.39Z"/>
                <path class="b01i-cls-6" d="M469.32,182.34l.05-.06c.14.1.31.16.47.16.2,0,.36-.1.36-.24h0c0-.17-.19-.22-.38-.27-.24-.06-.44-.12-.44-.32h0c0-.18.17-.31.43-.31.14,0,.31.05.44.13l-.04.06c-.12-.08-.27-.12-.4-.12-.21,0-.35.1-.35.23h0c0,.15.18.2.38.26.23.06.44.12.44.33h0c0,.2-.2.32-.45.32-.18,0-.38-.06-.51-.17Z"/>
                <path class="b01i-cls-6" d="M470.72,182.19v-.8h-.19v-.07h.19v-.39h.08v.39h.46v.07h-.46v.79c0,.17.1.25.26.25.06,0,.12-.01.19-.04v.07c-.06.03-.13.04-.2.04-.2,0-.33-.11-.33-.32Z"/>
                <path class="b01i-cls-6" d="M471.48,181.91h0c0-.33.27-.61.66-.61s.65.28.65.6h0c0,.33-.27.61-.65.61s-.65-.28-.65-.6ZM472.7,181.91h0c0-.3-.24-.54-.57-.54s-.56.24-.56.54h0c0,.3.24.54.57.54s.57-.25.57-.54Z"/>
                <path class="b01i-cls-6" d="M473.16,181.33h.08v.35c.08-.2.27-.38.54-.38v.08h-.01c-.31,0-.52.27-.52.56v.55h-.08v-1.16Z"/>
                <path class="b01i-cls-6" d="M473.91,181.91h0c0-.34.25-.61.6-.61.38,0,.58.3.58.61v.03h-1.09c.02.32.26.51.54.51.2,0,.35-.09.45-.21l.06.04c-.12.14-.29.24-.52.24-.34,0-.62-.24-.62-.61ZM475,181.87c-.01-.25-.18-.5-.5-.5-.29,0-.5.21-.51.5h1.01Z"/>
                <path class="b01i-cls-6" d="M475.37,181.91h0c0-.33.27-.61.66-.61s.65.28.65.6h0c0,.33-.27.61-.65.61s-.65-.28-.65-.6ZM476.59,181.91h0c0-.3-.24-.54-.57-.54s-.56.24-.56.54h0c0,.3.24.54.57.54s.57-.25.57-.54Z"/>
                <path class="b01i-cls-6" d="M477.79,180.88h.72c.2,0,.36.05.46.14.07.07.11.15.11.26h0c0,.21-.15.34-.32.39.23.04.42.18.42.39h0c0,.27-.24.43-.63.43h-.76v-1.61ZM478.53,181.64c.26,0,.47-.12.47-.35h0c0-.21-.18-.34-.49-.34h-.63v.69h.65ZM478.55,182.42c.34,0,.54-.13.54-.35h0c0-.23-.22-.35-.53-.35h-.69v.71h.68Z"/>
                <path class="b01i-cls-6" d="M479.78,180.95l-.33.12-.03-.06.38-.14h.07v1.62h-.08v-1.54Z"/>
              </g>
            </g>
          </g>
          <g id="B01_sala_0004_sala_02_b01_estudio_ensaio">
            <text id="B01_sala_0004_sala_02_b01_estudio_ensaio-2" data-name="B01_sala_0004_sala_02_b01_estudio_ensaio" class="b01i-cls-9" transform="translate(399 230) scale(1.08 1)"><tspan x="0" y="0">Sala </tspan><tspan class="b01i-cls-16" x="5.86" y="0">0</tspan><tspan class="b01i-cls-24" x="7.61" y="0">2_B</tspan><tspan class="b01i-cls-2" x="12.4" y="0">0</tspan><tspan class="b01i-cls-28" x="14.17" y="0">1</tspan><tspan x="0" y="3.01">E</tspan><tspan class="b01i-cls-16" x="1.68" y="3.01">s</tspan><tspan class="b01i-cls-24" x="2.9" y="3.01">tudio ensaio </tspan></text>
          </g>
          <g id="B01_sala_0005_sala_03_b01_pastoreo">
            <text id="B01_sala_0005_sala_03_b01_pastoreo-2" data-name="B01_sala_0005_sala_03_b01_pastoreo" class="b01i-cls-9" transform="translate(121.27 194.8) scale(1.08 1)"><tspan x="0" y="0">Sala </tspan><tspan class="b01i-cls-16" x="5.86" y="0">0</tspan><tspan class="b01i-cls-24" x="7.61" y="0">3_B</tspan><tspan class="b01i-cls-1" x="12.45" y="0">0</tspan><tspan class="b01i-cls-28" x="14.22" y="0">1</tspan><tspan x="0" y="3.01">pa</tspan><tspan class="b01i-cls-16" x="3.09" y="3.01">s</tspan><tspan class="b01i-cls-32" x="4.31" y="3.01">t</tspan><tspan class="b01i-cls-24" x="5.28" y="3.01">o</tspan><tspan class="b01i-cls-11" x="6.88" y="3.01">r</tspan><tspan x="7.82" y="3.01">eo</tspan></text>
          </g>
          <g id="B01_sala_0006_sala_03_b01_som_tec">
            <text id="B01_sala_0006_sala_03_b01_som_tec-2" data-name="B01_sala_0006_sala_03_b01_som_tec" class="b01i-cls-7" transform="translate(359.27 164.87) scale(1.02 1)"><tspan x="0" y="0">sala_</tspan><tspan class="b01i-cls-25" x="5.26" y="0">0</tspan><tspan x="6.73" y="0">3_B</tspan><tspan class="b01i-cls-18" x="10.81" y="0">0</tspan><tspan x="12.3" y="0">1</tspan><tspan x="0" y="2.53">Som </tspan><tspan class="b01i-cls-4" x="5.34" y="2.53">t</tspan><tspan x="6.15" y="2.53">ec.</tspan></text>
          </g>
          <g id="B01_sala_0007_acesso_palco_templo_t_batisterio_t_banheiros_b01_encomun_b02">
            <text id="B01_sala_0007_acesso_palco_templo_t_batisterio_t_banheiros_b01_encomun_b02-2" data-name="B01_sala_0007_acesso_palco_templo_t_batisterio_t_banheiros_b01_encomun_b02" class="b01i-cls-8" transform="translate(356.2 215.97)"><tspan class="b01i-cls-17" x="0" y="0">A</tspan><tspan class="b01i-cls-20" x="1.3" y="0">c</tspan><tspan x="2.24" y="0">e</tspan><tspan class="b01i-cls-27" x="3.23" y="0">s</tspan><tspan class="b01i-cls-29" x="4.06" y="0">so: </tspan><tspan class="b01i-cls-27" x="0" y="2.04">P</tspan><tspan class="b01i-cls-23" x="1.12" y="2.04">al</tspan><tspan class="b01i-cls-20" x="2.51" y="2.04">c</tspan><tspan x="3.45" y="2.04">o </tspan><tspan class="b01i-cls-19" x="5.05" y="2.04">t</tspan><tspan x="5.7" y="2.04">emplo T</tspan><tspan x="0" y="4.07">B</tspan><tspan class="b01i-cls-22" x="1.22" y="4.07">a</tspan><tspan x="2.19" y="4.07">ti</tspan><tspan class="b01i-cls-27" x="3.29" y="4.07">s</tspan><tspan class="b01i-cls-19" x="4.12" y="4.07">t</tspan><tspan x="4.77" y="4.07">erio T</tspan><tspan x="0" y="6.11">Banhei</tspan><tspan class="b01i-cls-17" x="5.69" y="6.11">r</tspan><tspan class="b01i-cls-23" x="6.33" y="6.11">os B</tspan><tspan class="b01i-cls-22" x="9.99" y="6.11">0</tspan><tspan x="11.18" y="6.11">1</tspan><tspan x="0" y="8.14">En</tspan><tspan class="b01i-cls-15" x="2.18" y="8.14">c</tspan><tspan x="3.12" y="8.14">omun B</tspan><tspan class="b01i-cls-21" x="9.63" y="8.14">0</tspan><tspan class="b01i-cls-29" x="10.82" y="8.14">2</tspan></text>
          </g>
          <g id="B01_sala_0008_acesso_encomunestudioradiorede_super">
            <text id="B01_sala_0008_acesso_encomunestudioradiorede_super-2" data-name="B01_sala_0008_acesso_encomunestudioradiorede_super" class="b01i-cls-7" transform="translate(307.55 174.03) scale(1.02 1)"><tspan class="b01i-cls-3" x="0" y="0">A</tspan><tspan class="b01i-cls-13" x="1.61" y="0">c</tspan><tspan class="b01i-cls-26" x="2.79" y="0">e</tspan><tspan class="b01i-cls-25" x="4.02" y="0">s</tspan><tspan x="5.04" y="0">so: </tspan><tspan x="0" y="2.53">En</tspan><tspan class="b01i-cls-4" x="2.71" y="2.53">c</tspan><tspan class="b01i-cls-5" x="3.88" y="2.53">omun</tspan><tspan x="0" y="5.06">E</tspan><tspan class="b01i-cls-25" x="1.41" y="5.06">s</tspan><tspan x="2.44" y="5.06">tudio</tspan><tspan x="0" y="7.59">Radio</tspan><tspan class="b01i-cls-25" x="0" y="10.12">R</tspan><tspan class="b01i-cls-26" x="1.5" y="10.12">ede super</tspan></text>
          </g>
        </g>
    </g>
    <g id="B01_POI" data-layer="2026_mapa_B01_poi.svg" style="display:none" visibility="hidden" aria-hidden="true" pointer-events="none">
      <rect id="B01_poi_0012" class="b01p-cls-1" x="377.98" y="213.21" width="73.42" height="33.73"/>
        <rect id="B01_poi_0006" class="b01p-cls-1" x="288.41" y="232.06" width="63.44" height="15.59"/>
        <rect id="B01_poi_0001" class="b01p-cls-1" x="231.97" y="211.06" width="49.42" height="35.88"/>
        <rect id="B01_poi_0009" class="b01p-cls-1" x="305.75" y="211.86" width="62.86" height="15.59"/>
        <rect id="B01_poi_0007" class="b01p-cls-1" x="307.52" y="149.79" width="13.08" height="34.33"/>
        <path id="B01_poi_0002" class="b01p-cls-1" d="M201.87,244.46H66.23v-114.64h64.13c16.74,14.59,37.55,23.69,59.62,26.1l11.9,1.3v87.24Z"/>
        <path id="B01_poi_0001-2" data-name="B01_poi_0001" class="b01p-cls-1" d="M327.88,148.97v35.18h50.09v-4.07l28.01-.99v-18.85l45.41.65v-31.06h-62.89s-32.66,14.46-60.63,19.14Z"/>
    </g>
    <g id="B01_NODES" data-layer="2026_mapa_B01_node.svg" style="display:none" visibility="hidden" aria-hidden="true" pointer-events="none">
      <circle id="B01_node_0011" class="b01n-cls-1" cx="418.12" cy="196.24" r="1"/>
        <circle id="B01_node_0012" class="b01n-cls-1" cx="426.78" cy="196.24" r="1"/>
        <circle id="B01_node_0009" class="b01n-cls-1" cx="353.92" cy="196.44" r="1"/>
        <circle id="B01_node_0008" class="b01n-cls-1" cx="315.75" cy="196.44" r="1"/>
        <circle id="B01_node_0004" class="b01n-cls-1" cx="259.58" cy="197.74" r="1"/>
        <circle id="B01_node_0003" class="b01n-cls-1" cx="218.32" cy="198" r="1"/>
        <circle id="B01_node_0013_entrada_narnia" class="b01n-cls-1" cx="456.19" cy="174.68" r="1"/>
        <circle id="B01_node_0010_som_tec_b01" class="b01n-cls-1" cx="353.92" cy="189.64" r="1"/>
        <circle id="B01_node_0007_acesso_encomun_b02" class="b01n-cls-1" cx="312.15" cy="186.15" r="1"/>
        <circle id="B01_node_0006_conexao_templo_batisterio" class="b01n-cls-1" cx="303.05" cy="219.32" r="1"/>
        <circle id="B01_node_0005_banheiro_masc_b01" class="b01n-cls-1" cx="291.75" cy="230" r="1"/>
        <circle id="B01_node_0002_pastoreo_b01" class="b01n-cls-1" cx="208.81" cy="197.8" r="1"/>
        <circle id="B01_node_0001_banheiro_femin_b01" class="b01n-cls-1" cx="227.99" cy="216.76" r="1"/>
    </g>
    <g id="B01_EDGES" data-layer="2026_mapa_B01_edge.svg" style="display:none" visibility="hidden" aria-hidden="true" pointer-events="none">
      <path id="B01_edge_0012_node_0013_node_0011" class="b01e-cls-1" d="M455.19,174.68h-29.58c-4.15,0-7.51,3.36-7.51,7.51v13.17"/>
        <line id="B01_edge_0011_node_0011_node_0009" class="b01e-cls-1" x1="417.12" y1="196.24" x2="354.92" y2="196.57"/>
        <line id="B01_edge_0010_node_0009_node_0008" class="b01e-cls-1" x1="352.92" y1="196.44" x2="317.25" y2="196.44"/>
        <polyline id="B01_edge_0009_node_0008_node_0006" class="b01e-cls-1" points="314.25 196.39 300.25 196.24 300.25 219.32 302.03 219.32"/>
        <path id="B01_edge_0008_node_0008_node_0005" class="b01e-cls-1" d="M315.75,197.8v4.1h-8.79c-8.47,0-15.33,6.89-15.28,15.37l.07,11.72"/>
        <polyline id="B01_edge_0007_node_0008_node_0004" class="b01e-cls-1" points="315.75 195.2 315.75 192.97 259.58 192.97 259.58 196.74"/>
        <line id="B01_edge_0006_node_0004_node_0003" class="b01e-cls-1" x1="258.58" y1="197.8" x2="219.32" y2="197.8"/>
        <line id="B01_edge_0005_node_0003_node_0002" class="b01e-cls-1" x1="217.32" y1="197.8" x2="209.81" y2="197.8"/>
        <path id="B01_edge_0004_node_0003_node_0001" class="b01e-cls-1" d="M218.32,199l-.14,8.81c-.08,4.92,3.89,8.95,8.81,8.95h0"/>
        <line id="B01_edge_0003_node_0009_node_0010" class="b01e-cls-1" x1="353.92" y1="195.44" x2="353.92" y2="190.58"/>
        <path id="B01_edge_0002_node_0009_node_0007" class="b01e-cls-1" d="M353.92,197.44h0c0,3.74-3.03,6.78-6.78,6.78h-24.56c-5.76,0-10.44-4.67-10.44-10.44v-6.63"/>
        <line id="B01_edge_0001_node_0012_node_0011" class="b01e-cls-1" x1="419.12" y1="196.24" x2="425.78" y2="196.24"/>
    </g>
    </g>
  </g>
</svg>
